<svg width="170" height="29" viewBox="0 0 170 29" fill="none" xmlns="http://www.w3.org/2000/svg">
<path d="M7.09985 8.7208C7.17672 8.81161 8.82087 8.28833 9.42301 8.27103C14.7654 8.10237 25.557 6.93038 26.2915 14.0618C26.5734 16.7993 26.8253 25.094 24.6773 26.7547C21.7733 28.9949 11.0885 28.9214 7.3689 28.4024C4.1105 27.9483 0.894808 27.2867 0.326831 23.4809C-0.663926 16.8512 0.980218 8.08074 0.288396 1.21315C0.476299 -0.724307 7.10412 -0.0496568 7.10412 1.21315C7.10412 2.30729 6.86071 8.43537 7.10412 8.7208H7.09985ZM10.8494 13.5731C9.5255 13.7201 7.49701 13.8369 6.90341 15.1732C6.30981 16.5095 6.20305 21.1845 7.09558 22.2397C8.40236 23.788 18.4167 23.8875 19.4886 22.2657C20.2146 21.1672 20.1505 15.7008 19.2366 14.7321C18.0622 13.4909 12.5704 13.3742 10.8536 13.5688L10.8494 13.5731ZM85.485 0.573097V28.2467C85.485 29.1506 91.6217 29.2025 92.1128 28.4889C92.9712 27.2521 91.7029 18.261 92.3904 15.8954C93.3812 12.4919 105.381 12.8076 106.564 15.597C107.487 17.7767 106.009 27.8748 107.183 28.7008C107.79 29.1246 112.778 29.2155 113.115 28.1819C113.435 27.2045 113.384 15.2381 113.184 13.6466C112.201 5.88813 97.6602 8.85054 92.3007 8.7208V0.573097H85.485ZM124.167 8.42239C127.614 8.11102 137.901 7.80829 140.19 10.4723C142.022 12.6087 141.98 19.0611 141.732 21.8203C141.42 25.2843 140.643 27.0401 137.132 27.9181C133.093 28.9257 119.184 29.5052 116.57 26.1103C114.802 23.8096 114.802 13.8931 116.062 11.4194C117.322 8.94568 121.69 8.64728 124.163 8.42239H124.167ZM125.863 13.5644C121.468 14.105 121.028 16.2068 121.673 20.5445C122.006 22.7717 123.796 23.1479 125.726 23.3296C131.559 23.8788 136.962 24.0561 135.142 16.4187C134.365 13.1493 128.643 13.2228 125.863 13.5688V13.5644ZM37.2624 8.42239C40.7215 8.11102 50.9836 7.80829 53.2854 10.4723C55.5872 13.1363 55.711 24.4583 52.901 26.7504C50.0483 29.0771 38.8767 28.8652 35.1186 28.3375C27.483 27.265 27.7691 21.7208 28.4054 14.9527C28.9606 9.02785 32.0012 8.89378 37.2582 8.42239H37.2624ZM38.9578 13.5644C34.5678 14.105 34.1108 16.1722 34.8197 20.4926C35.1912 22.763 36.8098 23.1393 38.8254 23.3252C44.6547 23.8615 49.6554 24.1859 48.3999 16.6869C47.8106 13.1622 41.8063 13.2141 38.9621 13.5644H38.9578ZM65.3795 8.42239C69.146 8.09372 79.4935 7.67422 81.885 10.8485C83.5206 13.0195 83.3924 21.4873 82.833 24.281C82.3974 26.452 80.6294 27.2953 78.6906 27.8316C74.5696 28.9733 64.4826 29.103 60.494 27.6759C58.3459 26.9061 57.2057 25.3535 56.9495 23.0917C56.7402 21.2451 56.6762 13.638 57.1374 12.1286C58.0854 9.02353 62.7317 8.6516 65.3837 8.41807L65.3795 8.42239ZM63.872 22.3392C65.0634 23.6928 73.9162 23.6885 75.4237 22.8279C77.0636 21.8938 76.9098 16.3279 76.0685 14.9873C74.8771 13.0844 64.0129 12.4184 63.3467 15.8133C63.1246 16.9463 63.1716 21.5435 63.872 22.3392ZM152.28 8.42239C156.58 8.04615 168.277 7.24608 169.631 12.5698C170.075 14.3126 170.101 22.0235 169.802 23.9221C169.426 26.3439 167.735 27.2348 165.587 27.8316C161.462 28.9733 151.379 29.103 147.39 27.6759C145.242 26.9061 144.102 25.3535 143.846 23.0917C143.636 21.2451 143.572 13.638 144.034 12.1286C144.982 9.02353 149.628 8.6516 152.28 8.41807V8.42239ZM150.772 22.3435C151.934 23.6928 160.83 23.6842 162.328 22.8279C163.968 21.8938 163.815 16.3279 162.973 14.9873C161.795 13.106 153.557 13.1839 151.533 14.1007C149.508 15.0175 149.543 20.9077 150.777 22.3435H150.772Z" fill="#F2F2F2"/>
</svg>
