<svg width="168" height="24" viewBox="0 0 168 24" fill="none" xmlns="http://www.w3.org/2000/svg">
<path d="M48.6599 0.768187C48.0745 0.78418 47.4842 0.814568 46.9021 0.760193C46.3429 0.709016 46.2576 0.924924 46.2593 1.4159C46.2789 6.01222 46.2708 10.6085 46.2708 15.2065V16.0029C44.0095 13.2601 41.8696 10.6629 39.7281 8.06569C37.5784 5.45887 35.427 2.85365 33.1855 0.138081C33.1724 0.422752 33.1609 0.550687 33.1609 0.680229C33.1609 7.72344 33.1609 14.7683 33.1609 21.8115C33.1609 21.8802 33.1675 21.949 33.1609 22.0178C33.1297 22.3121 33.2544 22.4224 33.561 22.4128C34.1234 22.3936 34.6908 22.3648 35.2483 22.4192C35.8403 22.4768 35.9337 22.2305 35.9304 21.7219C35.9108 18.2467 35.9206 14.7699 35.9206 11.293V7.94574C35.9682 7.92015 36.0141 7.89617 36.0616 7.87058C40.3578 12.9211 44.6523 17.9716 49.037 23.1277C49.0534 22.8782 49.0649 22.7918 49.0649 22.7071C49.0649 15.5951 49.0649 8.4831 49.0649 1.37112C49.0649 1.30235 49.0583 1.23358 49.0649 1.16481C49.0993 0.865749 48.9632 0.761791 48.6599 0.769788V0.768187Z" fill="#F2F2F2"/>
<path d="M29.7272 0.760188C26.328 0.784177 22.9288 0.785776 19.5312 0.760188C18.9737 0.75539 18.8311 0.902525 18.836 1.44148C18.8622 4.82555 18.8491 8.20803 18.8491 11.5921C18.8491 14.9762 18.8507 18.3586 18.8458 21.7427C18.8458 22.1041 18.8097 22.384 19.3656 22.3808C22.8813 22.3568 26.3985 22.3632 29.9142 22.376C30.293 22.376 30.3963 22.2529 30.3799 21.9026C30.3536 21.3557 30.3372 20.8023 30.3832 20.257C30.4241 19.7692 30.2569 19.6541 29.7682 19.6588C27.2611 19.6844 24.7522 19.6572 22.2434 19.6828C21.7466 19.6876 21.617 19.5549 21.6285 19.0767C21.6613 17.5686 21.6531 16.0589 21.6318 14.5508C21.6269 14.1733 21.7187 14.0374 22.1286 14.0502C23.0649 14.0806 24.0045 14.0774 24.9408 14.0534C25.6574 14.0358 26.6412 14.3652 27.0151 13.9158C27.3742 13.4856 27.0872 12.5629 27.1348 11.8592C27.1643 11.4178 26.9954 11.3266 26.5756 11.333C25.1228 11.357 23.6684 11.325 22.2155 11.3522C21.7695 11.3602 21.6219 11.2594 21.6269 10.7956C21.6531 8.55506 21.6547 6.31448 21.6269 4.07389C21.6203 3.58931 21.7498 3.47096 22.2418 3.47736C24.7735 3.50295 27.3053 3.47896 29.8371 3.49975C30.2635 3.50295 30.4176 3.4102 30.3832 2.97519C30.3405 2.45223 30.334 1.92126 30.3832 1.3999C30.4323 0.878535 30.252 0.75699 29.7272 0.760188Z" fill="#F2F2F2"/>
<path d="M91.8232 0.736209C91.3788 0.717018 91.1739 0.85935 91.005 1.26237C90.1408 3.33183 89.2389 5.3869 88.3518 7.44677C87.2056 10.108 86.0611 12.7692 84.91 15.4432C84.6591 15.2752 84.6312 15.0337 84.5427 14.829C82.5799 10.3159 80.6237 5.79952 78.6592 1.28636C78.569 1.07845 78.592 0.750596 78.228 0.748996C77.19 0.744199 76.1537 0.748996 75.0403 0.748996L84.4492 22.4864C84.505 22.6111 84.5738 22.7327 84.6657 22.835C84.9706 23.1773 85.0149 22.8814 85.092 22.6671L94.2992 1.4095C94.3878 1.20639 94.5485 1.02088 94.4944 0.744204C93.604 0.744204 92.7119 0.77139 91.8248 0.733008L91.8232 0.736209Z" fill="#F2F2F2"/>
<path d="M108.545 19.6093C106.204 19.726 103.872 19.3662 101.531 19.4621C101.437 19.4653 101.344 19.4525 101.25 19.4509C100.88 19.4445 100.668 19.2526 100.665 18.9056C100.652 17.4007 100.581 15.8926 100.75 14.3876C101.044 14.1541 101.381 14.2757 101.704 14.2741C102.893 14.2805 104.082 14.2885 105.271 14.2677C105.737 14.2597 106.168 14.1158 106.122 13.588C106.056 12.8347 106.079 12.0687 105.894 11.3266C104.172 11.3202 102.452 11.3154 100.73 11.309C100.483 9.3707 100.494 7.42119 100.522 5.47327C100.532 4.82076 100.422 4.16186 100.591 3.51255L108.747 3.49336C109.134 3.52375 109.223 3.36862 109.205 3.02478C109.178 2.50181 109.155 1.97085 109.21 1.45108C109.27 0.859351 109.029 0.750604 108.465 0.755402C105.212 0.78259 101.959 0.768189 98.7069 0.768189C97.6853 0.768189 97.6886 0.768196 97.6853 1.79493L97.6493 22.2225C97.6886 22.2737 97.6985 22.3472 97.7936 22.3472C101.475 22.368 105.156 22.3488 108.837 22.3568C109.146 22.3568 109.247 22.2257 109.244 21.9426C109.237 21.3941 109.208 20.8423 109.252 20.297C109.296 19.758 109.114 19.5773 108.549 19.6045L108.545 19.6093Z" fill="#F2F2F2"/>
<path d="M65.7543 0.758593C61.8402 0.782582 57.9261 0.769792 54.012 0.77299C53.3119 0.77299 52.3739 0.5395 51.9755 0.886543C51.5147 1.28796 51.8836 2.22353 51.8181 2.92242C51.7771 3.35422 51.9033 3.51255 52.387 3.50136C53.9104 3.46777 55.4337 3.51575 56.9571 3.47577C57.5457 3.45978 57.7376 3.57013 57.7343 4.20184C57.7031 9.5962 57.7113 14.9922 57.7228 20.3865C57.7228 21.0406 57.4227 21.8866 57.8589 22.2977C58.2541 22.6703 59.115 22.3344 59.7578 22.416C60.4235 22.5008 60.5104 22.2225 60.5038 21.6563C60.476 18.7537 60.4907 15.8494 60.4907 12.9467C60.4907 10.044 60.5104 7.09493 60.4743 4.16825C60.4678 3.57492 60.6498 3.45978 61.2155 3.47417C62.7847 3.51415 64.3556 3.47897 65.9265 3.49496C66.2823 3.49816 66.425 3.4166 66.4037 3.04397C66.3709 2.49701 66.3578 1.94366 66.407 1.3999C66.4529 0.883338 66.2823 0.753803 65.7527 0.757002L65.7543 0.758593Z" fill="#F2F2F2"/>
<path d="M71.0655 0.763396C70.649 0.814573 70.2178 0.809775 69.8013 0.763396C69.2601 0.704223 69.1404 0.904131 69.1421 1.4111C69.1601 8.20483 69.1585 14.9986 69.1437 21.7923C69.1437 22.2481 69.2339 22.4624 69.7537 22.416C70.2424 22.3728 70.7425 22.3664 71.2295 22.416C71.8018 22.4752 71.9215 22.2609 71.9182 21.7331C71.8936 18.3714 71.9067 15.0082 71.9067 11.6465C71.9067 8.28479 71.8838 4.92151 71.9264 1.55983C71.9346 0.868946 71.7231 0.683433 71.0672 0.763396H71.0655Z" fill="#F2F2F2"/>
<path d="M8.08902 1.12963C5.65398 0.622658 3.19598 0.787384 0.737988 0.819369C0.175551 0.827366 -0.00482178 0.972899 9.74946e-05 1.54864C0.0296131 4.90872 0.0148547 8.2688 0.0148547 11.6289C0.0148547 14.989 0.0148563 18.3954 0.0164961 21.7779C0.0164961 22.0786 -0.0950072 22.4256 0.46251 22.4128C2.64011 22.3648 4.82262 22.4944 6.99694 22.2833C11.4686 21.8483 14.5152 19.2846 15.6401 15.0513C16.0763 13.4137 16.1501 11.7472 15.9959 10.084C15.5483 5.26696 12.5344 2.05561 8.08738 1.12963H8.08902ZM12.9411 14.4196C12.2064 17.4726 10.0518 19.3038 6.83297 19.5501C5.66546 19.6397 4.49631 19.6796 3.32389 19.6812C2.87951 19.6812 2.77949 19.5501 2.78277 19.1375C2.8008 16.625 2.7926 14.1126 2.7926 11.5985C2.7926 9.08444 2.809 6.61835 2.77949 4.12827C2.77293 3.60371 2.92706 3.48857 3.44359 3.49337C4.87509 3.50456 6.30496 3.50936 7.7086 3.80202C10.7946 4.44333 12.8837 6.85344 13.1772 10.1272C13.3067 11.5617 13.2838 12.9963 12.9411 14.418V14.4196Z" fill="#F2F2F2"/>
<path d="M167.96 22.1905L154.98 0.264424C154.872 0.0821062 154.601 0.0821062 154.493 0.264424L148.219 10.8628C148.111 11.0452 147.841 11.0452 147.732 10.8628L141.459 0.264424C141.35 0.0821062 141.08 0.0821062 140.972 0.264424L134.698 10.8628C134.59 11.0452 134.319 11.0452 134.211 10.8628L127.937 0.264424C127.829 0.0821062 127.558 0.0821062 127.45 0.264424L114.47 22.1905C114.362 22.3728 114.498 22.6015 114.714 22.6015H131.064C131.22 22.6015 131.346 22.4784 131.346 22.3264V20.4137C131.346 20.2618 131.22 20.1386 131.064 20.1386H119.086C118.869 20.1386 118.733 19.9099 118.841 19.7276L127.449 5.18859C127.557 5.00628 127.827 5.00628 127.936 5.18859L138.173 22.4656C138.223 22.5503 138.315 22.6031 138.417 22.6031H154.195C154.411 22.6031 154.547 22.3744 154.439 22.1921L149.516 13.8759C149.466 13.7911 149.466 13.6856 149.516 13.6008L154.495 5.19019C154.603 5.00788 154.873 5.00788 154.982 5.19019L163.589 19.7292C163.697 19.9115 163.561 20.1402 163.344 20.1402H160.091C159.935 20.1402 159.809 20.2634 159.809 20.4153V22.328C159.809 22.48 159.935 22.6031 160.091 22.6031H167.718C167.934 22.6031 168.07 22.3744 167.962 22.1921L167.96 22.1905ZM150.064 19.7276C150.172 19.9099 150.036 20.1386 149.82 20.1386H139.863C139.763 20.1386 139.67 20.0859 139.619 20.0011L135.992 13.8727C135.941 13.7879 135.941 13.6824 135.992 13.5976L140.97 5.18699C141.078 5.00467 141.349 5.00467 141.457 5.18699L150.062 19.726L150.064 19.7276Z" fill="#F2F2F2"/>
</svg>
