<svg width="173" height="34" viewBox="0 0 173 34" fill="none" xmlns="http://www.w3.org/2000/svg">
<path d="M89.2596 33.1243C89.176 22.8462 89.2465 12.5663 89.2235 2.28817C89.2235 1.63428 89.2285 0.980401 89.2334 0.326514C89.2334 0.277226 89.1924 0.204918 89.2629 0.18356C89.3269 0.163844 89.3499 0.239432 89.3811 0.278863C90.1193 1.23341 90.856 2.18794 91.5943 3.14248C95.5745 8.29307 99.5531 13.4437 103.533 18.5943C104.254 19.5274 104.979 20.4574 105.696 21.3938C105.822 21.5581 105.863 21.4102 105.912 21.3462C106.529 20.5559 107.143 19.764 107.755 18.9721C111.2 14.5116 114.645 10.0494 118.092 5.59043C119.435 3.85386 120.785 2.12386 122.13 0.390571C122.191 0.31171 122.248 0.23119 122.324 0.127686C122.366 0.273906 122.335 0.395499 122.337 0.513791C122.343 1.6507 122.353 2.78925 122.353 3.92616C122.353 13.3484 122.353 22.769 122.353 32.1912C122.353 32.5017 122.394 32.8188 122.291 33.1227H118.644C118.632 32.9666 118.611 32.8122 118.611 32.6561C118.609 25.9726 118.611 19.2876 118.609 12.6041C118.609 12.2772 118.606 11.9503 118.639 11.6233C118.677 11.2471 118.704 10.8708 118.741 10.4387C118.675 10.5143 118.642 10.5439 118.616 10.58C118.307 11.0121 117.996 11.4409 117.695 11.8779C116.022 14.3177 114.221 16.6654 112.388 18.9886C110.222 21.7339 108.037 24.4644 105.919 27.2476C105.835 27.3576 105.791 27.3971 105.684 27.2574C104.734 26.0105 103.778 24.7684 102.821 23.5263C100.805 20.9059 98.7787 18.2936 96.7771 15.6633C95.5056 13.994 94.1849 12.3593 92.997 10.6277C92.9659 10.5817 92.938 10.4962 92.8674 10.5275C92.7985 10.5587 92.8494 10.6359 92.8527 10.6934C92.897 11.2635 92.9642 11.8303 92.9642 12.4053C92.9642 19.1643 92.9675 25.9217 92.9692 32.6808C92.9692 32.8303 92.9692 32.9798 92.9085 33.1211H89.2613L89.2596 33.1243ZM0 32.9404C0 33.0931 0.0344527 33.1293 0.188674 33.1276C2.58567 33.1227 4.98266 33.1243 7.38129 33.1243C7.02691 33.0504 6.66432 33.1178 6.3083 33.0504C6.46088 33.0274 6.6151 33.0159 6.77097 33.0126C7.53551 32.9978 8.30005 32.9896 9.05803 32.8795C10.51 32.6693 11.9456 32.3982 13.3204 31.8593C14.8282 31.2678 16.2211 30.4759 17.5172 29.5099C19.1234 28.3138 20.3966 26.8319 21.3695 25.0888C22.1242 23.735 22.6262 22.2876 22.9363 20.7728C23.2037 19.4683 23.3678 18.1572 23.3235 16.8215C23.2841 15.6271 23.1512 14.4508 22.8707 13.2859C22.3736 11.2208 21.5007 9.33799 20.2309 7.63098C18.2621 4.98422 15.6535 3.24763 12.5379 2.2438C10.8381 1.69671 9.07772 1.48968 7.29269 1.48968C5.05977 1.48968 2.82684 1.48968 0.593915 1.49133C0.397037 1.49133 0.200159 1.47982 0.00492175 1.52582C0.00492175 11.9979 0.00492105 22.4699 0.00163975 32.942L0 32.9404ZM3.78006 5.2602C3.78006 5.06798 3.826 5.00394 4.02944 5.00558C5.34032 5.0138 6.6512 4.99572 7.96044 5.0795C9.17124 5.15672 10.3558 5.36374 11.5059 5.74819C14.6346 6.79309 16.9725 8.74653 18.4032 11.7383C19.0119 13.0099 19.3909 14.3456 19.5106 15.7487C19.6665 17.5592 19.6041 19.3615 19.0594 21.1063C18.1489 24.0209 16.3999 26.2864 13.7224 27.8127C12.236 28.6588 10.6314 29.1057 8.94483 29.3324C7.27793 29.5559 5.6061 29.4754 3.93428 29.4902C3.77022 29.4902 3.78826 29.3998 3.78826 29.293C3.78826 26.4113 3.78826 23.5296 3.78826 20.6479C3.78826 19.5176 3.78826 18.3856 3.78826 17.2553H3.78498C3.78498 13.2564 3.78498 9.25745 3.7817 5.25856L3.78006 5.2602ZM0.103359 2.15508H0.109923V32.3243C0.109923 32.3243 0.105 32.321 0.103359 32.3193V2.15508ZM172.943 33.1243C172.985 33.0011 172.989 32.873 172.992 32.7432C173.008 31.7558 172.995 30.7684 172.992 29.7793C172.992 29.5723 172.938 29.5214 172.731 29.5214C167.458 29.528 162.187 29.5263 156.914 29.5263C156.853 29.5263 156.79 29.5231 156.73 29.5263C156.631 29.5313 156.607 29.4885 156.607 29.3916C156.612 27.7027 156.615 26.0121 156.617 24.3231C156.617 22.5718 156.617 20.8221 156.612 19.0707C156.612 18.9491 156.648 18.9179 156.763 18.9196C156.946 18.9245 157.132 18.9097 157.315 18.9097C161.304 18.9097 165.292 18.9097 169.281 18.9097C169.635 18.9097 169.991 18.9097 170.346 18.9311C170.544 18.9426 170.606 18.8834 170.605 18.6846C170.595 17.6759 170.597 16.6687 170.595 15.66C170.595 15.4782 170.506 15.3873 170.329 15.3873C165.89 15.3873 161.452 15.3889 157.012 15.3889C156.618 15.3889 156.618 15.3889 156.618 14.9995C156.618 11.7235 156.615 8.44588 156.61 5.16987C156.61 5.04665 156.649 5.0187 156.763 5.02034C156.953 5.02363 157.145 5.01051 157.335 5.01051C161.857 5.01051 166.377 5.01051 170.898 5.01051C171.309 5.01051 171.719 5.00721 172.127 5.02856C172.323 5.03842 172.37 4.98093 172.368 4.79364C172.359 3.77173 172.357 2.7498 172.367 1.7279C172.368 1.52253 172.298 1.4831 172.108 1.4831C165.852 1.48803 159.596 1.48639 153.34 1.48639C153.028 1.48639 152.873 1.64359 152.873 1.95793C152.873 11.7416 152.873 21.5236 152.874 31.3073C152.874 31.9118 152.845 32.5181 152.902 33.1227H172.941L172.943 33.1243ZM57.664 33.1243C57.7017 32.9781 57.705 32.8303 57.705 32.6791C57.705 28.81 57.705 24.9393 57.705 21.0702C57.705 14.625 57.705 8.1797 57.7083 1.73612C57.7083 1.54226 57.6623 1.48475 57.4622 1.48639C56.3761 1.49461 55.2899 1.48639 54.2038 1.4831C53.9348 1.4831 53.9348 1.48147 53.9348 1.7427C53.9348 11.9749 53.9348 22.2087 53.9348 32.4409C53.9348 32.5362 53.9413 32.6315 53.9348 32.7268C53.9266 32.8615 54.0299 32.9847 53.9742 33.1243H57.664Z" fill="#F2F2F2"/>
</svg>
