<svg width="90" height="66" viewBox="0 0 90 66" fill="none" xmlns="http://www.w3.org/2000/svg">
<path d="M90 50.1446V49.9315C89.7211 49.9258 89.4385 49.8099 89.1132 49.995C88.6856 50.5016 88.5945 51.2887 88.1315 51.7729C87.334 51.2887 87.7262 49.8286 86.3579 49.9072C86.6665 50.9503 86.5847 51.9187 86.41 52.9526C86.633 52.8161 86.8952 53.0479 87.0774 52.7937C86.6739 52.2141 86.9156 51.5841 86.9658 50.9447C87.28 51.5673 87.5924 52.1898 87.9345 52.8684C88.4699 52.2908 88.5517 51.5261 89.1113 50.8793C89.0574 51.657 89.2098 52.2777 88.8622 52.9133H89.9963V52.7002C89.8643 52.6684 89.6895 52.6703 89.6672 52.5002C89.5742 51.7748 89.5817 51.0457 89.6616 50.3184C89.6802 50.1408 89.8643 50.1651 89.9963 50.1446H90Z" fill="#F2F2F2"/>
<path d="M9.55417 60.7877C9.03546 60.6755 8.9072 60.2848 8.87373 59.8361C8.85514 59.5893 8.86442 59.3388 8.86442 59.0902C8.86442 56.0017 8.86814 52.9133 8.85884 49.8249C8.85884 49.4491 8.9611 49.049 8.67665 48.6097C8.00549 48.6097 7.30088 48.576 6.59812 48.619C5.93068 48.6602 5.21863 48.4209 4.55491 48.8135C4.81705 49.4865 5.51794 49.1332 5.84143 49.5164C5.96785 49.6566 6.01064 49.8286 6.01064 50.0081C6.01436 51.141 6.01064 52.2739 6.01064 53.4517C5.85447 53.3825 5.75406 53.3545 5.6704 53.2984C3.97485 52.1524 2.22166 52.4291 1.01692 54.0332C-0.176658 55.6222 -0.355157 58.6265 0.671098 60.3109C1.78659 62.1393 3.90979 62.6964 5.59047 61.3654C5.70016 61.2794 5.81912 61.2064 5.92881 61.1317C6.18909 61.3859 5.90837 61.8066 6.31553 62.0384C7.47192 61.6645 8.74546 61.6233 10.0023 61.356C9.95949 60.9223 9.76797 60.8344 9.5523 60.7877H9.55417ZM6.0199 59.3182C6.0199 60.0156 5.57187 60.4269 5.02528 60.7092C4.44708 61.0101 3.80564 60.7858 3.4617 60.2212C3.21815 59.823 3.10663 59.3762 3.07875 58.9088C3.01367 57.8806 3.01181 56.8542 3.07688 55.826C3.10105 55.4278 3.21075 55.0539 3.35948 54.6968C3.65509 53.9939 4.21096 53.6891 4.87468 53.8237C5.51051 53.9527 5.99015 54.493 6.01432 55.1698C6.04035 55.8783 6.0199 56.5888 6.0199 57.2973C6.0199 57.9703 6.0199 58.6452 6.0199 59.3182Z" fill="#F2F2F2"/>
<path d="M45.1738 61.5411C44.3372 61.2494 44.3874 60.5708 44.3948 59.8866C44.4078 58.5742 44.3948 57.2618 44.3985 55.9494C44.3985 55.5232 44.3744 55.1044 44.2591 54.6875C43.9468 53.5546 43.2328 52.9694 42.0653 52.861C40.9089 52.7525 40.0053 53.2349 39.0702 54.1977C39.0702 53.1208 39.085 52.2721 39.0664 51.4233C39.0479 50.5914 39.1631 49.7464 38.9679 48.8752C37.6572 48.907 36.4395 48.7761 35.1901 48.9668C35.2403 49.1967 35.2385 49.3687 35.2849 49.3818C36.2796 49.6716 36.2461 50.453 36.2405 51.2607C36.2238 53.6013 36.2349 55.9419 36.2349 58.2844C36.2349 58.9238 36.2387 59.5613 36.2331 60.2007C36.2275 60.7559 36.1513 61.27 35.4913 61.4513C35.244 61.5187 35.1771 61.7131 35.2552 61.9543C36.2777 62.1992 39.2208 62.158 39.9179 61.8869C40.009 61.3186 39.3119 61.4794 39.139 61.1074C39.0832 59.3407 39.0758 57.5721 39.0888 55.8036C39.0943 55.0184 39.8008 54.2874 40.5352 54.2575C41.1841 54.2313 41.5335 54.7155 41.5744 55.7045C41.58 55.8466 41.5782 55.9887 41.5782 56.1307C41.5782 57.4076 41.554 58.6845 41.5875 59.9614C41.6079 60.6811 41.5484 61.3055 40.7583 61.6009C40.7062 61.6196 40.7099 61.786 40.6876 61.8795C41.4369 62.1692 44.3539 62.1917 45.25 61.9243C45.3021 61.7823 45.3132 61.5897 45.1794 61.543L45.1738 61.5411Z" fill="#F2F2F2"/>
<path d="M27.9952 60.8512C27.1995 60.6886 27.1622 60.1147 27.1697 59.4697C27.1864 58.1928 27.1753 56.9141 27.1753 55.6372C27.1753 54.7567 27.1753 53.8761 27.1753 52.9376C25.2696 52.7021 23.7953 52.7731 23.2338 53.0984C23.2413 53.3396 23.4272 53.3657 23.602 53.3957C24.1541 53.4929 24.3642 53.8443 24.3624 54.3771C24.3586 56.2205 24.3624 58.0638 24.3624 59.9053C24.1411 60.0922 23.9608 60.2605 23.7619 60.4026C23.6503 60.483 23.5053 60.5185 23.3789 60.582C22.6854 60.9428 21.793 60.4362 21.8246 59.4697C21.8859 57.6264 21.8469 55.7793 21.8358 53.9341C21.8339 53.592 21.9343 53.2237 21.6387 52.846C20.5864 52.846 19.4914 52.8404 18.3944 52.8516C18.2085 52.8516 18.0617 52.9582 18.0914 53.2685C19.0489 53.4985 19.0377 54.2669 19.0191 55.0838C18.9875 56.5383 18.9894 57.9946 19.0173 59.4491C19.0526 61.3654 20.5641 62.4628 22.4325 61.9973C23.1018 61.829 23.6429 61.4308 24.2062 61.0943C24.4944 61.3635 24.2341 61.7636 24.5613 62.0328C25.7232 61.6645 26.9894 61.6159 28.1811 61.3672C28.2555 61.0756 28.1811 60.8943 27.9933 60.855L27.9952 60.8512Z" fill="#F2F2F2"/>
<path d="M18.4502 56.7327C18.3387 54.9044 16.974 53.1507 15.3231 52.7021C13.3319 52.1618 11.4431 52.8872 10.335 54.6071C9.64713 55.6746 9.50769 56.8561 9.63597 58.0769C9.93901 60.9671 12.8281 62.8105 15.5425 61.8795C17.2213 61.3037 18.5952 59.3201 18.4521 57.2001C18.4521 57.1571 18.4632 56.944 18.4521 56.7327H18.4502ZM15.3417 59.9595C15.3064 60.2007 15.2265 60.4456 15.1186 60.6643C14.6836 61.5505 13.6053 61.614 13.0717 60.7802C12.8207 60.3895 12.6812 59.9502 12.6812 59.4772C12.6812 58.7705 12.6812 58.0638 12.6812 57.3571C12.6831 57.3571 12.685 57.3571 12.6868 57.3571C12.6868 56.6149 12.672 55.8728 12.6924 55.1306C12.7054 54.6669 12.83 54.2182 13.1051 53.8369C13.6499 53.0816 14.6798 53.1545 15.1 53.9771C15.2116 54.1939 15.3027 54.437 15.3343 54.6781C15.5704 56.4373 15.6039 58.2003 15.3417 59.9595Z" fill="#F2F2F2"/>
<path d="M73.6747 52.9133C73.0984 52.7395 72.4662 52.7675 71.875 52.8909C70.5587 53.1657 69.7779 54.0481 69.4377 55.2988C69.1179 56.4785 69.5511 57.4506 70.449 58.2414C70.6201 58.3928 70.9343 58.4097 70.9399 58.7967C70.6108 59.1107 70.2167 59.423 69.9006 59.8006C69.2685 60.5577 69.3224 60.9391 70.066 61.5785C70.1404 61.6421 70.2129 61.7094 70.3468 61.829C70.1162 62.029 69.8987 62.2104 69.6923 62.4029C69.4581 62.6217 69.2201 62.8367 69.01 63.076C68.3724 63.8069 68.404 64.4688 69.1272 65.1081C69.6422 65.5643 70.2576 65.8559 70.9417 65.9382C72.5741 66.1345 74.1246 65.8709 75.5599 65.039C75.993 64.7884 76.3816 64.4818 76.6698 64.0612C77.5956 62.7058 77.0491 61.1635 75.4874 60.6849C75.1062 60.5671 74.7196 60.5521 74.331 60.5278C73.5167 60.4774 72.7005 60.4512 71.8862 60.3876C71.5125 60.3596 71.0849 60.4287 70.8358 60.0231C71.0979 59.1201 71.3805 58.8808 72.1985 58.8789C72.5183 58.8789 72.8399 58.9088 73.156 58.8827C74.9705 58.7312 76.4764 57.0599 75.9838 55.1642C75.915 54.9025 75.7272 54.6482 75.8294 54.3491C76.2496 54.1229 76.7535 54.4052 77.155 54.1397C77.2908 53.8855 77.3093 53.6611 76.9951 53.3657C75.8908 53.6293 74.7902 53.2442 73.671 52.9077L73.6747 52.9133ZM70.9771 61.8346C72.3528 62.1767 73.736 62.0477 75.1062 62.1431C75.9317 62.1992 76.4076 62.4945 76.4299 62.9619C76.4615 63.6088 76.0544 64.0145 75.5227 64.2724C73.9777 65.0258 72.3789 65.0128 70.7874 64.4631C70.0661 64.2126 69.895 63.6256 70.2148 62.9115C70.2724 62.7825 70.3375 62.6553 70.4193 62.5431C70.5625 62.3431 70.7224 62.1562 70.9752 61.8365L70.9771 61.8346ZM74.4016 56.9141C74.3254 57.6693 74.0075 58.0975 73.4033 58.2564C72.7433 58.4302 72.2227 58.1891 71.8174 57.675C71.2671 56.9776 71.0793 56.1607 71.0812 55.3026C71.0905 55.1474 71.0886 55.0053 71.1109 54.867C71.2411 54.0257 71.6501 53.5546 72.3305 53.4517C72.9589 53.3564 73.5929 53.7284 73.9238 54.4445C74.2845 55.224 74.4909 56.0447 74.4035 56.9141H74.4016Z" fill="#F2F2F2"/>
<path d="M55.6874 53.6667C55.5163 53.7976 55.4029 54.0444 55.0422 54.0257V48.8041C53.6441 49.0378 52.484 49.4659 52.1456 49.8585C52.432 50.1034 52.867 49.838 53.2667 50.311C53.3987 50.5222 53.3225 50.9559 53.3244 51.371C53.3299 54.2762 53.3541 57.1814 53.3095 60.0848C53.2965 60.8886 53.5976 61.3485 54.3078 61.6289C55.3843 62.0552 56.4738 62.2309 57.6283 61.9692C60.8372 61.2457 62.2799 57.1739 60.4077 54.3622C59.2699 52.6534 57.3253 52.4141 55.6874 53.663V53.6667ZM58.8256 60.281C58.1414 61.3429 56.4663 61.6682 55.4345 60.9447C55.1761 60.7634 55.0813 60.526 55.0813 60.2212C55.085 58.7013 55.0831 57.1814 55.0831 55.6596C55.0831 55.2278 55.3118 54.9286 55.6409 54.6912C56.7396 53.8929 58.1526 54.207 58.8181 55.4035C59.2569 56.1943 59.3685 57.0711 59.4633 57.9442C59.3741 58.763 59.2811 59.5706 58.8237 60.2792L58.8256 60.281Z" fill="#F2F2F2"/>
<path d="M52.3576 59.3276C51.9411 59.6454 51.6084 60.0735 51.1194 60.3128C50.1935 60.7652 49.2119 60.5989 48.6449 59.8006C48.0815 59.0098 47.8324 58.1105 47.9031 57.0393H52.6588C52.8466 54.966 51.9523 53.405 50.333 52.7974C48.7248 52.1917 46.914 52.8142 45.8003 54.2388C44.6737 55.6802 44.7611 58.978 45.6256 60.2193C45.7464 60.3932 45.8747 60.5652 46.0197 60.7185C48.4348 63.3003 51.824 61.9299 52.7815 59.6211C52.6941 59.4528 52.5435 59.3725 52.3557 59.3295L52.3576 59.3276ZM48.1522 53.9378C48.3232 53.4891 48.6839 53.3227 49.158 53.3339C49.6618 53.347 49.9723 53.6312 50.0467 54.0761C50.1601 54.7548 50.3757 55.4371 50.24 56.2148H47.9049C47.7283 55.3979 47.877 54.6576 48.1522 53.9359V53.9378Z" fill="#F2F2F2"/>
<path d="M35.0265 59.9614C33.4667 61.1597 31.9273 60.7896 31.1669 58.9817C30.5217 57.4487 30.5831 55.869 31.0423 54.2949C31.1 54.0967 31.2189 53.9042 31.3453 53.7396C31.6298 53.3695 32.1894 53.2162 32.5873 53.3751C32.9889 53.5359 33.0335 53.8873 33.0391 54.2537C33.0428 54.4314 33.0279 54.609 33.0391 54.7866C33.093 55.6185 33.5429 56.041 34.3237 55.998C35.073 55.9569 35.5266 55.4409 35.5173 54.6557C35.5099 53.9883 35.1789 53.5041 34.6454 53.1601C33.8757 52.6628 33.0167 52.4497 32.1076 52.5431C29.278 52.8329 27.3537 55.3792 27.8204 58.1984C28.1086 59.9333 28.9917 61.2401 30.6686 61.8795C32.2247 62.4721 34.4539 62.0702 35.7795 59.9576C35.4522 59.8267 35.2006 59.8286 35.0246 59.9632L35.0265 59.9614Z" fill="#F2F2F2"/>
<path d="M69.2127 60.625C68.7814 60.6605 68.3185 61.0494 67.9429 60.5465C67.8128 60.1408 67.8593 59.7127 67.8574 59.2883C67.85 58.0489 67.8797 56.8075 67.8444 55.568C67.8146 54.5753 67.5637 53.5901 66.5709 53.1676C65.2806 52.6179 63.9457 52.6441 62.6964 53.3882C62.3264 53.6088 62.0456 53.936 61.8356 54.3136C61.5567 54.8127 61.5716 55.2427 61.8784 55.5961C62.1684 55.9307 62.5383 56.0148 62.9362 55.8578C63.4252 55.6671 63.4512 55.2371 63.4214 54.7903C63.3991 54.4762 63.308 54.1397 63.5553 53.8761C63.9829 53.4218 64.5295 53.3134 65.117 53.4387C65.6506 53.5546 66.0038 53.8855 66.0744 54.4444C66.1395 54.9698 66.1656 55.5007 66.0447 56.1476C65.3643 56.4261 64.708 56.6841 64.0591 56.9608C63.4716 57.2094 62.8972 57.4861 62.3896 57.8806C61.8691 58.2844 61.5121 58.7854 61.3466 59.436C60.9395 61.0531 62.3078 62.416 63.9457 62.0178C64.7526 61.8234 65.3903 61.3205 66.1153 60.8195C66.4165 61.614 66.8293 62.2085 67.7533 62.0515C68.5285 61.9187 69.0603 61.414 69.2146 60.625H69.2127ZM66.1042 59.6323C66.0689 60.3521 65.3791 60.8008 64.4626 60.7858C63.7096 60.7746 63.2541 60.382 63.1519 59.6716C63.0459 58.9331 63.321 58.3554 63.8825 57.8918C64.4923 57.3889 65.2062 57.0879 66.1172 56.7477C66.1172 57.8002 66.1507 58.7181 66.1061 59.6342L66.1042 59.6323Z" fill="#F2F2F2"/>
<path d="M82.3663 57.3983C81.7992 56.9646 81.1559 56.6654 80.5331 56.3252C80.0665 56.0709 79.5905 55.8298 79.2299 55.4222C78.8878 55.0371 78.8357 54.5828 79.0179 54.1304C79.202 53.6742 79.5608 53.4125 80.0758 53.3657C81.037 53.276 81.684 53.7079 82.1413 54.6931C82.2919 55.0165 82.1822 55.5045 82.7418 55.6783V52.9601C81.9461 53.3003 81.301 52.8629 80.6112 52.7881C78.8562 52.5974 77.4506 53.8574 77.6012 55.5063C77.683 56.4056 78.2501 56.987 78.9324 57.4562C79.5143 57.8563 80.1464 58.1853 80.7599 58.5387C81.1002 58.7331 81.4386 58.9294 81.6803 59.2472C82.344 60.124 81.8662 61.2607 80.7785 61.3934C79.8229 61.5093 79.0365 61.1242 78.5662 60.2586C78.3821 59.9202 78.2724 59.5407 78.1404 59.1743C78.0698 58.9799 78.0735 58.735 77.7667 58.763C77.525 59.6099 77.5324 61.0457 77.7983 61.8739C78.2278 61.5878 78.6628 61.6944 79.1202 61.8159C79.8099 61.9991 80.522 62.044 81.2266 61.9038C82.2714 61.6981 83.0988 61.1691 83.387 60.0997C83.6844 58.9911 83.2735 58.09 82.3663 57.3983Z" fill="#F2F2F2"/>
<path d="M83.6156 50.081C83.5692 50.1128 83.6101 50.2698 83.6101 50.3745C83.8982 50.4138 84.1028 50.0156 84.4597 50.3633C84.5043 51.1448 84.5248 52.0029 84.4021 52.8572C84.6847 52.9208 84.9245 52.9563 85.1662 52.8348C85.0807 51.9188 85.0268 51.0812 85.1662 50.2997C85.4432 50.053 85.7537 50.4287 85.9768 50.1408C85.3502 49.8062 84.0674 49.7688 83.6194 50.081H83.6156Z" fill="#F2F2F2"/>
<path d="M78.1776 25.2988C77.8541 22.403 76.8409 19.7595 75.043 17.4469C71.1035 12.3805 64.2302 11.6683 59.3443 15.8111C59.097 16.0205 58.913 16.3402 58.4166 16.3981V0.0922759H46.0272C45.9045 0.656867 45.8691 1.13919 46.0532 1.64957C46.3525 1.72622 46.65 1.80287 46.9475 1.87765C48.682 2.31886 49.2268 2.94326 49.3049 4.72116C49.3551 5.89895 49.3364 7.08048 49.3327 8.26014C49.3327 8.73312 49.396 9.2192 49.2658 9.69219C48.9684 9.62115 48.9089 9.42673 48.8103 9.28091C46.425 5.73819 43.1752 3.32278 39.2096 1.83279C35.7163 0.520393 32.0723 0.0548789 28.3781 0.0268363C21.9473 -0.0236404 15.5146 0.0118807 9.08379 0.0156197C8.75286 0.0156197 8.40336 -0.0610268 8.03897 0.170792C7.88838 0.647516 7.91627 1.15789 8.04827 1.77109C8.71571 1.87765 9.32549 1.96178 9.92972 2.07208C12.4284 2.53011 13.4417 3.74156 13.451 6.28782C13.4603 8.95748 13.4528 11.629 13.4528 14.2987C13.4528 22.3095 13.4565 30.3203 13.451 38.3312C13.4491 40.9559 12.3671 42.2066 9.7847 42.6142C9.24368 42.7002 8.68595 42.6965 8.12076 42.9171C8.10589 43.463 7.98507 43.9771 8.19702 44.4594C8.59488 44.6426 8.9704 44.5734 9.3348 44.5734C15.55 44.5772 21.7651 44.5734 27.9803 44.5809C29.4974 44.5828 31.0089 44.5417 32.5166 44.3622C39.2896 43.5583 44.7927 40.5671 48.7359 34.8819C48.8698 34.6894 48.9386 34.4276 49.3569 34.2949V44.4688C50.2753 44.5884 50.2809 44.594 50.8647 44.1752C52.3446 43.1133 53.8208 42.044 55.3193 40.9616C55.7245 41.2943 56.0759 41.5935 56.4385 41.8776C57.9667 43.0704 59.5972 44.0481 61.5474 44.3884C68.3817 45.5811 75.1025 41.5411 77.3149 34.8726C78.3505 31.7542 78.5401 28.5424 78.1795 25.3007L78.1776 25.2988ZM39.7822 32.8685C38.5143 37.817 35.4095 40.8924 30.4251 41.986C29.1237 42.2721 27.7981 42.3618 26.4614 42.1674C25.305 41.9991 24.6357 41.3504 24.3828 40.2212C24.2062 39.4304 24.1226 38.6321 24.1244 37.8208C24.1281 32.5731 24.1244 27.3254 24.1244 22.0777C24.1244 16.9534 24.1207 11.8309 24.1281 6.70659C24.1281 6.08778 24.1579 5.46336 24.2285 4.84829C24.4052 3.33399 24.9926 2.66284 26.4967 2.48337C29.7 2.10199 32.6561 2.73202 35.1697 4.8913C36.7778 6.27286 37.8729 8.02647 38.7039 9.95954C40.1225 13.2573 40.7062 16.7384 40.8531 20.2942C41.0279 24.5267 40.8401 28.7406 39.7804 32.8703L39.7822 32.8685ZM67.8369 37.7591C67.5915 38.6265 67.2829 39.4697 66.7921 40.2324C65.6803 41.9617 63.9197 42.6852 61.8151 42.2814C60.1493 41.9636 59.0264 40.7129 58.6304 38.7107C58.4909 38.0115 58.4278 37.3029 58.4296 36.585C58.4389 31.4682 58.4333 26.3514 58.4352 21.2345C58.4352 19.4566 59.8035 17.546 61.4768 16.9795C63.3248 16.3532 65.4331 16.9403 66.5969 18.4078C67.1044 19.0491 67.4186 19.7857 67.6659 20.5578C68.4486 22.9993 68.8056 25.7606 68.7944 29.3762C68.7851 32.2048 68.6141 35.0165 67.8388 37.7572L67.8369 37.7591Z" fill="#F2F2F2"/>
</svg>
