<svg width="127" height="54" viewBox="0 0 127 54" fill="none" xmlns="http://www.w3.org/2000/svg">
<path d="M40.4752 28.6657C40.7573 30.2543 21.0844 47.0234 10.0194 53.5142C8.37271 54.6792 7.9418 53.5999 7.07999 51.8549C6.17201 50.0393 4.87929 47.447 4.00209 45.692C3.41729 44.5471 3.10437 43.8108 3.44807 43.2308C3.81229 42.5853 4.88955 42.0557 5.64364 41.5968C12.533 37.6075 22.0386 31.5253 23.4082 29.6088C23.7365 29.1902 23.4441 28.7766 23.0851 28.4387C21.8282 27.2132 17.8629 24.2931 14.4567 21.9278C13.7026 21.4436 12.7074 20.6065 11.9174 20.4804C11.0659 20.44 11.4814 22.8205 11.3634 24.2175C11.3326 27.183 11.3172 31.0865 11.2813 33.008C11.2608 33.3913 11.23 33.7746 11.0813 34.0873C10.835 34.5815 10.4195 34.6925 9.83471 34.7933C9.22939 34.8841 8.37271 34.9396 7.42882 35.0152C5.58721 35.1565 3.20697 35.2926 1.8886 35.3481C0.046995 35.5397 -0.00943321 35.0858 0.000826445 33.4367C0.0829037 24.6159 0.349655 7.73588 1.0114 0.67522C1.13965 -0.323359 1.95529 -0.0157163 2.55548 0.34236C8.81387 4.04416 15.1903 8.61342 21.4589 13.0919C25.7731 16.2087 30.0103 19.3759 33.3858 22.0438C37.464 25.3573 40.152 27.4351 40.4752 28.6506V28.6657Z" fill="#F2F2F2"/>
<path d="M65.1394 30.1736C64.7752 34.3293 65.4421 48.1632 65.4728 51.9306C65.5344 52.7375 65.2163 52.8838 64.2776 52.9039C61.8307 52.9997 57.0907 53.2116 54.6335 53.3023C53.7409 53.3074 52.1763 53.4839 52.1968 53.1006C52.0276 46.7662 52.3866 38.7927 52.3866 32.2162C52.4123 30.8646 52.5251 30.2896 51.6839 29.3818C50.6681 28.1361 49.6473 26.9913 48.5444 25.7355C44.8612 21.5748 40.4752 16.7483 36.8279 12.7489C35.5659 11.2662 34.7452 10.6913 34.3143 9.83895C34.1398 9.63217 35.4479 8.81515 36.1405 8.38143C37.4691 7.5291 39.403 6.28844 41.06 5.2243C42.6451 4.29633 43.5069 3.44401 44.7278 3.06071C45.0356 3.06071 45.2305 3.28262 45.4562 3.51461C47.4517 5.73368 56.0904 15.4774 58.0807 17.3081C58.4655 17.7015 58.8656 17.6813 59.2247 17.2577C60.8868 15.4522 67.5555 6.25818 69.3202 3.85756C69.7306 3.2574 70.0948 3.04558 70.8232 3.49948C72.7982 4.6191 75.6607 6.27836 77.8152 7.52406C79.1336 8.29569 80.2057 8.8908 80.7136 9.22366C80.9906 9.41026 81.1239 9.54139 81.1393 9.6826C79.3593 12.4615 72.4084 20.3543 68.1557 25.9625C66.5655 28.0706 65.7396 28.8624 65.1599 30.1232L65.1497 30.1585L65.1394 30.1736Z" fill="#F2F2F2"/>
<path d="M127 28.1462C126.846 29.2759 125.743 30.4409 124.004 32.6348C122.522 34.4 120.608 36.5232 118.515 38.7271C115.094 42.318 111.349 46.0349 107.645 49.2778C106.142 50.5689 104.747 51.7742 103.105 52.7778C101.874 53.5091 101.366 53.4436 99.9555 52.6316C99.0989 52.1222 98.3191 51.5725 97.483 50.9421C91.4452 46.2619 85.2791 40.2906 80.3339 34.6269C78.0666 31.9691 76.5379 29.7853 76.4353 28.6455C76.3942 28.242 76.5327 27.889 76.7379 27.541C77.2766 26.6484 78.441 25.1505 79.9851 23.2744C85.0893 17.2224 91.3528 10.1617 97.6163 4.99231C98.5243 4.2812 99.3759 3.6407 100.381 3.15654C101.618 2.57655 102.151 2.90437 103.593 3.93321C105.09 5.04274 106.44 6.21279 107.881 7.4938C113.247 12.3152 119.233 18.2663 123.861 23.5467C125.692 25.7759 126.82 26.961 127 28.1059V28.1462ZM101.669 17.5199C99.5298 17.4998 94.0768 23.5719 92.4557 25.3875C91.399 26.7795 89.937 27.8436 91.5631 29.5584C93.8254 32.2969 96.7904 35.0505 99.4733 37.31C100.93 38.3892 101.361 39.1054 102.556 38.3186C104.66 36.9014 110.451 31.2731 112.144 29.0339C112.678 28.3681 112.796 27.7428 112.257 26.9963C111.113 25.3522 109.364 23.7484 107.696 22.2052C105.834 20.6367 103.603 18.3622 101.72 17.525L101.674 17.5149L101.669 17.5199Z" fill="#F2F2F2"/>
</svg>
