<svg width="148" height="65" viewBox="0 0 148 65" fill="none" xmlns="http://www.w3.org/2000/svg">
<path d="M137.748 0H10.2516C4.60034 0 0 4.6154 0 10.2851V53.753C0 59.4227 4.60034 64.0381 10.2516 64.0381H137.748C143.4 64.0381 148 59.4227 148 53.753V10.2851C148 4.6154 143.4 0 137.748 0ZM142.41 53.7486C142.41 56.3297 140.317 58.4296 137.744 58.4296H10.2516C7.67885 58.4296 5.58581 56.3297 5.58581 53.7486V10.2851C5.58581 7.70399 7.67885 5.6041 10.2516 5.6041H137.748C140.321 5.6041 142.414 7.70399 142.414 10.2851V53.753L142.41 53.7486Z" fill="#F2F2F2"/>
<path d="M75.8639 37.7325C80.8479 35.6195 85.7143 32.9946 85.7143 31.2228C85.7143 30.0504 81.6197 30.9385 79.5136 31.7172C78.4496 32.1109 77.9962 32.2509 77.8261 32.2509C77.656 32.2509 77.5688 32.1634 77.5688 31.9928L88.0384 20.0321C88.2957 19.6034 88.4221 19.1747 88.4221 18.7459C88.4221 18.3172 88.2957 17.7966 88.0384 17.1798C87.7811 16.5673 87.4541 16.2567 87.0573 16.2567C85.8015 16.2567 83.7956 17.3285 81.0311 19.4722C78.2665 21.6158 75.5412 24.0832 72.8464 26.8699C70.156 29.6567 67.7751 32.4784 65.7082 35.3395C64.8928 36.4638 64.2431 37.4656 63.7504 38.345C63.0091 38.73 61.8056 39.3993 60.1312 40.3574C57.3404 41.9585 55.4436 42.7591 54.445 42.7591C53.9916 42.7023 53.7605 42.5754 53.7605 42.3741C53.7605 42.0898 54.2357 41.6829 55.1907 41.1536C56.1456 40.6242 57.0919 40.0468 58.0338 39.4168C58.9756 38.7868 59.4422 38.2181 59.4422 37.7019C59.4422 36.7307 58.9582 36.2451 57.9901 36.2451L55.8971 36.4594C55.0686 36.4594 54.6587 36.3019 54.6587 35.987C54.6587 35.6151 55.7968 34.9808 58.0774 34.0796C60.3579 33.1784 61.7009 32.7277 62.1152 32.7277C62.5294 32.7277 62.7344 32.7977 62.7344 32.9421C62.7344 33.2265 62.3419 33.5371 61.5614 33.8652C60.7765 34.1933 60.3884 34.4295 60.3884 34.5739C60.3884 34.7183 60.48 34.8451 60.6675 34.9589C60.8506 35.0726 61.0599 35.1295 61.2867 35.1295C61.8579 35.1295 62.8041 34.7139 64.1297 33.8871C65.4553 33.0602 66.1181 32.1634 66.1181 31.2053C66.1181 30.2472 65.7039 29.5342 64.8797 29.0617C64.0513 28.5892 63.0134 28.353 61.762 28.353C59.4814 28.353 57.0134 29.0748 54.3491 30.5185C51.6848 31.9622 50.3549 33.4846 50.3549 35.0858C50.3549 35.9432 50.9523 36.6301 52.1471 37.1419C52.5439 37.3125 52.7445 37.4656 52.7445 37.5925C52.7445 37.7194 52.3389 38.0431 51.5279 38.555C51.0177 38.8787 50.5075 39.2462 50.0017 39.6443C49.993 39.6487 49.9886 39.6487 49.9799 39.6574C49.7052 39.8718 49.1994 40.2043 48.6325 40.6242C48.3185 40.8561 48.0177 41.053 47.3636 41.5123C45.6237 42.7723 44.4551 43.3978 43.8577 43.3978C43.5743 43.3978 43.4304 43.2316 43.4304 42.9035C43.4304 42.5754 44.4638 41.2192 46.5307 38.8306C48.5976 36.4463 49.6267 35.0289 49.6267 34.587C49.6267 34.1452 49.3607 33.8083 48.8374 33.5808C48.3098 33.3533 47.7822 33.2396 47.2546 33.2396C46.7269 33.2396 46.2735 33.2746 45.8854 33.3446C45.5016 33.4146 44.8083 33.6596 43.8141 34.0752C42.8156 34.4908 41.8911 34.9326 41.0365 35.4051C40.1818 35.8776 39.6978 36.1138 39.5844 36.1138C39.4711 36.1138 39.4144 36.057 39.4144 35.9432C39.4144 35.6589 40.74 33.8564 43.3868 30.5404C45.4929 27.8805 47.4028 25.3519 49.1121 22.9501C50.8215 20.5484 51.6761 18.9997 51.6761 18.2997C51.6761 17.5997 51.4537 17.0441 51.0133 16.6285C50.5729 16.2129 50.1107 16.0073 49.6267 16.0073C48.6281 16.0073 46.3345 17.7004 42.7458 21.0864C39.1571 24.4725 35.7167 28.3267 32.4245 32.6403C29.1323 36.9582 27.4884 40.1736 27.4884 42.2867C27.4884 42.9735 27.6366 43.586 27.9375 44.1284C28.2384 44.6709 28.705 44.9421 29.346 44.9421C29.987 44.9421 31.064 44.2772 32.5727 42.9472C34.0815 41.6173 35.6338 40.3618 37.2298 39.1762C38.8257 37.9906 39.8025 37.3344 40.1557 37.2032C40.5089 37.0719 40.7182 37.0107 40.7749 37.0107C40.8315 37.0107 40.8621 37.0588 40.8621 37.1594C40.8621 37.26 40.7749 37.3956 40.6048 37.5663C38.6382 39.8805 37.6571 41.7267 37.6571 43.096C37.6571 43.9272 37.9405 44.6272 38.5118 45.1959C39.083 45.769 39.8417 46.0533 40.7967 46.0533C41.7516 46.0533 42.9333 45.6946 44.3461 44.9815C45.7153 44.2859 46.897 43.5641 47.8912 42.816C48.0264 44.6009 49.0031 45.4977 50.8215 45.4977C52.0729 45.4977 53.8913 44.9771 56.2721 43.9316C58.6486 42.8904 60.7285 41.8011 62.512 40.6724C62.6079 40.6111 62.6995 40.5542 62.7911 40.493C62.6777 40.8736 62.621 41.2148 62.621 41.5079C62.621 42.3085 62.9219 42.9822 63.5193 43.5247C64.1167 44.0672 64.7315 44.3384 65.355 44.3384C65.9786 44.3384 66.8638 43.7391 68.0062 42.536C68.403 42.1379 68.8609 41.6567 69.3754 41.1011C69.89 40.5455 70.2214 40.1868 70.3783 40.0293C70.5353 39.8718 70.6618 39.793 70.7621 39.793C70.8624 39.793 70.9103 39.9374 70.9103 40.2218C70.9103 42.0504 71.7519 43.8091 73.4307 45.4934C75.1139 47.1777 76.8973 48.022 78.7941 48.022C80.6909 48.022 81.6372 47.4489 81.6372 46.3071C81.6372 45.7909 80.7302 44.4653 78.9249 42.3217C77.1197 40.178 75.877 37.9556 75.877 37.7281L75.8639 37.7325Z" fill="#F2F2F2"/>
<path d="M108.638 28.4798C109.606 28.4536 110.09 28.1955 110.09 27.7099C110.09 27.338 109.841 26.8437 109.34 26.2312C108.843 25.6187 107.011 25.3081 103.85 25.3081H101.757C102.869 23.6501 103.466 22.6657 103.554 22.3508L103.466 20.2509C103.466 19.6209 103.253 19.3059 102.825 19.3059L101.883 20.0759C100.004 21.5633 97.8936 23.3613 95.5608 25.4787C92.77 25.6231 90.1494 25.8812 87.6988 26.2487C85.2482 26.6206 84.0229 27.0362 84.0229 27.4911C84.0229 28.2042 84.5636 28.563 85.645 28.563H92.225C85.2438 35.1645 81.7554 39.723 81.7554 42.2385C81.7554 43.1529 82.0824 43.9272 82.7365 44.5528C83.3906 45.1828 84.1886 45.4977 85.1304 45.4977C85.4444 45.4977 85.7801 45.3053 86.1333 44.9203C86.4909 44.5353 86.9967 43.8703 87.6508 42.9254C88.3049 41.9804 89.0767 40.9086 89.9575 39.7099C92.2642 36.4507 95.4561 32.7234 99.5288 28.5192C104.631 28.5192 107.661 28.5061 108.634 28.4755L108.638 28.4798Z" fill="#F2F2F2"/>
<path d="M102.354 32.509C100.305 32.8809 98.0898 34.3377 95.7089 36.8838C93.3281 39.4299 92.142 41.7004 92.142 43.6997C92.142 44.3297 92.3557 44.8503 92.783 45.2659C93.2104 45.6815 93.7641 45.8871 94.4487 45.8871C95.1333 45.8871 96.302 45.0559 97.9546 43.4022C99.6072 41.7442 101.072 40.0162 102.354 38.2137C103.636 36.4113 104.277 35.2695 104.277 34.7839C104.277 33.2702 103.636 32.5134 102.354 32.5134V32.509Z" fill="#F2F2F2"/>
<path d="M119.918 37.3957C119.774 37.3957 119.583 37.4613 119.343 37.5882C119.103 37.715 118.17 38.2794 116.543 39.2812C114.917 40.283 113.552 41.0749 112.44 41.6611C111.328 42.2473 110.526 42.5404 110.024 42.5404C109.523 42.5404 109.279 42.3129 109.279 41.8536C109.279 40.9393 110.19 39.5656 112.013 37.7369C113.835 35.9083 115.244 34.9939 116.242 34.9939C116.412 34.9939 116.5 35.0377 116.5 35.1208C116.5 35.3483 116.16 35.777 115.475 36.407C114.79 37.037 114.293 37.4351 113.979 37.6057C113.696 37.7763 113.552 37.9775 113.552 38.205C113.552 38.5463 113.835 38.7212 114.407 38.7212C115.292 38.7212 116.351 38.0869 117.59 36.8138C118.828 35.5408 119.447 34.4208 119.447 33.4496C119.447 32.4784 119.09 31.8135 118.379 31.4547C117.668 31.096 116.604 30.921 115.196 30.921C113.787 30.921 112.078 31.4854 110.068 32.614C108.058 33.7427 106.292 35.217 104.77 37.0282C103.244 38.8437 102.485 40.6068 102.485 42.3217C102.485 43.1529 102.856 43.8879 103.597 44.531C104.338 45.1741 105.228 45.4978 106.27 45.4978C107.312 45.4978 109.026 44.9247 111.42 43.7829C113.814 42.6411 115.92 41.4599 117.742 40.2437C119.565 39.0275 120.49 38.2794 120.52 37.995C120.52 37.5969 120.319 37.3957 119.923 37.3957H119.918Z" fill="#F2F2F2"/>
</svg>
