<svg width="167" height="56" viewBox="0 0 167 56" fill="none" xmlns="http://www.w3.org/2000/svg">
<path d="M45.453 44.5653C45.0503 44.1528 45.0247 43.5012 45.3925 43.0582L45.4064 43.0418C45.7928 42.5754 46.4795 42.5144 46.9427 42.9035C46.9706 42.9269 46.9962 42.9504 47.0195 42.9762L48.4161 44.3918C48.842 44.8231 49.5333 44.8278 49.9616 44.3989L49.9686 44.3918L49.9849 44.3754C50.4132 43.9395 50.4132 43.2387 49.9849 42.8027L48.0227 40.8152C47.6736 40.4612 47.6014 39.9151 47.8458 39.4815C53.1086 30.0524 51.5235 18.2536 43.9633 10.5706C36.4264 2.91566 24.7277 1.30311 15.4241 6.63529C14.9958 6.88139 14.4558 6.80873 14.109 6.45481L11.5183 3.82975C11.0924 3.39849 10.4011 3.39614 9.97044 3.82271C9.97044 3.82271 9.96579 3.82741 9.96346 3.82975L9.94717 3.84614C9.51888 4.28209 9.51888 4.98523 9.94717 5.41884L11.9792 7.47906C12.4075 7.91267 12.4052 8.61583 11.9722 9.04709C11.9513 9.06818 11.9303 9.08928 11.907 9.10803L11.8907 9.12208C11.4508 9.49474 10.8014 9.46661 10.3964 9.0541L5.08008 3.66567C4.65412 3.2344 3.96281 3.23208 3.53219 3.65866C3.53219 3.65866 3.52754 3.66332 3.52521 3.66567L3.50892 3.68209C3.08064 4.11804 3.08064 4.82117 3.50892 5.25478L8.83223 10.6479C9.23491 11.0557 9.26285 11.705 8.89741 12.148L8.87646 12.1737C8.49473 12.6378 7.8104 12.7034 7.3472 12.319C7.31927 12.2956 7.29366 12.2722 7.26806 12.2464L4.08617 9.02363C3.66021 8.59236 2.96891 8.5877 2.54062 9.01662L2.53364 9.02363L2.51735 9.04005C2.08906 9.476 2.08906 10.1768 2.51735 10.6127L6.26019 14.405C6.60933 14.759 6.68149 15.3051 6.43709 15.7387C1.1743 25.1678 2.75942 36.9666 10.3196 44.6496C17.8565 52.3045 29.5552 53.9171 38.8565 48.5849C39.2847 48.3388 39.8247 48.4115 40.1739 48.7654L43.535 52.171C43.961 52.6022 44.6523 52.6069 45.0806 52.178L45.0876 52.171L45.1038 52.1545C45.5321 51.7186 45.5321 51.0178 45.1038 50.5819L42.306 47.7482C41.8754 47.3122 41.8754 46.6067 42.306 46.1731C42.327 46.152 42.3479 46.1333 42.3689 46.1145L42.3852 46.1005C42.8204 45.7278 43.4675 45.7536 43.8725 46.1614L49.2121 51.5709C49.6381 52.0022 50.3294 52.0069 50.7577 51.578L50.7647 51.5709L50.7809 51.5545C51.2092 51.1186 51.2092 50.4178 50.7809 49.9818L45.4437 44.5723L45.453 44.5653ZM42.9787 37.2737L42.9624 37.2901C42.5365 37.7213 41.8451 37.7237 41.4145 37.2971C41.4145 37.2971 41.4099 37.2924 41.4076 37.2901L38.8774 34.7283C38.4515 34.297 37.7601 34.2947 37.3319 34.7212C37.2853 34.7658 37.2457 34.8173 37.2085 34.8689L37.1945 34.8877C36.8826 35.3306 36.9315 35.9353 37.3109 36.3197L41.091 40.1495C41.5193 40.5855 41.5193 41.2863 41.091 41.7222L41.0747 41.7386C40.6487 42.1699 39.9551 42.1722 39.5268 41.7433L39.5222 41.7386L35.7397 37.9089C35.3627 37.5245 34.7621 37.4752 34.3269 37.7917L34.3083 37.8057C33.8125 38.1667 33.6984 38.8628 34.0569 39.362C34.0918 39.4089 34.129 39.4534 34.1686 39.4956L35.5466 40.8925C35.9748 41.3285 35.9748 42.0293 35.5466 42.4652L35.5303 42.4816C35.1043 42.9129 34.413 42.9152 33.9824 42.4886L33.9754 42.4816L31.4872 39.962C31.2078 39.6784 30.7958 39.5706 30.4141 39.6784C26.1243 40.8738 21.5272 39.6433 18.3942 36.4604C15.2472 33.2657 14.0345 28.6226 15.2169 24.2819C15.324 23.8952 15.2169 23.4803 14.9376 23.1944L12.5006 20.7263C12.0723 20.2904 12.0723 19.5872 12.5006 19.1536L12.5169 19.1372C12.9428 18.7059 13.6341 18.7036 14.0648 19.1302L14.0717 19.1372L15.3985 20.4825C15.8245 20.9138 16.5181 20.9162 16.9464 20.4872C16.9906 20.4427 17.0325 20.3935 17.0674 20.3419L17.0814 20.3232C17.3933 19.8802 17.3444 19.2755 16.965 18.8911L12.4564 14.3207C12.0281 13.8847 12.0281 13.1816 12.4564 12.748L12.4727 12.7316C12.8986 12.3003 13.5899 12.2956 14.0182 12.7245L14.0252 12.7316L18.5338 17.2997C18.9132 17.684 19.5114 17.7333 19.949 17.4168L19.9677 17.4028C20.4634 17.0418 20.5752 16.3434 20.2167 15.8418C20.1818 15.7949 20.1446 15.7504 20.105 15.7082L18.0101 13.5847C17.5818 13.1488 17.5818 12.4456 18.0101 12.012L18.0264 11.9956C18.4524 11.5643 19.1437 11.562 19.5743 11.9886L19.5813 11.9956L22.7887 15.2441C23.0681 15.5277 23.4801 15.6355 23.8618 15.5277C28.1516 14.3324 32.7487 15.5629 35.8817 18.7458C39.0287 21.9404 40.2414 26.5835 39.059 30.9243C38.9519 31.311 39.059 31.7259 39.3383 32.0118L42.9764 35.6986C43.4047 36.1346 43.4047 36.8377 42.9764 37.2713L42.9787 37.2737ZM2.2101 2.35313C1.77715 2.78908 1.07421 2.78908 0.641268 2.35313L0.324706 2.03438C-0.108235 1.59843 -0.108235 0.890598 0.324706 0.454648C0.757647 0.0186981 1.4606 0.0186981 1.89354 0.454648L2.2101 0.773404C2.64304 1.20935 2.64304 1.91718 2.2101 2.35313ZM53.9535 53.221C54.3865 53.6569 54.3865 54.3648 53.9535 54.8007C53.5206 55.2367 52.8176 55.2367 52.3847 54.8007L52.0681 54.482C51.6352 54.046 51.6352 53.3382 52.0681 52.9022C52.5011 52.4663 53.204 52.4663 53.637 52.9022L53.9535 53.221ZM167 21.2818L165.987 27.0452H164.5C163.369 26.982 162.249 27.289 161.307 27.9218C160.527 28.5054 160.01 29.5297 159.756 30.9946L158.302 39.2425H152.895L154.37 30.7813C155.185 26.103 155.837 24.821 158.215 23.0397C160.592 21.256 167 21.2818 167 21.2818ZM87.681 16.8895H93.0881L89.1661 39.2472H83.7589L85.372 29.9797H76.9599L75.3469 39.2472H69.9397L73.8618 16.8895H79.2689L77.7187 25.6788H86.1331L87.6833 16.8895H87.681ZM149.824 23.0842C148.486 21.842 146.677 21.2209 144.401 21.2209C142.723 21.2045 141.065 21.5865 139.562 22.3365C138.088 23.0772 136.817 24.1717 135.861 25.5218C134.485 27.5515 133.738 29.9446 133.71 32.4009C133.71 34.5877 134.39 36.3174 135.749 37.5924C137.108 38.8674 138.929 39.505 141.205 39.5026C143.253 39.5284 145.26 38.9284 146.961 37.7823C148.607 36.7112 149.894 35.1713 150.662 33.3548H144.906C144.266 34.4587 143.074 35.1197 141.806 35.0752C140.386 35.197 139.138 34.1376 139.017 32.7103C139.003 32.5438 139.005 32.3751 139.022 32.211C139.017 32.0094 139.029 31.8055 139.052 31.6063H151.293C151.451 31.0954 151.579 30.5727 151.673 30.0453C151.784 29.4242 151.838 28.7961 151.831 28.1656C151.831 26.021 151.16 24.3287 149.822 23.0865L149.824 23.0842ZM146.424 28.2289C146.414 28.4304 146.393 28.6343 146.361 28.8336H139.562C139.813 27.8914 140.351 27.0523 141.096 26.4288C141.792 25.871 142.658 25.571 143.547 25.585C144.303 25.5475 145.046 25.7913 145.635 26.2694C146.179 26.7687 146.47 27.4882 146.426 28.2289H146.424ZM114.218 21.4763L99.95 45.3622H94.1891L98.3719 38.6424L94.1961 21.4763H100.206L102.357 32.5907L108.367 21.4763H114.218ZM128.329 22.1607C127.069 21.5185 125.675 21.1951 124.265 21.2209C122.319 21.1951 120.398 21.6849 118.699 22.6389C117.063 23.5553 115.706 24.903 114.777 26.5413C114.172 27.5961 113.753 28.7492 113.539 29.9469V29.9422L110.843 45.3622H116.253L117.412 38.7503C118.573 39.2659 119.833 39.5214 121.101 39.5026C123.052 39.5261 124.974 39.0432 126.683 38.101C128.326 37.1987 129.695 35.8627 130.638 34.2337C131.606 32.5579 132.102 30.6477 132.076 28.707C132.104 27.3359 131.767 25.9835 131.096 24.7905C130.442 23.6655 129.483 22.7537 128.329 22.1631V22.1607ZM126.478 29.2156C126.478 30.1438 126.28 31.0625 125.894 31.9063C125.528 32.7337 124.963 33.4579 124.251 34.0087C123.569 34.5431 122.726 34.8291 121.862 34.822C121.071 34.8502 120.301 34.5455 119.744 33.9783C119.16 33.3197 118.864 32.4548 118.923 31.5735C118.92 30.6313 119.113 29.6984 119.493 28.8336C119.842 28.0039 120.389 27.275 121.09 26.7148C121.769 26.1757 122.612 25.8897 123.478 25.9038C124.281 25.8804 125.061 26.1898 125.629 26.764C126.234 27.4296 126.541 28.3156 126.483 29.2156H126.478Z" fill="#F2F2F2"/>
</svg>
