<svg width="102" height="95" viewBox="0 0 102 95" fill="none" xmlns="http://www.w3.org/2000/svg">
<path d="M0 71.4473L2.4626 49.914C4.08555 47.9713 8.49231 44.4724 8.45286 41.8027C8.43032 40.4395 8.19364 39.0535 8.30071 37.6278C8.49795 35.032 9.59118 32.3794 9.89549 29.7892C16.9846 26.1824 24.0681 22.5641 31.3263 19.298C31.9744 18.7982 29.7992 18.5085 30.3401 17.8666L44.6424 10.2894C44.6931 10.0678 44.6086 10.0565 44.4902 9.94286C44.107 9.55093 42.7715 8.88636 42.563 8.56827C42.4672 8.42059 42.4841 8.29562 42.4954 8.1309C49.6521 5.97813 56.6286 3.25167 63.7459 0.979614C63.9825 1.02506 64.1798 1.16138 64.377 1.29202C66.3606 2.57573 69.0205 4.96707 70.8914 6.55182C75.7433 10.6472 82.6859 16.7022 86.563 21.6269C86.9462 22.1097 87.5153 22.7004 86.9011 23.1151C85.3908 24.1262 83.5425 24.7567 81.9984 25.8188C79.1188 27.8069 76.0082 31.7035 78.7638 35.1115C81.1475 38.0595 84.9118 36.9803 87.8534 35.6852C87.8985 35.3047 87.8478 35.458 87.6449 35.3955C86.4221 35.0263 85.3739 34.6855 84.4892 33.6688C81.0461 29.7211 85.9713 26.58 89.2848 25.3019C89.4482 25.586 89.1045 26.4096 89.1439 26.455C89.2059 26.5345 90.6598 27.0173 90.9585 27.1537C93.3985 28.267 95.8386 29.403 98.2674 30.5333L101.998 43.0183C102.037 43.4727 101.508 44.4837 101.288 44.9779C98.9267 50.34 96.0133 55.4918 93.5845 60.8255L83.7735 67.4315L81.9083 64.4096L80.1162 65.5059L78.7074 59.2294L76.9887 60.2234L76.4139 55.5146L70.418 57.406L69.8996 57.1902L70.1193 47.8123C68.9021 50.4706 67.7863 53.2539 67.5722 56.2132C68.9078 58.9397 69.7643 62.6375 71.2407 65.2162C71.9959 66.5397 73.5681 67.9768 74.5486 69.2378C75.1065 69.9535 75.6306 70.7089 76.1265 71.47H65.397C64.2643 69.1582 62.8555 66.9544 61.6101 64.6823C57.3273 62.4727 53.9518 60.0757 50.7285 56.4688C49.6972 55.3158 45.6511 50.2661 45.5046 49.0392C45.3299 47.5851 45.4257 44.7905 45.5046 43.2625C45.6004 41.4051 46.085 39.5704 46.1526 37.713C44.7833 40.4338 43.4703 43.2852 42.7715 46.2787C42.625 46.9148 42.3319 47.9941 42.3489 48.6075C42.3827 49.931 44.3437 53.2936 45.2285 54.3729L46.874 56.1791C44.6593 58.0309 41.1993 57.0936 38.6747 56.3609C35.147 55.3385 32.1603 53.8844 28.4073 53.4413C27.7367 53.3618 24.6486 53.5436 24.6429 52.6461C24.6429 52.5098 25.8432 50.7092 26.0292 50.3172C27.4324 47.4545 28.6439 43.2682 28.9088 40.093C28.9201 39.934 29.0159 39.5534 28.7679 39.5932C26.6153 44.0975 24.7838 49.1983 20.9631 52.5723C18.416 54.8216 15.3335 56.0371 12.3017 57.4401L8.88114 64.6255L12.8822 71.4757H0V71.4473ZM92.4405 47.7896C91.9052 45.1256 89.8089 42.9615 87.5773 41.5869C87.459 41.7459 88.0901 45.154 88.2817 45.4153L92.4405 47.7839V47.7896ZM91.8657 61.0584C92.0179 60.8596 89.3242 57.7412 88.7551 57.6219C88.479 57.5651 85.4359 58.9283 85.4303 59.1101C86.2305 59.4907 87.1152 59.5475 87.9549 59.8769C88.4113 60.0587 89.0368 60.3995 89.4764 60.6551C89.7412 60.8084 90.4457 61.4503 90.5245 61.4617C90.8007 61.5185 91.5107 61.047 91.8657 61.0527V61.0584ZM41.9262 71.4473L40.2018 68.931C39.4354 67.7268 37.959 66.5965 37.2264 65.4378C36.4938 64.279 36.0768 62.5693 35.3611 61.3878C35.3048 60.9732 36.8714 59.3202 37.2039 58.8261C37.2828 58.7068 37.4067 58.6898 37.3448 58.4682C33.6424 56.9914 29.9908 55.6623 25.9559 55.4464L22.9016 57.7582V57.9343C25.5671 62.4841 28.1819 67.0736 31.1178 71.4473H41.9262ZM53.8278 66.2898C53.6419 65.54 55.1803 63.978 54.8816 63.5122L48.5702 58.1729C47.2684 58.3944 46.8796 59.3941 46.4964 60.5528C46.0118 62.0183 45.9272 62.8533 46.2822 64.3813C46.5077 65.3526 47.1895 66.3295 47.3191 67.2327C47.4882 68.4085 47.3642 69.8739 47.4995 71.0895C47.4995 71.2088 47.6347 71.4473 47.7136 71.4473H57.085C56.2115 69.624 54.8704 68.0222 53.8166 66.2898H53.8278Z" fill="#F1F1F1"/>
<path d="M13.1742 94.9741V77.5468L13.1726 77.5434L13.169 77.542H9.57965L9.57692 77.5427L9.57501 77.5446L7.09572 82.2769L7.0938 82.2788L7.09108 82.2795L7.08837 82.2788L7.08645 82.2769L4.55364 77.5445L4.55172 77.5426L4.549 77.5418H0.00518209L0.00281507 77.5423L0.00095506 77.5437L0 77.5458L0.000159177 77.548L0.978238 80.7512V94.9739L0.979765 94.9773L0.983452 94.9787H4.26947L4.27316 94.9773L4.27469 94.9739V83.9525L4.27584 83.9496L4.27871 83.9479L4.28209 83.9482L4.28454 83.9504L7.10769 89.2432L7.10961 89.245L7.11233 89.2458L7.11504 89.245L7.11697 89.2432L9.84199 84.0301L9.84439 84.028L9.84773 84.0276L9.85061 84.0292L9.85184 84.0321V94.9739L9.85337 94.9773L9.85706 94.9787H13.1686L13.1723 94.9773L13.1742 94.9741Z" fill="#F1F1F1"/>
<path d="M23.3288 91.4283L24.0646 94.9752L24.0664 94.9778L24.0696 94.9789H27.4246L27.4268 94.9784L27.4285 94.9771L27.4296 94.9753L27.4296 94.9732L23.7943 77.5459L23.7926 77.5431L23.7893 77.5422H17.6761L17.6738 77.5426L17.672 77.544L17.6711 77.5459L17.6711 77.548L18.5365 80.7759V80.7782L15.5756 91.7865L14.6918 94.9722L14.6918 94.9743L14.6928 94.9762L14.6946 94.9775L14.6968 94.978H18.103L18.1062 94.9771L18.108 94.9745L19.0722 91.4273L19.0741 91.4247L19.0772 91.4237H23.3237L23.327 91.4249L23.3288 91.4283ZM21.4651 82.5841L22.6903 88.3864L22.6902 88.3885L22.6891 88.3902L22.6874 88.3915L22.6853 88.392H19.8981L19.8958 88.3914L19.894 88.3901L19.893 88.3882V88.3861L21.4551 82.5837L21.457 82.5812L21.4601 82.5802L21.4633 82.5812L21.4651 82.5841Z" fill="#F1F1F1"/>
<path d="M40.15 81.3194C40.15 80.3176 39.7173 79.3569 38.9471 78.6485C38.1769 77.9401 37.1323 77.5421 36.043 77.5421H28.3032L28.3009 77.5426L28.2991 77.5439L28.2981 77.5459L28.2982 77.548L29.2762 80.7514V94.9507L29.2778 94.954L29.2815 94.9555H36.0428C37.1321 94.9555 38.1767 94.5575 38.9469 93.8491C39.7171 93.1407 40.1498 92.18 40.1498 91.1782L40.15 81.3194ZM36.8536 91.1782C36.8532 91.376 36.7676 91.5656 36.6155 91.7054C36.4634 91.8453 36.2573 91.924 36.0422 91.9244H32.5781L32.5761 91.924L32.5745 91.923L32.5734 91.9214L32.5731 91.9196V80.602L32.5734 80.6002L32.5745 80.5986L32.5761 80.5976L32.5781 80.5972H36.0482C36.2584 80.5944 36.4611 80.6682 36.6121 80.8027C36.7631 80.9372 36.8499 81.1212 36.8536 81.3145V91.1782Z" fill="#F1F1F1"/>
<path d="M59.0098 89.6163C59.0082 88.8532 58.8296 88.0992 58.4859 87.4046C58.1422 86.7101 57.6413 86.091 57.0167 85.5887L56.8846 85.4821L56.8833 85.4789L56.8846 85.4757L56.9901 85.3462C57.6835 84.4959 58.0539 83.4596 58.0443 82.3968C58.0346 79.6985 55.5866 77.5421 52.6528 77.5421H48.1783L48.176 77.5426L48.1742 77.5439L48.1732 77.5459L48.1733 77.548L49.1278 80.752V84.2489L49.1263 84.2521L49.1228 84.2535H48.1781L48.1758 84.254L48.174 84.2554L48.173 84.2573L48.1731 84.2595L49.1276 87.4635V91.9423L49.1273 91.9442L49.1262 91.9457L49.1245 91.9468L49.1226 91.9471H48.176L48.1737 91.9476L48.1718 91.949L48.1709 91.951L48.1709 91.9532L49.0547 94.9753L49.0565 94.9779L49.0596 94.9789H53.7031C55.1513 94.8454 56.4947 94.2236 57.4742 93.2335C58.4538 92.2434 59.0004 90.9549 59.0086 89.6163M52.4538 80.5974H52.6806C52.9478 80.5957 53.2126 80.6427 53.46 80.7356C53.7074 80.8285 53.9323 80.9655 54.1218 81.1387C54.3114 81.3119 54.4618 81.5178 54.5645 81.7447C54.6672 81.9716 54.72 82.2149 54.72 82.4606C54.7095 82.9371 54.4973 83.391 54.1286 83.7258C53.7598 84.0606 53.2636 84.2499 52.7455 84.2535H52.4538L52.4502 84.2521L52.4488 84.2489V80.6022L52.4502 80.5989L52.4538 80.5974ZM53.1778 91.9471H52.4538L52.4518 91.9468L52.4502 91.9457L52.4491 91.9442L52.4488 91.9423V87.3135L52.4502 87.3102L52.4538 87.3087H53.1083C53.4468 87.3068 53.7823 87.3665 54.0956 87.4845C54.4088 87.6025 54.6936 87.7764 54.9333 87.9962C55.1731 88.2159 55.3632 88.4772 55.4926 88.7648C55.622 89.0525 55.6881 89.3609 55.6872 89.6722C55.6739 90.2772 55.4043 90.8535 54.9357 91.2783C54.4672 91.703 53.8369 91.9428 53.179 91.9464" fill="#F1F1F1"/>
<path d="M64.1519 91.7687V80.7518L65.13 77.5485L65.1301 77.5463L65.1292 77.5443L65.1273 77.5428L65.1249 77.5423H59.8818L59.8795 77.5429L59.8777 77.5443L59.8768 77.5464L59.877 77.5485L60.8551 80.7518V91.7702L59.877 94.9505L59.8768 94.9526L59.8777 94.9546L59.8795 94.956L59.8818 94.9565L64.1511 94.9777V94.9551H65.124L65.1263 94.9546L65.1281 94.9532L65.1291 94.9512L65.129 94.9491L64.1519 91.7687L64.1515 91.7675L64.1519 91.7687Z" fill="#F1F1F1"/>
<path d="M77.623 88.6807C77.623 86.5486 76.1162 84.2535 72.8091 84.2535H72.4786C71.3834 84.2535 70.6638 84.0403 70.3397 83.6211C70.0808 83.3262 69.9442 82.82 69.9442 82.1564C69.9442 81.5461 70.7919 80.5505 71.4617 80.5505H73.6858L73.6893 80.5519L73.6908 80.5553V81.8798L73.6913 81.8821L73.693 81.8839L73.6954 81.8847L73.6979 81.8842L77.0095 80.6118L77.0118 80.61L77.0128 80.6073V77.5468L77.0112 77.5434L77.0075 77.542H71.0137C68.5145 77.7729 66.6478 80.1667 66.6478 82.1564C66.6478 85.3481 68.682 87.2174 72.2284 87.2852L72.4195 87.289V87.3085H72.8091C73.1279 87.2878 73.4467 87.3484 73.7304 87.4837C74.109 87.6951 74.3009 88.0977 74.3009 88.6807V90.3644C74.3009 91.1174 73.2826 91.9235 71.7665 91.9235H70.4071L70.4035 91.9222L70.4019 91.9189V90.6384L70.4013 90.6362L70.3997 90.6346L70.3974 90.6337L70.3949 90.634L67.1087 91.8636L67.1063 91.8654L67.1054 91.8681V94.9507L67.1058 94.9525L67.107 94.954L67.1087 94.955L67.1106 94.9553H71.7663C74.9957 94.9553 77.6228 92.8959 77.6228 90.3644L77.623 88.6807Z" fill="#F1F1F1"/>
<path d="M90.038 81.3146C90.0334 80.3114 89.5963 79.3508 88.8226 78.6435C88.0489 77.9363 87.0017 77.5402 85.9109 77.5422H83.2461C82.1569 77.5422 81.1122 77.9401 80.342 78.6485C79.5718 79.3569 79.1391 80.3176 79.1391 81.3194V91.1784C79.1391 91.6744 79.2453 92.1656 79.4517 92.6239C79.6581 93.0822 79.9606 93.4986 80.342 93.8494C80.7234 94.2001 81.1761 94.4783 81.6744 94.6682C82.1727 94.858 82.7068 94.9557 83.2461 94.9556H85.9109C87.0017 94.9576 88.0489 94.5615 88.8226 93.8543C89.5963 93.147 90.0334 92.1864 90.038 91.1831V81.3146ZM86.7153 91.1784C86.7149 91.3762 86.6293 91.5657 86.4772 91.7056C86.3251 91.8455 86.119 91.9242 85.9039 91.9246H83.2461C83.0311 91.9242 82.825 91.8454 82.6729 91.7056C82.5209 91.5657 82.4352 91.3761 82.4348 91.1784V81.3196C82.4351 81.1218 82.5207 80.9322 82.6728 80.7923C82.8249 80.6524 83.0311 80.5737 83.2461 80.5734H85.9057C86.1207 80.5738 86.3269 80.6525 86.4789 80.7924C86.631 80.9322 86.7166 81.1218 86.717 81.3196L86.7153 91.1784Z" fill="#F1F1F1"/>
<path d="M102 94.9741V77.5468L101.998 77.5434L101.995 77.542H98.6835L98.6815 77.5423L98.6798 77.5434L98.6786 77.5449L98.6783 77.5468V83.0723L98.677 83.0752L98.6741 83.0768L98.6708 83.0764L98.6684 83.0743L95.7185 77.5439L95.7166 77.542L95.7139 77.5413H91.1705L91.1681 77.5418L91.1662 77.5432L91.1653 77.5452L91.1654 77.5475L92.1435 80.7507V94.9734L92.145 94.9768L92.1487 94.9782H95.4349L95.4385 94.9767L95.44 94.9734V83.9512L95.4411 83.9483L95.444 83.9467L95.4474 83.947L95.4498 83.9491L98.6775 90.0187V94.9748L98.6779 94.9766L98.679 94.9782L98.6807 94.9792L98.6827 94.9796H101.994L101.996 94.9792L101.998 94.9782L101.999 94.9766L101.999 94.9748" fill="#F1F1F1"/>
</svg>
