<svg width="165" height="30" viewBox="0 0 165 30" fill="none" xmlns="http://www.w3.org/2000/svg">
<path d="M7.45087 0.133347L16.6265 21.7929L26.354 0.133347H33.8049V29.0165H29.2228V5.13214L18.0695 29.0505L14.9592 28.9486L4.58206 5.13214V29.0165C4.58206 29.2373 0.689896 28.858 0 29.0165V0.133347H7.45087ZM72.1861 0.133347V29.0165H76.7739L76.2047 4.57735L86.7946 28.4561C87.6512 29.4468 90.3936 29.3449 91.0432 28.1277L101.403 5.12648V29.0108H105.416V0.127686H98.5401L88.5193 21.7929L79.062 0.133347H72.1861ZM38.9561 0.133347L51.035 28.1334C51.5237 29.0731 52.5585 29.0901 53.5704 29.0675L67.0348 0.133347H61.8779L53.2772 21.2381L43.5439 0.133347H38.9561ZM111.148 0.133347V4.02255H120.887V29.0165H126.044V4.02255H135.789V0.133347H111.148ZM164.431 0.133347L153.841 13.488C153.559 13.8899 153.462 14.3428 153.513 14.824C153.674 16.3752 163.252 27.0238 165 29.0165V0.133347H164.431ZM140.94 0.133347V29.0165L152.392 14.8693C149.615 9.5082 144.752 5.29065 141.515 0.133347H140.94Z" fill="#F2F2F2"/>
</svg>
