<svg width="147" height="27" viewBox="0 0 147 27" fill="none" xmlns="http://www.w3.org/2000/svg">
<path d="M57.731 0.127686H33.1425C32.5515 0.127686 32.0728 0.593379 32.0728 1.16824V25.0871C32.0728 25.662 32.5515 26.1277 33.1425 26.1277H57.731C58.322 26.1277 58.8007 25.662 58.8007 25.0871V1.16824C58.8007 0.593379 58.322 0.127686 57.731 0.127686ZM56.1283 23.0078C56.1283 23.2943 55.8898 23.528 55.5934 23.528H51.3165C51.0219 23.528 50.7816 23.2961 50.7816 23.0078V8.18765C50.7816 8.04436 50.6624 7.92838 50.5151 7.92838H40.3567C40.2094 7.92838 40.0901 8.04436 40.0901 8.18594V23.0061C40.0901 23.2926 39.8516 23.5263 39.5553 23.5263H35.2783C34.9837 23.5263 34.7435 23.2943 34.7435 23.0061V3.24592C34.7435 2.95934 34.982 2.72565 35.2783 2.72565H55.5917C55.8863 2.72565 56.1265 2.95763 56.1265 3.24592V23.0061L56.1283 23.0078Z" fill="#F2F2F2"/>
<path d="M116.532 0.127686H91.9432C91.3522 0.127686 90.8735 0.593379 90.8735 1.16824V25.0871C90.8735 25.662 91.3522 26.1277 91.9432 26.1277H116.532C117.123 26.1277 117.601 25.662 117.601 25.0871V1.16824C117.601 0.593379 117.123 0.127686 116.532 0.127686ZM114.927 7.40809C114.927 7.69467 114.689 7.92838 114.392 7.92838H99.1591C99.01 7.92838 98.8908 8.04607 98.8908 8.18936V23.0078C98.8908 23.2943 98.6523 23.528 98.356 23.528H94.079C93.7844 23.528 93.5442 23.2961 93.5442 23.0078V3.24762C93.5442 2.96105 93.7827 2.72734 94.079 2.72734H114.392C114.687 2.72734 114.927 2.95934 114.927 3.24762V7.40809Z" fill="#F2F2F2"/>
<path d="M79.9154 7.92838H69.7588C69.6115 7.92838 69.4922 8.04436 69.4922 8.18765V10.267C69.4922 10.4103 69.6115 10.5263 69.7588 10.5263H79.9154C80.0627 10.5263 80.182 10.4103 80.182 10.267V8.18765C80.182 8.04436 80.0627 7.92838 79.9154 7.92838Z" fill="#F2F2F2"/>
<path d="M87.1314 0.127686H62.5428C61.9519 0.127686 61.4731 0.593379 61.4731 1.16824V25.0871C61.4731 25.662 61.9519 26.1277 62.5428 26.1277H87.1314C87.7223 26.1277 88.201 25.662 88.201 25.0871V1.16824C88.201 0.593379 87.7223 0.127686 87.1314 0.127686ZM85.5286 15.2071C85.5286 15.4937 85.2901 15.7273 84.9938 15.7273H69.7588C69.6115 15.7273 69.4922 15.8433 69.4922 15.9866V18.066C69.4922 18.2093 69.6115 18.3253 69.7588 18.3253H84.9938C85.2884 18.3253 85.5286 18.5573 85.5286 18.8456V23.0061C85.5286 23.2926 85.2901 23.5263 84.9938 23.5263H64.6804C64.3858 23.5263 64.1456 23.2943 64.1456 23.0061V3.24592C64.1456 2.95934 64.3841 2.72565 64.6804 2.72565H84.9938C85.2884 2.72565 85.5286 2.95763 85.5286 3.24592V15.2071Z" fill="#F2F2F2"/>
<path d="M138.714 7.92838H128.558C128.41 7.92838 128.289 8.04437 128.289 8.18936V18.0694C128.289 18.2127 128.409 18.3304 128.558 18.3304H138.714C138.862 18.3304 138.983 18.2144 138.983 18.0711V8.19107C138.983 8.04778 138.863 7.93007 138.714 7.93007V7.92838Z" fill="#F2F2F2"/>
<path d="M145.932 0.127686H144.328V23.0078C144.328 23.2943 144.089 23.528 143.793 23.528H123.479C123.185 23.528 122.945 23.2961 122.945 23.0078V3.24762C122.945 2.96105 123.183 2.72734 123.479 2.72734H138.714C138.862 2.72734 138.983 2.61135 138.983 2.46807V0.127686H121.342C120.751 0.127686 120.272 0.593379 120.272 1.16824V25.0871C120.272 25.662 120.751 26.1277 121.342 26.1277H145.93C146.521 26.1277 147 25.662 147 25.0871V1.16824C147 0.593379 146.521 0.127686 145.93 0.127686" fill="#F2F2F2"/>
<path d="M25.6582 0.127686H15.5366C15.1684 0.127686 14.8685 0.417673 14.8685 0.7776C14.8685 0.891889 14.9001 1.00448 14.9579 1.10171L25.9774 19.6695C26.0861 19.8571 26.3298 19.9219 26.5227 19.8162C26.649 19.7463 26.7262 19.6166 26.7262 19.475V1.16824C26.7262 0.593379 26.2474 0.127686 25.6565 0.127686" fill="#F2F2F2"/>
<path d="M11.6823 0.7776C11.4438 0.375028 11.0019 0.127686 10.5249 0.127686H1.1556C0.787355 0.127686 0.487496 0.419379 0.48925 0.7776C0.48925 0.891889 0.52081 1.00277 0.578678 1.10171L15.0474 25.4778C15.2859 25.8786 15.726 26.126 16.203 26.1277H25.5723C25.9406 26.1277 26.2404 25.8377 26.2404 25.4778C26.2404 25.3635 26.2089 25.2509 26.151 25.1537L11.684 0.7776H11.6823Z" fill="#F2F2F2"/>
<path d="M0.748772 6.5859C0.640051 6.39826 0.396307 6.33343 0.203415 6.43919C0.0771577 6.50913 0 6.63877 0 6.78035V25.0871C0 25.662 0.478726 26.1277 1.06968 26.1277H11.1913C11.5595 26.1277 11.8594 25.8377 11.8594 25.4778C11.8594 25.3635 11.8278 25.2509 11.77 25.1537L0.750528 6.5859H0.748772Z" fill="#F2F2F2"/>
</svg>
