<svg width="151" height="27" viewBox="0 0 151 27" fill="none" xmlns="http://www.w3.org/2000/svg">
<path d="M150.467 17.1144C149.718 16.2625 148.562 15.2351 146.999 14.0322C145.437 12.8294 143.79 11.8208 142.059 11.0064C140.329 10.1795 138.824 9.91013 137.546 10.1983C136.809 10.4614 136.525 10.9626 136.693 11.7018C136.861 12.441 137.649 13.08 139.057 13.6188C139.341 13.7065 139.786 13.8318 140.393 13.9947C141.388 14.2327 142.563 14.5647 143.919 14.9907C145.288 15.4167 146.586 15.9618 147.813 16.6258C149.053 17.2898 149.963 18.098 150.545 19.0502C151.139 19.9899 151.152 21.0925 150.583 22.3579C149.705 23.8113 148.465 24.8763 146.864 25.5529C145.275 26.2169 143.525 26.6367 141.614 26.8121C139.702 26.9749 137.326 27.0313 134.485 26.9812C131.643 26.9436 128.641 26.6179 125.476 26.0039V18.6367C125.89 19.1755 126.632 19.9022 127.704 20.8168C128.789 21.7315 130.016 22.6336 131.385 23.5231C132.754 24.4127 134.078 25.083 135.356 25.5341C136.635 25.9726 137.688 25.9851 138.514 25.5717C139.069 25.2459 139.302 24.7447 139.212 24.0682C139.134 23.3916 138.488 22.8152 137.274 22.3391C136.99 22.2514 136.454 22.1136 135.666 21.9257C134.879 21.7252 133.787 21.412 132.392 20.986C131.01 20.5474 129.687 19.9962 128.421 19.3321C127.168 18.6555 126.238 17.8411 125.631 16.8889C125.024 15.9367 125.005 14.8279 125.573 13.5624C126.451 12.0965 127.685 11.0315 129.273 10.3674C130.875 9.7034 132.631 9.28993 134.543 9.12705C136.454 8.95164 138.811 8.889 141.614 8.93911C144.416 8.9767 147.367 9.2962 150.467 9.8976V17.1144Z" fill="#F2F2F2"/>
<path d="M123.442 27H108.583L110.54 23.5607V13.5248L108.583 10.0855L121.505 8.90152L121.486 23.5607L123.442 27Z" fill="#F2F2F2"/>
<path d="M99.0327 27H84.1933L86.1306 23.5607V13.5248L84.1933 10.0855L97.0955 8.90152V12.228C98.2449 10.6493 99.5752 9.64701 101.086 9.22101C102.597 8.79502 104.522 8.71358 106.859 8.97669V17.1144C102.817 14.0949 100.583 12.4786 100.156 12.2656C99.7431 12.0401 99.1877 12.0651 98.4903 12.3408C97.9091 12.7417 97.5346 13.3431 97.3667 14.145C97.2117 14.9343 97.1342 15.6924 97.1342 16.4191C97.1213 16.6696 97.1084 16.8952 97.0955 17.0956V23.5607L99.0327 27Z" fill="#F2F2F2"/>
<path d="M74.2746 27H59.4351L61.3724 23.5607V13.5248L59.4351 10.0855L72.3373 8.90152V12.228C73.4867 10.6493 74.817 9.64701 76.3281 9.22101C77.8391 8.79502 79.7635 8.71358 82.1011 8.97669V17.1144C78.0587 14.0949 75.8244 12.4786 75.3982 12.2656C74.9849 12.0401 74.4295 12.0651 73.7321 12.3408C73.1509 12.7417 72.7764 13.3431 72.6085 14.145C72.4535 14.9343 72.376 15.6924 72.376 16.4191C72.3631 16.6696 72.3502 16.8952 72.3373 17.0956V23.5607L74.2746 27Z" fill="#F2F2F2"/>
<path d="M45.7775 11.1192C45.4158 10.3299 44.8863 9.93518 44.1889 9.93518C43.4915 9.93518 42.962 10.3299 42.6004 11.1192C42.2387 11.9085 41.9804 12.9109 41.8255 14.1262C41.6834 15.3415 41.6124 16.6195 41.6124 17.9602C41.6124 19.2883 41.6834 20.5537 41.8255 21.7565C41.9804 22.9468 42.2387 23.9241 42.6004 24.6884C42.962 25.4526 43.4915 25.8348 44.1889 25.8348C44.8863 25.8348 45.4158 25.4526 45.7775 24.6884C46.1391 23.9241 46.3909 22.9468 46.533 21.7565C46.688 20.5537 46.7655 19.2883 46.7655 17.9602C46.7655 16.6195 46.688 15.3415 46.533 14.1262C46.3909 12.9109 46.1391 11.9085 45.7775 11.1192ZM31.8873 22.6586C31.0866 21.4558 30.6862 19.8897 30.6862 17.9602C30.6862 16.0307 31.0866 14.4645 31.8873 13.2617C32.688 12.0464 33.7471 11.1129 35.0644 10.4614C36.3947 9.80989 37.8541 9.3651 39.4426 9.12705C41.0441 8.88899 42.5229 8.76997 43.8789 8.76997C45.235 8.76997 47.0108 8.89526 49.2064 9.14584C51.402 9.3839 53.378 10.1544 55.1344 11.4575C56.9038 12.7605 57.7885 14.9281 57.7885 17.9602C57.7885 20.9797 56.7165 23.2412 54.5726 24.7447C52.4416 26.2482 49.7876 27 46.6105 27C43.4334 27 41.0441 26.8935 39.4426 26.6805C37.8541 26.455 36.3947 26.029 35.0644 25.4025C33.7471 24.7635 32.688 23.8489 31.8873 22.6586Z" fill="#F2F2F2"/>
<path d="M26.6761 26.9624C23.9381 26.9624 22.3366 26.9311 21.8717 26.8684C21.4067 26.7933 20.9289 26.6993 20.4381 26.5865C19.9473 26.4612 19.392 26.1042 18.7721 25.5153C18.1521 24.9264 13.5414 18.2483 4.94001 5.48104V19.52L9.74442 26.9624H0L3.83578 19.6704V4.10909L0.755531 0.0120306C6.46399 0.0120306 9.60235 0.0245599 10.1706 0.0496183C10.7389 0.0746768 11.3459 0.168646 11.9916 0.331526C12.6503 0.494406 13.2379 0.826431 13.7545 1.3276C14.2712 1.81624 14.7103 2.30488 15.0719 2.79352C15.4335 3.28216 18.9335 8.44421 25.5718 18.2797V7.30404L20.8837 0.0120306H30.7443L26.6761 7.4544V26.9624Z" fill="#F2F2F2"/>
<path d="M146.32 5.12396V0.0721746H147.25L149.132 3.44966V0.0721746H150.077V5.12396H149.199L147.257 1.68875V5.12396H146.32Z" fill="#F2F2F2"/>
<path d="M137.522 5.17447C136.063 5.17447 135.186 4.18577 135.186 2.58363C135.186 0.988707 136.063 0 137.522 0C138.98 0 139.85 0.98149 139.85 2.58363C139.85 4.19298 138.972 5.17447 137.522 5.17447ZM137.522 4.25794C138.332 4.25794 138.823 3.65172 138.823 2.58363C138.823 1.52275 138.332 0.916539 137.522 0.916539C136.703 0.916539 136.212 1.52997 136.212 2.58363C136.212 3.65172 136.703 4.25794 137.522 4.25794Z" fill="#F2F2F2"/>
<path d="M127.704 5.12396V0.0721746H128.716V5.12396H127.704Z" fill="#F2F2F2"/>
<path d="M118.917 5.12396V0.923762H117.645V0.0721746H121.223V0.923762H119.929V5.12396H118.917Z" fill="#F2F2F2"/>
<path d="M109.438 5.17447C108.077 5.17447 107.102 4.2002 107.102 2.55476C107.102 0.902105 108.114 0 109.431 0C110.554 0 111.417 0.642299 111.417 1.71039V1.75369H110.405V1.71039C110.405 1.22686 110.004 0.916539 109.438 0.916539C108.694 0.916539 108.129 1.44337 108.129 2.54754C108.129 3.66615 108.657 4.25794 109.438 4.25794C110.041 4.25794 110.472 3.92596 110.472 3.2981V3.26923H111.477V3.2981C111.477 4.54661 110.554 5.17447 109.438 5.17447Z" fill="#F2F2F2"/>
<path d="M98.8008 5.17448C97.5733 5.17448 96.8741 4.61157 96.8741 3.56512V0.0721746H97.8858V3.53626C97.8858 4.10639 98.2503 4.38784 98.8157 4.38784C99.3513 4.38784 99.6935 4.1136 99.6935 3.53626V0.0721746H100.683V3.56512C100.683 4.61878 100.006 5.17448 98.8008 5.17448Z" fill="#F2F2F2"/>
<path d="M86.8551 5.12396V0.0721746H88.8562C89.7787 0.0721746 90.3291 0.70004 90.3291 1.45059C90.3291 2.12176 89.8828 2.5692 89.191 2.67024L89.1984 2.71354L89.4662 2.72075C89.8382 2.73519 89.9572 2.85787 90.0316 3.13211L90.6118 5.12396H89.615L89.0496 3.1249H87.8668V5.12396H86.8551ZM87.8668 2.3527H88.6107C89.0496 2.3527 89.4216 2.15062 89.4216 1.64545C89.4216 1.14748 89.0868 0.923762 88.6256 0.923762H87.8668V2.3527Z" fill="#F2F2F2"/>
<path d="M78.068 5.12396V0.923762H76.7959V0.0721746H80.3741V0.923762H79.0797V5.12396H78.068Z" fill="#F2F2F2"/>
<path d="M68.6529 5.17447C67.418 5.17447 66.6443 4.58269 66.6443 3.50017V3.25479H67.6337V3.5146C67.6337 4.09195 67.9685 4.41671 68.7124 4.41671C69.2852 4.41671 69.62 4.21463 69.62 3.81049C69.62 3.39913 69.2703 3.21871 68.5636 2.97334C67.7156 2.68466 66.7634 2.35991 66.7634 1.40728C66.7634 0.663949 67.4106 0 68.6529 0C69.8655 0 70.5052 0.649516 70.5052 1.56605V1.74648H69.5307V1.56605C69.5307 1.10418 69.2257 0.793852 68.6157 0.793852C68.0801 0.793852 67.7899 1.01036 67.7899 1.34233C67.7899 1.74648 68.2437 1.94133 68.9058 2.17949C70.1184 2.58363 70.6019 2.92282 70.6019 3.77441C70.6019 4.71981 69.8729 5.17447 68.6529 5.17447Z" fill="#F2F2F2"/>
<path d="M56.4616 5.12396V0.0721746H57.3915L59.2736 3.44966V0.0721746H60.2183V5.12396H59.3405L57.3989 1.68875V5.12396H56.4616Z" fill="#F2F2F2"/>
<path d="M47.6631 5.17447C46.205 5.17447 45.3272 4.18577 45.3272 2.58363C45.3272 0.988707 46.205 0 47.6631 0C49.1211 0 49.9915 0.98149 49.9915 2.58363C49.9915 4.19298 49.1137 5.17447 47.6631 5.17447ZM47.6631 4.25794C48.4739 4.25794 48.9649 3.65172 48.9649 2.58363C48.9649 1.52275 48.4739 0.916539 47.6631 0.916539C46.8448 0.916539 46.3538 1.52997 46.3538 2.58363C46.3538 3.65172 46.8448 4.25794 47.6631 4.25794Z" fill="#F2F2F2"/>
<path d="M37.0838 5.17447C35.7225 5.17447 34.7479 4.2002 34.7479 2.55476C34.7479 0.902105 35.7597 0 37.0764 0C38.1997 0 39.0626 0.642299 39.0626 1.71039V1.75369H38.0509V1.71039C38.0509 1.22686 37.6492 0.916539 37.0838 0.916539C36.3399 0.916539 35.7745 1.44337 35.7745 2.54754C35.7745 3.66615 36.3027 4.25794 37.0838 4.25794C37.6864 4.25794 38.1178 3.92596 38.1178 3.2981V3.26923H39.1221V3.2981C39.1221 4.54661 38.1997 5.17447 37.0838 5.17447Z" fill="#F2F2F2"/>
</svg>
