<svg width="162" height="34" viewBox="0 0 162 34" fill="none" xmlns="http://www.w3.org/2000/svg">
<path d="M18.9768 14.9445C18.7483 15.8713 18.6918 16.8131 18.697 17.7698C18.7149 22.4412 18.7072 27.1126 18.7021 31.7865C18.7021 32.1542 18.7586 32.5319 18.5994 32.8922C18.2811 33.2276 17.9293 33.1332 17.5699 33.0189C17.5083 32.8574 17.4313 32.7456 17.4287 32.6313C17.4107 31.6399 17.403 30.6485 17.4004 29.6546C17.4004 25.0229 17.3902 20.3937 17.4056 15.762C17.4107 14.4376 17.5673 13.1207 18.127 11.8932C19.5134 8.85178 21.8728 7.06028 25.3362 6.72235C25.0333 4.69972 21.326 1.99373 17.1309 1.64338C13.9627 1.37999 9.40046 3.91201 8.31446 6.56826C8.36837 6.6279 8.41972 6.73473 8.47363 6.73721C10.2066 6.81176 11.6726 7.49015 13.0102 8.52383C14.8818 9.96998 16.0526 11.8733 16.0962 14.1345C16.2194 20.2098 16.1424 26.2901 16.1424 32.3679C16.1424 32.5717 16.1424 32.7829 15.9601 32.9817C15.6829 33.1829 15.3671 33.168 15.0282 32.9867C14.7124 32.5444 14.851 32.0325 14.851 31.5529C14.8382 26.3845 14.8382 21.2162 14.8433 16.0478C14.8459 13.7345 13.077 10.2358 9.62896 9.22947C5.77531 8.10634 2.30164 10.0967 0.925517 12.6982C0.681615 13.1604 0.43001 13.6201 0.114222 14.045C0.383797 11.4733 1.4467 9.19469 2.94092 7.12237C5.16428 4.03873 8.2246 2.01861 11.9062 0.863176C12.7175 0.609727 13.5571 0.458152 14.4043 0.363729C14.661 0.333912 14.9203 0.341378 15.1052 0.127686H18.4377C18.9049 0.545132 19.5031 0.311546 20.0346 0.423362C23.3183 1.12159 26.2733 2.49318 28.6815 4.74937C31.1462 7.05775 32.8279 9.86808 33.5467 13.1604C33.5724 13.2797 33.5698 13.4089 33.5596 13.5307C33.5544 13.6077 33.5108 13.6847 33.4518 13.8487C32.8381 13.1679 32.5711 12.3404 32.0628 11.6522C30.6122 9.68171 27.3927 8.21324 24.2066 9.21461C21.2567 10.1439 19.6752 12.1417 18.982 14.942L18.9768 14.9445ZM65.0897 7.16465C65.0897 6.95841 65.0999 6.74969 65.0845 6.54345C65.0255 5.78062 64.856 5.61909 64.0653 5.59175C63.7726 5.58182 63.4645 5.53957 63.0409 5.89987V23.4898C61.2412 21.2584 59.6314 19.2482 58.0088 17.2479C56.3785 15.2377 54.7739 13.2052 53.0948 11.2347C51.4363 9.28664 49.9575 7.19193 48.2168 5.36809C47.7957 5.55693 47.711 5.77812 47.6725 6.03654C47.4748 7.36094 47.6648 26.884 47.8959 27.5971C48.4581 27.6965 49.0332 27.8033 49.7033 27.4356V10.2731C49.7855 10.2408 49.8702 10.2085 49.9524 10.1762C52.4992 13.0809 54.8355 16.1521 57.2976 19.1215C59.7623 22.0933 62.1064 25.162 64.625 28.1214C65.2617 27.6393 65.0794 27.1026 65.082 26.6355C65.0948 20.1452 65.0897 13.6525 65.0897 7.16216V7.16465ZM161.983 26.6529C161.991 20.1626 161.988 13.6748 161.988 7.18449C161.988 6.93601 161.983 6.68753 161.98 6.44154C161.973 5.88991 161.688 5.59424 161.113 5.59673C160.738 5.59673 160.335 5.49983 159.896 5.98188V23.4525C158.068 21.2161 156.427 19.2184 154.802 17.2107C153.172 15.2005 151.616 13.1331 149.916 11.1801C148.237 9.25186 146.84 7.09009 145.02 5.34576C144.55 5.53709 144.573 5.80298 144.555 6.044C144.317 9.13012 144.502 26.7101 144.81 27.6518C145.351 27.6344 145.932 27.8307 146.599 27.4256V10.2706C146.707 10.2508 146.812 10.2284 146.92 10.2085C149.328 13.1878 151.706 16.1944 154.152 19.1439C156.62 22.1157 158.948 25.1993 161.531 28.1388C162.132 27.6443 161.983 27.12 161.985 26.6504L161.983 26.6529ZM10.9614 21.0075C10.3478 18.9103 8.59944 17.5386 6.52499 17.4939C4.20921 17.4442 2.57378 18.7115 1.78046 20.7788C1.12835 22.4809 1.62128 24.0513 2.5096 25.5099C3.85491 27.7263 5.79072 29.4085 8.00894 30.7751C8.9255 31.3392 9.90111 31.866 11.0693 32.1294C11.3209 31.6374 11.2695 31.2622 11.2695 30.897C11.2695 28.2929 11.2516 25.6863 11.2772 23.0822C11.2849 22.3666 11.1566 21.6808 10.9614 21.0099V21.0075ZM25.1026 18.0332C23.4929 18.8805 22.5609 20.3614 22.5352 22.1977C22.4916 25.249 22.5198 28.3028 22.5198 31.3566C22.5198 31.5579 22.5044 31.7716 22.7149 32.0077C23.0718 32.0698 23.3568 31.9406 23.6161 31.8288C26.0217 30.7876 28.1296 29.3315 29.8215 27.376C30.6892 26.3721 31.4954 25.3037 31.8908 23.9967C32.412 22.2722 32.2939 20.6695 31.0975 19.2308C29.7521 17.6157 27.3568 16.8454 25.1052 18.0332H25.1026ZM87.6057 5.64393C87.2051 5.60168 86.7481 5.49235 86.2321 5.76319C86.019 6.25767 86.0986 6.71739 86.0986 7.16714C86.0909 11.1751 86.0883 15.1831 86.0986 19.191C86.1012 20.4459 85.8547 21.6461 85.4208 22.8214C85.0511 23.8277 84.4298 24.6551 83.485 25.2067C81.1333 26.5833 78.6583 26.7349 76.1602 25.6789C74.4401 24.9508 73.4645 23.5494 73.0871 21.8051C72.8509 20.7217 72.7687 19.611 72.779 18.4878C72.8149 14.6861 72.797 10.8869 72.7867 7.08512C72.7867 6.64283 72.9022 6.17567 72.5839 5.70107C72.0884 5.55944 71.5672 5.46997 71.064 5.81039C71.0306 5.95202 70.9792 6.07379 70.9792 6.19306C70.9767 11.1925 70.8406 16.1969 71.0306 21.1888C71.1384 24.029 72.8611 26.5311 75.9266 27.5151C77.6365 28.0618 79.3643 28.1289 81.0845 27.9053C84.9356 27.4058 87.7237 24.7943 87.8752 20.8559C88.0575 16.1124 87.924 11.354 87.9214 6.60308C87.9214 6.28006 87.9831 5.93217 87.6057 5.6489V5.64393ZM120.502 16.3633C124.15 12.7678 127.819 9.34381 131.439 5.72346C130.027 5.39298 129.082 5.68366 128.178 6.61297C125.98 8.86668 123.685 11.0309 121.398 13.2027C120.594 13.968 119.701 14.6463 118.684 15.5036V12.0721C118.684 10.9962 118.704 9.92272 118.679 8.8468C118.653 7.79325 118.797 6.72483 118.571 5.72097C117.667 5.55697 117.667 5.57185 116.982 5.81287C116.725 7.3286 116.807 26.6952 117.082 27.5897C117.564 27.7288 118.05 27.7437 118.579 27.5325C118.789 26.3995 118.658 25.2863 118.681 24.183C118.704 23.0251 118.681 21.8671 118.689 20.7117C118.694 19.6259 118.661 18.5375 118.712 17.3746C119.331 17.6455 119.6 18.0307 119.926 18.3438C122.828 21.1491 125.754 23.9296 128.594 26.7921C129.487 27.694 130.412 27.8406 131.68 27.5573C128.214 23.5618 124.222 20.1974 120.512 16.3658L120.502 16.3633ZM107.508 16.5621C106.422 15.9881 105.292 15.4887 104.188 14.947C103.305 14.5146 102.509 13.968 101.85 13.2449C100.163 11.3987 101.09 8.49153 103.164 7.59203C104.702 6.9261 106.307 6.85898 107.909 7.37582C108.707 7.63176 109.477 7.96225 110.265 8.26042C110.627 7.81813 110.884 7.40317 110.959 6.83415C108.864 5.21903 105.043 4.78918 102.481 5.98188C98.5325 7.82064 97.7828 12.6486 101.126 15.2576C102.122 16.0353 103.21 16.7137 104.417 17.151C105.588 17.5735 106.63 18.1972 107.68 18.8407C109.102 19.7129 109.708 21.0074 109.58 22.5132C109.439 24.1855 108.484 25.3881 106.766 26.0168C104.815 26.7299 102.989 26.3597 101.182 25.6366C100.402 25.3235 99.6698 24.8986 98.8765 24.5035C98.4837 24.9558 98.0832 25.3707 97.9574 26.0839C100.946 27.8531 104.05 28.8271 107.523 27.5797C109.49 26.874 110.841 25.5347 111.321 23.532C111.726 21.8349 111.672 20.1949 110.414 18.7363C109.598 17.7896 108.591 17.1336 107.508 16.5621ZM13.5006 16.2988C13.1848 15.2253 12.6405 14.2637 11.5699 13.63C9.59045 12.4547 7.52884 12.0671 5.22076 12.4796C1.67006 13.1132 0.219489 15.5831 0.0140976 18.5947C-0.0449523 19.4619 0.0628789 20.4185 0.697024 21.4348C0.784315 20.59 0.838224 19.9787 0.964026 19.3749C1.73424 15.6477 4.49932 13.814 8.29648 14.5495C10.2759 14.9346 11.5776 16.0652 12.1886 17.9114C12.4069 18.5748 12.5327 19.2631 12.525 19.9787C12.4993 22.3741 12.5147 24.7719 12.5147 27.1673C12.5147 28.6954 12.5019 30.2261 12.5224 31.7542C12.5327 32.5692 12.5609 32.5667 13.6135 32.7928C13.9165 32.3356 13.8138 31.9107 13.8164 31.5082C13.8241 27.1698 13.8087 22.8313 13.8343 18.4928C13.8395 17.7349 13.706 16.997 13.5006 16.2988ZM28.9948 12.5691C26.7663 12.0001 24.6841 12.2932 22.6841 13.3194C20.9511 14.2065 19.9986 15.6353 19.9807 17.5113C19.9293 22.3045 19.9576 27.1001 19.9627 31.8958C19.9627 32.2114 19.8728 32.5692 20.2323 32.7879C21.2464 32.5518 21.2592 32.5518 21.2618 31.4883C21.2695 27.5623 21.2618 23.6364 21.2669 19.7079C21.2669 19.2134 21.2413 18.7214 21.3927 18.2319C22.068 16.085 23.5185 14.8973 25.8266 14.4824C27.9652 14.0972 29.7059 14.6613 31.1745 16.09C32.2733 17.1585 32.7072 18.5351 32.7868 20.026C32.8099 20.4509 32.6661 20.9279 33.0872 21.3056C33.4209 20.9751 33.4261 20.5776 33.4851 20.2421C33.5904 19.6358 33.5236 19.0047 33.5827 18.391C33.8394 15.772 31.6366 13.2425 28.9922 12.5666L28.9948 12.5691ZM136.419 5.73838V27.5499C137.03 27.7188 137.549 27.8033 138.042 27.4903C138.306 25.7136 138.209 6.56827 137.934 5.70853C137.49 5.52714 137.036 5.55202 136.419 5.73838Z" fill="#F2F2F2"/>
</svg>
