<svg width="103" height="86" viewBox="0 0 103 86" fill="none" xmlns="http://www.w3.org/2000/svg">
<path d="M77.9867 3.7571C77.7455 3.63347 76.9417 4.20746 76.9149 4.43706C76.9863 5.89413 76.6201 6.07074 76.6112 7.5543C76.3165 6.89199 75.986 6.30917 75.6287 5.81465C76.2004 7.85454 75.066 9.75314 75.3072 11.8019C75.1375 11.1925 75.4412 9.78846 74.9231 9.39108C74.4408 11.4575 75.066 13.6916 73.9139 15.5726H74.6373C72.8599 18.6103 73.0386 19.2461 71.3416 22.9374C71.4934 24.2266 72.2169 24.209 71.931 26.1517C71.5023 26.5844 71.1004 26.1694 70.5824 28.7568C70.7789 28.9687 71.1272 28.1033 71.4577 27.4498C70.8325 30.2139 70.1179 33.3752 69.2962 36.4925L64.4464 37.8524L63.1334 37.3314L59.9359 39.1152C59.7394 39.0887 54.1036 40.9166 53.916 40.7135C53.9249 39.9276 55.1128 36.5366 54.2733 36.0156C54.3358 34.2318 55.8452 34.2671 57.0778 33.3929C57.0153 30.0637 58.1853 28.9422 57.2207 26.2754C57.6048 26.293 57.9799 26.3195 58.355 26.3637C57.8548 24.8625 59.8287 24.0324 59.534 22.5311C59.1231 22.7343 58.6408 23.635 58.3104 24.0589C59.1053 22.8667 57.6048 22.955 58.3907 21.7982C58.2657 21.9395 58.1496 22.072 58.0245 22.2044L60.2039 14.1508L61.1685 13.4974C61.0166 11.2808 62.0884 6.75953 62.7851 4.649C63.3567 4.20747 65.5628 4.82561 66.197 4.93158C67.0723 4.45472 70.502 3.38621 71.029 2.52963L71.1183 3.50101C73.5387 2.26471 76.7005 1.35515 78.9334 0.127686C78.9692 0.348453 79.1567 0.410268 79.4336 0.383776C78.9334 1.81435 77.8616 3.8719 77.9777 3.7571H77.9867ZM75.468 12.3405C75.7002 11.793 75.8252 10.7775 75.8967 10.1064C75.7538 10.5302 75.6466 11.6606 75.3251 11.8107C75.3519 12.2522 75.3697 12.526 75.468 12.3494V12.3405ZM53.0318 40.7224L53.5855 40.9255L53.8624 40.846L53.791 37.8965L53.0228 40.7135L53.0318 40.7224ZM76.5666 11.0424C76.6916 10.5832 76.638 10.0887 76.6559 9.62951C76.4951 10.1152 76.5308 10.5214 76.5666 11.0424ZM58.0603 24.4209C57.7477 24.5799 57.7119 24.2001 57.569 23.9617C57.3725 25.0656 57.6315 24.9596 58.0603 24.4209ZM58.3282 24.0765C58.2389 24.209 58.1496 24.3238 58.0692 24.4297C58.1049 24.4121 58.1317 24.4121 58.1764 24.3768C58.2478 24.262 58.2746 24.1825 58.3282 24.0854V24.0765ZM44.1359 39.6627C44.1538 39.7245 44.1805 39.7245 44.1984 39.7598C44.1895 39.6362 44.1716 39.4949 44.1627 39.3271C44.1538 39.4331 44.1359 39.5214 44.1359 39.6539V39.6627ZM38.0803 56.6883L39.4111 56.3174L39.4647 56.2291L36.7405 55.814L38.0892 56.6883H38.0803ZM40.3221 56.0524L40.983 53.5975L39.4557 56.2202C39.5718 56.2997 40.1971 56.0789 40.3221 56.0524ZM52.7728 7.06861C52.7102 7.35119 52.6924 7.65143 52.1475 8.08414C50.6738 7.82805 48.4677 8.69346 46.9761 9.18797C46.9404 9.03785 46.8958 8.90539 46.8422 8.79059C46.7707 8.85241 46.7171 8.96721 46.6546 9.09967C46.6278 8.98487 46.6189 8.88773 46.6099 8.79942L46.5296 8.81709C46.5296 8.94955 46.5206 9.08201 46.4849 9.21447L46.083 8.94072L40.2953 10.5656C40.1077 11.0954 39.9559 11.6252 40.072 11.8725L39.5361 13.8594C39.2235 13.6651 38.9913 12.8527 38.4375 13.4974C38.5179 12.6938 38.6519 11.8372 38.7948 10.9894L38.25 11.1396C37.7944 11.8284 37.071 13.6475 37.3836 11.4398C35.6687 16.4733 34.3915 22.7607 33.3465 27.7413C33.6591 27.079 33.9717 26.2047 34.1593 26.4078C33.677 29.004 33.3197 28.6067 32.9178 29.057C32.6498 30.9998 33.3197 30.9556 33.4626 32.2272C31.8996 35.9715 32.0604 36.5984 30.4259 39.698L31.0868 39.6539C30.024 41.5701 30.5956 43.769 30.149 45.8353C29.6756 45.4644 29.9614 44.0515 29.8007 43.4599C30.024 45.4909 28.979 47.416 29.5059 49.4206C29.1754 48.9437 28.8718 48.3786 28.6038 47.7339C28.2734 49.4383 30.5866 53.624 27.3445 51.5665C27.3445 51.6636 23.8165 60.0174 23.5664 60.7415L29.1665 59.1697L28.6663 58.9048C29.0236 58.9666 33.0518 57.4919 34.463 57.7391C34.4898 57.7215 36.3922 55.7257 36.7405 55.7964C36.16 55.4166 35.3472 55.0546 35.5883 54.7102C36.7405 54.772 38.5268 55.5844 39.554 55.9112C39.9202 55.2312 40.6168 51.7696 41.5189 51.6548C41.8405 50.4361 43.0552 48.2549 42.5193 46.9657C43.466 45.1201 41.9476 45.0847 42.3585 44.078C42.7068 43.1685 43.1177 42.3914 43.9483 41.7644C43.6446 41.6054 43.332 41.4465 43.0194 41.3052C44.1359 40.2278 42.9926 38.5677 43.9483 37.402C44.1805 37.7817 44.118 38.7884 44.1716 39.3183C44.1091 37.9319 45.2702 38.6648 45.1987 37.3137C45.2255 37.4815 45.2523 37.6316 45.2791 37.7906L47.6728 28.9422L46.8154 28.4124L49.5663 21.9483C49.1197 20.2528 51.8617 13.2501 52.3708 11.5899L51.9689 11.3868L52.7728 7.05095V7.06861ZM44.1984 39.7598C44.252 40.6164 44.5735 40.3603 44.779 39.6185C44.5646 39.7598 44.3592 40.0424 44.1984 39.7598ZM29.6667 42.9477C29.4523 43.4952 29.3362 44.5196 29.2648 45.1907C29.3987 44.758 29.4881 43.6453 29.7917 43.4775C29.7739 43.0448 29.7471 42.7623 29.6578 42.9565L29.6667 42.9477Z" fill="#F2F2F2"/>
<path d="M16.6011 76.0713C16.4373 81.1227 9.8504 78.1279 7.24838 79.7155C6.77528 79.5892 6.28399 79.5712 5.77451 79.6614C5.77451 79.6614 5.61074 79.3006 5.42878 79.3186C5.31961 79.4449 5.22863 79.5712 5.19224 79.6975C5.15584 79.6614 5.10126 79.6253 5.06486 79.5892C5.10126 79.6794 5.08306 79.7336 5.06486 79.7696C5.17404 80.0944 5.01028 80.383 5.28322 80.6536C5.19224 80.5995 5.08306 80.5634 4.99208 80.5093C5.24682 81.1407 5.10126 81.9886 5.44698 82.5298C5.13765 82.3494 5.24682 82.8726 5.26502 83.2334L4.88291 82.8726C4.99208 83.2695 4.71914 83.3236 4.68275 83.6303C4.64636 83.5762 4.55538 83.3958 4.48259 83.4138C4.4644 83.4679 4.35522 83.8468 4.33703 83.9009L4.66455 83.6844L4.42801 84.5865C4.20965 84.5504 3.73656 84.3519 3.51821 84.4241C3.66378 84.3519 3.79115 84.2978 3.91852 84.2076C3.42723 83.9731 3.24527 84.4963 2.77217 84.2257L2.80857 84.5504C2.06253 84.1354 1.44387 84.1896 0.679639 83.937C0.752422 83.7025 0.861598 83.3958 0.934382 83.1432C0.679639 82.9087 0.352111 82.9448 0.22474 82.5479C0.370307 82.4396 0.606855 82.4938 0.497679 81.9706C0.370307 81.9345 0.333915 82.1329 0.261132 82.2773C0.0973679 81.249 -0.102788 79.9681 0.060976 78.8857C0.242936 79.4449 0.388503 78.6692 0.588659 78.7233L0.461287 77.6589C0.588659 77.9656 0.661443 78.6692 0.89799 79.2465C1.09815 79.0841 1.33469 79.2465 1.51665 79.2465V78.8315C1.51665 78.8315 1.44387 78.7594 1.40748 78.615C1.40748 78.615 1.42567 78.579 1.44387 78.5609C1.44387 78.5068 1.40748 78.4346 1.38928 78.3444C1.42567 78.3083 1.48026 78.2723 1.51665 78.2181C1.51665 78.1279 1.51665 78.0197 1.51665 77.9115V77.0455C1.51665 77.0455 1.38928 77.0636 1.35289 77.0455C1.38928 76.9914 1.44387 76.9192 1.51665 76.8471V70.5148H1.57124C1.57124 70.5148 1.53485 70.5148 1.49846 70.5148C1.46206 70.6231 1.42567 70.7313 1.35289 70.3705C1.35289 70.3705 1.35289 70.3705 1.37109 70.3705C1.91696 70.6411 2.40825 70.4607 2.99053 70.4427C2.99053 70.4427 3.00872 70.4246 3.02692 70.4066C3.02692 70.4066 3.06331 70.4246 3.06331 70.4427C3.79115 70.4066 4.60997 70.4246 5.30141 70.2081C5.21043 70.5148 4.39161 70.4066 4.04589 70.5509H10.1233C11.6154 70.6591 14.7815 70.0458 15.7459 71.5792C15.8915 71.6333 16.037 71.7055 16.1826 71.7957C16.0916 71.7957 16.037 71.8679 15.9642 71.922C16.5829 73.1668 16.2736 74.7724 16.6011 76.1074V76.0713ZM1.18913 76.0172L0.98897 74.5018L1.22552 75.927L1.18913 76.0172ZM3.62738 84.9292L3.71836 84.9834L3.04511 85.1277C3.20888 85.0194 3.44542 85.0916 3.60919 84.9473L3.62738 84.9292ZM3.42723 84.4602C3.42723 84.4602 3.5546 84.5865 3.68197 84.6406C3.24527 84.6045 3.28166 84.5504 3.42723 84.4602ZM3.42723 84.4421C3.42723 84.4421 3.48182 84.4421 3.51821 84.4241C3.48182 84.4241 3.44542 84.4602 3.42723 84.4782C3.42723 84.4782 3.42723 84.4782 3.42723 84.4602V84.4421ZM4.39161 75.3497C4.51899 75.2234 4.62816 75.0791 4.73734 74.9167C4.53718 75.0069 4.53718 75.2054 4.39161 75.3497ZM14.0537 73.239C14.0537 73.0225 13.8899 72.824 13.6716 72.7879C11.7974 73.9064 8.74045 72.824 7.1756 73.9967C6.90266 73.8523 6.53874 73.8523 6.2476 73.9425C6.2476 73.9967 6.19301 73.5637 6.10203 73.5998C6.02925 73.726 5.97466 73.8523 5.93827 73.9786L5.88368 73.8523C5.95647 74.2673 5.46518 73.9064 5.59255 74.2492C5.51976 74.159 5.46518 74.0508 5.39239 73.9606C5.356 74.0688 5.26502 74.0869 5.17404 74.1229C5.21043 74.2853 5.26502 74.4477 5.46518 74.6642C5.15584 74.3755 5.26502 74.592 5.28322 74.7002C5.15584 74.592 5.02847 74.4837 4.9011 74.3755C5.02847 74.592 4.64636 74.3575 4.75553 74.574C4.68275 74.4837 4.59177 74.3575 4.51899 74.3214C4.31883 74.4477 4.82832 74.6642 4.55538 74.7544C4.62816 74.7724 4.71914 74.7904 4.79193 74.8265C4.79193 74.8265 4.79193 74.7904 4.81012 74.7904C4.9193 74.7363 5.02847 74.6822 5.08306 74.6822C5.01028 74.7904 4.70095 74.9528 4.81012 75.0791C4.93749 74.9708 4.97388 74.8806 5.04667 74.7904C5.19224 74.9348 5.356 75.025 5.30141 75.2414C5.30141 75.2414 5.30141 75.2054 5.26502 75.2054C5.08306 75.5481 4.97388 75.5842 4.77373 75.8548C4.81012 75.7646 4.86471 75.6925 4.9193 75.6023C4.71914 75.8548 4.60997 76.0713 4.4462 76.4321C4.4462 76.4321 4.4644 76.4321 4.48259 76.4321C4.51899 76.378 4.55538 76.3058 4.59177 76.2698C4.59177 76.3058 4.57357 76.36 4.57357 76.396C6.06564 75.9811 8.64947 76.5404 10.0869 75.909C10.0324 76.2156 9.59566 76.1074 9.4137 76.2517C10.0869 76.2517 13.0165 76.2517 13.6352 76.2517C14.4176 76.2878 13.9991 74.6461 14.0901 74.2492C14.0173 74.159 13.9263 74.0508 13.8535 73.9606C13.9263 73.9967 14.0173 74.0147 14.0901 74.0147V73.239H14.0537ZM4.66455 83.6844V83.6303L4.70095 83.6664H4.66455V83.6844ZM4.75553 74.6281C4.75553 74.6281 4.75553 74.61 4.73734 74.592C4.73734 74.61 4.77373 74.6281 4.79193 74.6461C4.79193 74.6461 4.79192 74.6461 4.75553 74.6461V74.6281ZM4.77373 74.6281C4.77373 74.6281 4.9011 74.6281 4.95569 74.6281C4.9193 74.7363 4.86471 74.7002 4.77373 74.6281ZM4.77373 69.721L5.51976 69.5226L5.64714 69.8112C5.22863 69.7571 5.06486 69.9556 4.75553 69.721H4.77373ZM5.57435 75.8368C5.70172 75.8007 5.82909 75.7646 5.95647 75.7466C5.71992 75.8368 5.44698 75.909 5.21043 75.9992V75.9631C5.31961 75.909 5.44698 75.8729 5.59255 75.8368H5.57435ZM5.24682 74.7904H5.28322C5.3378 74.8626 5.3742 74.9348 5.42878 75.0069C5.31961 74.9167 5.3742 74.8987 5.24682 74.7904ZM6.30219 80.8881C6.30219 80.8881 6.32039 80.9603 6.37497 81.0686C6.32039 80.9423 6.17482 80.7619 6.19301 80.6536C6.28399 80.816 6.30219 80.816 6.30219 80.8881ZM6.61152 80.365C6.61152 80.365 6.46595 80.5093 6.41137 80.5815C6.39317 80.6356 6.37497 80.5815 6.35678 80.5093C6.35678 80.4732 6.37497 80.4371 6.39317 80.4011C6.39317 80.383 6.50235 80.365 6.61152 80.365ZM6.41137 75.3858C6.41137 75.2415 6.33858 75.043 6.35678 74.9348C6.42956 75.2775 6.35678 74.9528 6.41137 75.3858ZM6.81168 74.6461C6.7207 74.7544 6.7207 75.0069 6.55693 74.7904C6.62972 74.7183 6.7025 74.6461 6.81168 74.6461ZM10.1961 75.2414L10.2689 75.5301C10.0506 75.476 9.95958 75.6744 9.79581 75.4399L10.1961 75.2414ZM13.9263 73.239V73.5637C13.8171 73.5096 13.6716 73.4554 13.526 73.4013C13.6352 73.3111 13.7989 73.0946 13.9263 73.239ZM14.0537 74.0869C14.0537 74.0869 14.0537 74.0869 14.0355 74.1049C14.0355 74.1049 14.0355 74.1229 14.0537 74.141V74.0688V74.0869ZM15.8915 71.7596C15.8915 71.7596 15.8915 71.7235 15.8915 71.7055C15.8915 71.7055 15.8551 71.6875 15.8369 71.6694C15.8551 71.7055 15.8733 71.7235 15.9097 71.7596H15.8915ZM16.8377 72.806C16.6375 73.6719 16.4191 73.1668 16.3827 72.5895C16.5465 72.6436 16.6921 72.7158 16.8377 72.806ZM17.6929 83.6303L17.893 84.388L17.1652 83.9731C17.238 83.8829 17.4017 83.4679 17.5291 83.504L17.4017 82.2773C17.5109 82.5479 17.5655 83.1071 17.7111 83.6484L17.6929 83.6303ZM17.8748 84.388L18.0204 84.4782L17.9112 84.5143L17.8748 84.4061V84.388ZM18.1296 80.365L17.9294 78.615L18.166 80.2567L18.1296 80.365ZM33.7235 80.2387C33.7417 81.5917 33.6871 82.9809 33.6143 84.2978C32.7773 84.3339 31.9403 84.3519 31.1033 84.37C31.0851 83.955 31.0669 83.468 31.0669 83.6123C31.0669 83.5221 31.0851 81.249 31.0305 81.2309C30.8485 81.3392 30.6848 81.3933 30.4846 81.249C30.6484 81.1588 30.8303 81.1227 31.0123 81.1046C31.0123 81.1768 31.0487 81.249 31.0669 81.3211C31.0669 81.1407 31.0851 80.6897 31.0123 80.5093V80.5634C31.0123 80.5634 31.0669 79.3547 31.0669 79.2645H30.9213C30.9213 79.5712 30.9577 80.7799 30.8849 79.7155C30.8849 79.8418 30.8849 80.2567 30.9395 80.365C30.4482 80.365 30.0115 80.383 29.502 80.4191C29.4656 80.5454 29.6112 80.1124 29.1927 80.0763L28.2465 80.4552L28.1737 80.3469C27.7552 80.7619 26.4997 80.4011 26.0266 80.7438L26.0812 80.4552C25.2442 80.7077 24.0432 80.4371 23.279 80.9062C23.3518 80.6175 23.0789 80.6897 22.8969 80.7258C22.8969 80.5995 22.9515 80.4732 22.9879 80.3469C22.7331 80.4732 22.5694 80.0763 22.2964 80.2026C22.351 80.1304 22.4966 80.0583 22.442 79.9681C22.0053 79.7696 22.0053 80.2567 21.5686 80.0042C21.6778 80.1124 21.8051 80.2206 21.9143 80.3289C21.8415 80.2928 21.7688 80.2567 21.7142 80.2387C21.4048 80.4371 21.4958 80.816 21.2957 81.1407C21.514 81.4113 21.8415 81.4654 22.0053 81.7361C21.6778 81.7541 21.6778 81.9706 21.7324 82.2953C21.8597 82.3314 21.8961 82.1149 21.9689 81.9525C22.0963 82.7824 22.2055 84.0272 22.2782 84.9112C21.1137 85.0014 19.5852 85.2179 18.4753 85.0375C19.1485 84.8571 18.166 84.6045 18.0204 84.4602C18.2751 84.388 18.639 84.3159 18.8756 84.2257C18.6936 84.0272 18.8756 83.7927 18.8756 83.6123H18.4207C18.4207 83.6123 18.3479 83.504 18.3115 83.3597C18.4571 83.1252 18.4207 82.8726 18.4025 82.5659V81.5737C18.4025 81.5737 18.2751 81.6098 18.2387 81.5737C18.2751 81.5015 18.3297 81.4294 18.4025 81.3572V78.164H18.2205C18.7664 76.0533 17.7111 73.0044 19.6944 71.3808C20.0947 71.0921 20.5132 70.7494 20.9317 70.5148C20.8772 70.8035 20.1675 71.0741 19.9492 71.3447C19.9856 71.3447 20.0037 71.3447 20.0401 71.3447C20.3131 71.1462 20.6042 71.0019 20.9317 70.8756C20.9317 70.8576 20.9681 70.8035 21.0591 70.6952C21.1137 70.7313 21.1501 70.7494 21.2047 70.7854C21.8051 70.5148 26.9 70.6952 27.646 70.6411C29.866 70.3344 31.8493 71.056 33.1958 72.7699C33.1048 72.7519 33.0321 72.806 32.9775 72.8781C33.5961 75.2054 33.5051 77.7852 33.7053 80.2387H33.7235ZM19.84 71.5251C19.84 71.5251 19.84 71.5251 19.8218 71.5251C19.8218 71.5251 19.8218 71.5251 19.8582 71.5071L19.84 71.5251ZM20.6952 70.2442C20.5314 70.3164 20.3859 70.3705 20.1493 70.3705C20.4404 70.154 20.7498 69.9736 21.0773 69.8112C21.1683 69.8834 21.2411 69.9736 21.3139 70.0458C21.0227 70.0818 20.8408 70.1721 20.677 70.2442H20.6952ZM31.0669 74.4657C31.0669 74.2492 31.0123 74.0327 30.9213 73.8343C30.4846 73.4554 29.9569 73.2209 29.3929 73.4013C27.9554 74.0508 25.6991 72.9864 24.6801 74.1229C24.389 73.9786 24.0432 73.9967 23.5884 74.0688C23.5884 74.1951 23.6429 73.7621 23.4428 73.726C23.3154 73.8162 23.2244 73.9786 23.1516 74.1049L23.1153 73.9967C23.1153 74.3935 22.6604 74.0688 22.7331 74.4116C22.6786 74.3214 22.6422 74.2131 22.5876 74.1229C22.442 74.3935 22.1509 74.5018 22.4238 74.8626C22.2055 74.6642 22.1691 74.7183 22.1873 74.8987C22.0781 74.8085 21.9507 74.7002 21.8597 74.592C21.9325 74.7904 21.5504 74.592 21.6596 74.8085C21.5868 74.7363 21.5322 74.61 21.4412 74.574C21.2229 74.7002 21.7324 74.8987 21.4594 75.025C21.5686 75.043 21.6778 75.0791 21.7869 75.0971C21.4594 75.1693 21.4412 75.4579 21.2775 75.6925C21.5322 75.8187 21.8597 75.8007 21.9871 76.0172C21.8415 76.0713 21.605 76.0352 21.7142 76.3419C21.8415 76.3419 21.8779 76.2517 21.9507 76.1796C21.9871 76.3058 22.0235 76.4502 22.0599 76.5945C22.1509 76.5584 22.2782 76.5404 22.3692 76.5223C22.2964 76.5404 22.1327 76.5945 22.0599 76.6125C22.0963 76.7388 22.1327 76.8831 22.1509 77.0094C22.351 77.0094 23.2972 77.0094 24.5891 77.0094C24.389 76.9553 24.2252 76.9373 24.5891 76.8471C24.6983 76.8831 24.8075 76.9373 24.8985 76.9914C25.4443 76.8471 26.1722 76.9553 26.6635 76.6667C26.6453 76.811 26.5361 76.8651 26.4087 76.8831C26.4451 76.9192 26.4815 76.9553 26.5179 77.0094C28.7196 77.0094 30.9395 77.0094 31.0305 77.0094V75.476L30.794 75.2595C30.794 75.2595 30.9577 75.2595 31.0305 75.2595V74.4837L31.0669 74.4657ZM21.696 74.8626C21.696 74.8626 21.696 74.8446 21.6778 74.8265C21.6778 74.8446 21.7142 74.8626 21.7324 74.8806C21.7324 74.8806 21.7324 74.8806 21.7142 74.8806L21.696 74.8626ZM21.8233 74.9528C21.8233 74.9528 21.7506 74.9167 21.7142 74.8806C21.7869 74.9167 21.8415 74.8806 21.8961 74.8806C21.8961 74.9348 21.8597 74.9528 21.8233 74.9528ZM22.2418 75.0069C22.2418 75.0069 22.3328 75.1512 22.3874 75.2054C22.2782 75.1152 22.3328 75.0971 22.2055 75.0069C22.2055 75.0069 22.2418 75.0069 22.26 75.0069H22.2418ZM22.26 80.2567C22.26 80.2567 22.4238 80.383 22.5512 80.4371C22.26 80.4011 22.2237 80.3469 22.26 80.2567ZM22.26 80.2387C22.26 80.2387 22.2964 80.2387 22.3146 80.2206C22.3146 80.2206 22.2964 80.2567 22.2782 80.2748C22.2782 80.2748 22.2782 80.2748 22.2782 80.2387H22.26ZM22.6786 80.7258L22.7513 80.7799C22.7513 80.7799 22.6058 80.8701 22.5512 80.9242C22.5512 80.816 22.6967 80.8701 22.6786 80.7438V80.7258ZM23.5884 75.061C23.7703 75.5121 23.6429 75.025 23.4974 75.494C23.5338 75.3317 23.37 75.1332 23.5884 75.061ZM24.3344 74.7724C24.2434 74.8806 24.2434 75.1332 24.0614 74.9167C24.1342 74.8446 24.207 74.7724 24.3344 74.7724ZM26.3905 76.8831C26.245 76.9192 26.0994 76.9192 26.0084 76.9914H26.1904C26.1904 76.9914 26.2632 76.9373 26.3905 76.8831ZM26.8272 75.9992L26.9 76.2878C26.6635 76.2337 26.5907 76.4321 26.4087 76.1976L26.8272 75.9992ZM29.502 81.4113C29.8841 81.8623 29.6112 81.3752 29.3201 81.8443C29.3929 81.6819 29.0653 81.5015 29.502 81.4113ZM30.9213 74.4657V74.8085L30.521 74.6642C30.6484 74.5018 30.8121 74.3214 30.9213 74.4657ZM30.9759 80.4552V80.5273C30.9759 80.5273 30.9577 80.4371 30.9395 80.383H30.9577C30.9577 80.383 30.9577 80.4371 30.9577 80.4552H30.9759ZM31.0669 75.3316C31.0669 75.3316 31.0669 75.3497 31.0487 75.3677V75.4038L31.0669 75.3316ZM32.9229 72.7338C32.9229 72.7338 32.9229 72.6977 32.9229 72.6617C32.9229 72.6617 32.8865 72.6256 32.8683 72.6256C32.8865 72.6617 32.9047 72.6977 32.9229 72.7338ZM33.8509 73.9786C33.6325 74.9528 33.4324 74.3394 33.396 73.726C33.5597 73.7982 33.7053 73.8884 33.8509 73.9786ZM52.0468 83.9009C50.8641 83.9911 49.645 84.0633 48.4622 84.1174C48.4076 83.0711 48.3713 81.9706 48.3894 80.9242C48.6988 79.4629 48.0801 78.3805 46.7336 79.6253C46.0058 79.4088 45.3507 79.5531 44.5319 79.5712C44.6411 78.8676 43.5129 79.5351 43.2036 79.6073L43.1308 79.499C42.7669 79.932 41.6387 79.481 41.2202 79.8959C41.2202 79.8057 41.202 79.6975 41.1838 79.6073C40.9109 79.7336 40.547 79.7336 40.274 79.8057C40.3104 80.0222 40.3832 80.2387 40.5288 80.4191C40.2559 80.1304 40.3104 80.4732 40.3468 80.6717C40.2195 80.5815 40.0921 80.4552 39.9647 80.3109C40.0921 80.5995 39.6918 80.6175 39.8191 80.9242C39.7464 80.834 39.6918 80.6356 39.5826 80.6175C39.3824 81.0505 39.8919 81.2129 39.619 81.7902L39.9465 81.7361C39.528 82.602 39.6008 83.2875 39.3279 84.1896C39.1095 84.1174 38.8002 84.0092 38.5636 83.955C38.2725 84.2076 38.3271 84.5323 37.854 84.6586C37.7266 84.5143 37.7994 84.2798 37.1443 84.388C37.1079 84.5143 37.3263 84.5504 37.5083 84.6226C36.9442 84.6947 35.9616 84.803 35.3793 84.8751C35.2156 83.4138 34.9244 81.6819 35.1246 80.2387C35.3065 80.9242 35.4521 79.9681 35.6523 80.0402L35.5249 78.7413C35.6523 79.1021 35.7251 79.9681 35.9616 80.6356C36.1618 80.4552 36.3983 80.6356 36.5803 80.6356V80.1304C36.5803 80.1304 36.5075 80.0402 36.4711 79.8779C36.5985 79.6433 36.5803 79.3727 36.5621 79.048V78.0017C36.5621 78.0017 36.4347 78.0377 36.3983 78.0197C36.4347 77.9475 36.4893 77.8754 36.5621 77.7852V70.4066C37.1807 70.4427 37.854 70.3344 38.4726 70.3164C38.4726 70.2983 38.509 70.2623 38.6182 70.2442C39.4916 70.3885 40.5652 70.2442 41.4204 70.0638C41.3294 70.2983 40.7471 70.2983 40.274 70.3344C40.2922 70.3525 40.3286 70.3705 40.3468 70.4066C44.3681 70.4607 52.3562 69.1618 51.4828 75.5842C51.4282 75.5121 51.3372 75.5121 51.2462 75.5121C51.1006 76.0172 50.8459 76.4682 50.5366 76.8651C52.1196 78.7774 51.6647 81.5376 52.0286 83.8829L52.0468 83.9009ZM36.2891 76.7569L36.089 74.9167C36.089 74.9167 36.3983 76.7388 36.2891 76.7569ZM49.1355 74.3935C49.1355 74.1771 49.0991 73.9786 49.0263 73.7982C47.698 72.4812 45.751 73.8343 44.1134 73.3472C43.7495 73.4013 43.3128 73.4915 43.24 73.8884C42.967 73.7441 42.6395 73.7621 42.2028 73.8343C42.2028 73.9606 42.2574 73.5276 42.0573 73.4915L41.6387 73.8704L41.6023 73.7621C41.6023 73.7621 41.5296 73.8884 41.4568 73.9245C41.3476 74.0688 41.0929 73.8884 41.0929 74.159C41.0747 74.0688 41.0383 73.9606 41.0201 73.8704C40.8927 74.0869 40.5106 73.9425 40.6744 74.3214C40.456 74.0147 40.4196 74.1229 40.365 74.141C40.274 74.0147 40.1831 73.8884 40.1103 73.7802C40.0739 73.9064 39.6918 73.4554 39.7828 73.7441C39.71 73.6178 39.6372 73.4915 39.5462 73.4013C39.3461 73.4194 39.8555 73.8523 39.5826 73.8523L39.9101 74.1049C39.6008 73.9967 39.6008 74.2131 39.4006 74.3575C39.619 74.5379 39.9465 74.6642 40.1103 74.8446C40.0193 74.8446 39.7282 74.7183 39.8373 74.9348C39.9647 74.9708 40.0011 74.9348 40.0739 74.8987C40.0739 74.8987 40.0739 74.9167 40.0739 74.9348C39.9465 75.0791 39.8555 75.2775 39.7282 75.4038C39.7646 75.476 39.8191 75.5481 39.8555 75.5842C39.6918 75.6564 39.619 75.494 39.4188 75.5301C39.2369 75.7646 39.0367 75.927 38.8184 76.1074C38.8184 76.1796 38.8184 76.2517 38.8184 76.3239C38.8366 76.3239 38.873 76.3239 38.8912 76.3239C39.0003 76.36 39.1095 76.378 39.2187 76.396C39.2551 76.3419 39.2915 76.2878 39.3279 76.2517C39.2915 76.3058 39.2551 76.36 39.2187 76.396C39.2369 76.396 39.2733 76.396 39.2915 76.396C39.7646 76.1435 40.0193 76.1254 40.5834 76.1254C40.638 76.0894 40.7471 76.0713 41.0565 75.9992C41.7297 76.2698 42.7851 76.0172 43.4765 75.7827C43.4401 76.0894 43.0216 75.9811 42.8215 76.1254C46.2241 75.8548 47.3887 76.8471 48.7898 75.3136C48.7534 75.2054 48.717 75.1152 48.6624 75.025C48.717 75.0791 48.808 75.0971 48.8807 75.1332C48.9899 74.9167 49.0445 74.6642 49.0445 74.4116L49.1355 74.3935ZM39.4552 76.1796L39.4188 76.2337C39.5462 76.0533 39.7282 75.909 39.9101 75.8007C39.7646 75.909 39.6008 76.0352 39.4734 76.1976L39.4552 76.1796ZM39.8373 73.7621C39.8373 73.7621 39.8373 73.726 39.8191 73.708C39.8191 73.7441 39.8555 73.7621 39.8737 73.7802C39.8737 73.7802 39.8737 73.7802 39.8373 73.7441V73.7621ZM39.8373 80.9784C39.8373 80.9784 39.8373 80.9423 39.8191 80.9062C39.8191 80.9423 39.8555 80.9603 39.8737 80.9784C39.8737 80.9784 39.8737 80.9784 39.8373 80.9784ZM39.8737 73.7982C39.8737 73.7982 40.0011 73.8704 40.0557 73.8884C40.0193 73.9786 39.9647 73.9245 39.8737 73.7982ZM39.8919 81.0325C39.8919 81.0325 39.8737 80.9964 39.8555 80.9784C39.9283 80.9784 39.9829 80.8881 40.0375 80.7979C40.0375 80.9062 40.0011 81.1948 39.8919 81.0144V81.0325ZM39.9101 70.4066H40.0375C40.0375 70.4066 40.0375 70.3885 40.0739 70.3705C40.0193 70.3705 39.9647 70.3885 39.9101 70.4066ZM40.3104 75.2234C40.2558 75.1152 40.2013 75.0069 40.1467 74.8987C40.2013 74.8265 40.2558 74.7904 40.3286 74.7544C40.3286 74.7363 40.3286 74.7002 40.3468 74.6822C40.3468 74.8806 40.3468 75.061 40.3468 75.2595C40.3468 75.2595 40.3468 75.2234 40.3286 75.2234H40.3104ZM40.3832 74.1951C40.4378 74.2853 40.4742 74.3755 40.5288 74.4657C40.4196 74.3214 40.4742 74.3394 40.3468 74.1771H40.3832V74.1951ZM40.456 81.0144L40.5288 81.4113C40.4196 81.249 40.5288 80.9964 40.3468 80.8701L40.3832 80.834C40.3832 80.834 40.4378 80.9603 40.456 81.0144ZM40.3468 74.7002C40.3468 74.592 40.3468 74.4657 40.3468 74.3575C40.3832 74.4477 40.4014 74.5379 40.3468 74.7002ZM40.8017 69.6128L41.7115 69.4144L41.8753 69.703C41.3658 69.6489 41.1838 69.8473 40.8199 69.6128H40.8017ZM42.221 74.8085C42.403 75.2775 42.2574 74.7544 42.13 75.2595C42.1846 75.0971 42.0027 74.8806 42.221 74.8085ZM42.9125 74.5379C42.8215 74.6461 42.8215 74.8987 42.6577 74.6822C42.7305 74.61 42.7851 74.5379 42.9125 74.5379ZM43.6767 75.1332L43.7495 75.4219C43.5311 75.3677 43.4583 75.5662 43.2946 75.3316L43.6767 75.1332ZM44.5319 80.5454C44.9322 80.9964 44.6411 80.5093 44.3499 80.9784C44.4409 80.816 44.077 80.6356 44.5319 80.5454ZM44.3136 80.9964C44.3136 80.9964 44.3136 80.9964 44.3136 80.9784C44.3136 80.9784 44.3136 80.9784 44.3136 80.9964ZM46.1331 80.2567C45.933 80.365 45.9148 80.6175 45.5509 80.4011C45.6964 80.3289 45.8602 80.2567 46.1331 80.2567ZM49.0081 74.3935C49.0081 74.4837 49.0081 74.61 49.0081 74.7002C48.8807 74.6281 48.7534 74.574 48.6078 74.5198C48.7352 74.4657 48.8807 74.2492 49.0081 74.3755V74.3935ZM48.9535 75.1873C48.9535 75.1873 48.9353 75.1873 48.9171 75.1873C48.9171 75.1873 48.9171 75.2054 48.9171 75.2234C48.9171 75.2234 48.9353 75.1873 48.9535 75.1693V75.1873ZM50.6457 76.7929L50.7185 76.8651C50.7185 76.8651 50.6821 76.9192 50.6457 76.9553V76.7929ZM50.7185 76.8831C50.7185 76.8831 50.8095 76.7569 50.8459 76.6847V76.6125C50.8459 76.6125 50.8459 76.6486 50.8459 76.6667C50.8823 76.5945 50.9187 76.5404 50.9551 76.4682C51.0279 76.6306 51.0824 76.7929 51.1188 76.9733C51.0279 77.0455 50.9369 77.0996 50.8459 77.1538V76.9733C50.8459 76.9733 50.7185 76.9192 50.6821 76.8831H50.7185ZM51.319 75.3497C51.319 75.3497 51.3372 75.3136 51.3554 75.2956C51.3554 75.2775 51.3554 75.2414 51.3554 75.2234C51.3554 75.2595 51.3372 75.3136 51.319 75.3497ZM70.0608 83.9009C66.3671 84.5504 61.9454 84.2978 58.1789 84.5684C57.2873 84.6225 56.4503 84.0994 55.6314 83.5401C56.0317 83.0169 54.9036 82.8185 54.5761 82.4396C54.5761 82.4036 54.6125 82.3494 54.6307 82.3134C53.7573 81.8623 53.9028 80.6356 53.5389 79.8779C53.6299 79.8959 53.7391 79.914 53.83 79.932C53.6117 79.1021 53.7572 77.9295 53.3751 77.262C53.6845 77.4604 53.5753 76.9012 53.5571 76.5223L53.9392 76.9012C53.8118 76.4321 54.194 76.4682 54.0848 75.9811C54.1576 76.1435 54.2485 76.36 54.3213 76.3239C54.5215 75.7646 54.012 75.6925 54.2849 75.1873L53.9574 75.2414C54.3577 74.5198 54.194 74.3935 54.4669 73.5456C54.2122 73.2931 53.8846 73.3472 53.7572 72.9323C53.9028 72.824 54.1394 72.8781 54.0302 72.3189C53.9028 72.2828 53.8664 72.4812 53.7936 72.6436C53.6117 71.5973 53.5025 70.1179 53.4843 68.9994C54.3031 68.9814 55.6132 68.8551 56.3775 68.9994C55.777 69.1798 56.614 69.3241 56.5412 69.5226C56.8506 69.4865 57.542 69.3963 57.8513 69.3783C57.2509 69.5226 56.6322 69.5948 55.9954 69.8293C56.1591 70.0277 55.9954 70.2623 55.9954 70.4427H56.4321C56.4321 70.4427 56.5048 70.3705 56.6504 70.3344C56.8506 70.4607 57.0689 70.4427 57.3237 70.4246C57.3237 70.4427 57.3237 70.4787 57.3237 70.4968V71.3988C57.3237 71.3988 57.451 71.3808 57.4874 71.3988C57.451 71.4529 57.3964 71.5251 57.3237 71.5973V78.7233C57.3782 78.5248 57.3964 78.2723 57.5056 78.6511C57.4692 78.7774 57.4146 78.8676 57.3419 78.9578C57.3964 79.3186 57.4146 79.6614 57.4146 80.0402C57.4146 80.0402 57.451 80.0402 57.451 80.0583H57.4146C57.4328 80.5634 57.4328 81.1227 57.5602 81.5737C58.1607 81.267 58.9613 81.3572 59.7801 81.3392C62.1092 81.285 65.6028 81.1948 67.1859 81.0866C67.6044 81.0686 67.9865 80.9603 68.3322 80.8701C68.2412 80.8881 68.314 81.0325 68.3322 81.1046H69.8425C69.8061 81.4835 69.8425 82.0427 69.8971 82.584C69.8971 82.7102 69.4786 82.584 69.4968 82.7283C69.4968 82.8726 70.0972 83.1252 70.1154 83.2515C70.1336 83.4679 70.0426 83.7566 70.0608 83.9009ZM53.5207 76.1976L53.3751 75.494C53.4843 75.6744 53.4115 75.909 53.5571 76.0894L53.5207 76.1976ZM54.0484 75.8729C54.0484 75.8729 53.921 76.0172 53.8664 76.1435C53.9028 75.6925 53.9574 75.7105 54.0484 75.8729ZM54.0484 75.8729C54.0484 75.8729 54.0484 75.8729 54.0666 75.8729C54.0666 75.909 54.0666 75.927 54.0848 75.9631C54.0848 75.927 54.0484 75.8909 54.0302 75.8729H54.0484ZM54.4851 84.4421C54.4851 84.4421 54.5033 84.4421 54.5215 84.4421C54.5215 84.4421 54.5033 84.4421 54.4851 84.4421ZM55.1038 84.6045C55.1038 84.6045 54.7216 84.388 54.5215 84.4421C54.667 84.2437 54.667 84.0272 55.0128 84.2798C55.031 84.4061 55.0674 84.4963 55.1038 84.5865V84.6045ZM54.8672 70.4607H54.8126L54.849 70.4968C54.849 70.4968 54.849 70.4787 54.849 70.4607H54.8672ZM56.3047 84.8932C56.523 84.8932 56.7414 84.9112 57.1053 85.0194C56.7596 85.0736 56.6504 85.254 56.3047 84.8932ZM57.4328 81.6459C57.3783 81.4113 57.3964 81.1227 57.3055 80.8881V81.9165C57.3419 81.8263 57.3964 81.7361 57.4328 81.6459ZM57.3237 81.9345C57.3237 81.9345 57.3237 81.9345 57.3055 81.9345V82.0247C57.3055 82.0247 57.3055 81.9525 57.3237 81.9345ZM57.5784 72.5714L57.6148 72.4632L57.815 74.0688L57.5784 72.5714ZM58.1061 80.6897C58.1061 80.6897 58.1789 80.7799 58.1971 80.834C58.1425 80.8881 58.1061 80.9423 58.0515 80.9964C58.0515 81.0686 58.0333 81.1588 58.0151 81.2309C57.9787 81.0505 57.9605 81.0144 58.1061 80.7077V80.6897ZM58.2698 70.3885L58.0333 69.3061H58.1971C58.2335 69.5406 58.3426 70.5148 58.379 70.7494C58.3426 70.6591 58.3062 70.5329 58.288 70.3885H58.2698ZM58.2153 80.816L58.3244 80.6897C58.3244 80.6897 58.288 80.816 58.2698 80.8701C58.2698 80.8701 58.2335 80.834 58.2153 80.816ZM68.2048 81.0866C68.2048 81.0866 68.1684 81.0866 68.1503 81.0686H68.0957L68.223 81.0866H68.2048ZM69.8607 80.9603H69.1874L69.4604 80.5634C69.7697 80.6897 70.1336 80.8521 69.8607 80.9603ZM87.347 84.0813L87.2014 84.1715L87.3106 84.2076L87.347 84.0994V84.0813ZM87.0741 80.365L87.2742 78.615L87.0377 80.2567L87.0741 80.365ZM71.4983 80.2387C71.4801 81.5917 71.5347 82.9809 71.6075 84.2978C72.4445 84.3339 73.7728 84.37 74.6098 84.388C74.628 83.9731 74.6462 83.486 74.6462 83.6303C74.6462 83.5401 74.628 81.267 74.6826 81.249C74.8646 81.3572 75.0283 81.4113 75.2285 81.267C75.0647 81.1768 74.8828 81.1407 74.7008 81.1227C74.7008 81.1948 74.6644 81.267 74.6462 81.3392C74.6462 81.1588 74.628 80.7077 74.7008 80.5273V80.5815C74.7008 80.5815 74.8282 80.2748 74.7554 80.383C75.2467 80.383 75.1921 80.383 75.6834 80.4191C75.7198 80.5454 75.5742 80.1124 75.9927 80.0763L77.1391 80.2928L77.321 80.1124C77.7395 80.5273 78.8859 80.0763 79.359 80.4371L79.7229 80.1304C80.5599 80.383 80.9238 80.0763 81.688 80.5454C81.6153 80.2567 81.9064 80.5454 82.0884 80.5634C82.0884 80.4371 82.2521 80.4732 82.1975 80.3469C82.4523 80.4732 82.616 80.0763 82.889 80.2026C82.8344 80.1304 83.0709 80.2567 83.1255 80.1665C83.5622 79.9681 83.1983 80.2567 83.635 80.0042C83.5258 80.1124 83.3985 80.2206 83.2893 80.3289C83.3621 80.2928 83.4349 80.2567 83.4894 80.2387C83.7988 80.4371 83.4894 80.8882 83.7078 81.2129C83.4894 81.4835 83.8352 81.9706 83.7624 81.8082C83.635 82.6381 83.5622 83.937 83.4894 84.821C84.654 84.9112 85.6002 84.9112 86.7283 84.7308C86.0551 84.5504 87.0377 84.2978 87.1832 84.1535C86.9285 84.0813 86.5646 84.0092 86.328 83.919C86.51 83.7205 86.328 83.486 86.328 83.3056H86.7829C86.7829 83.3056 86.8557 83.1973 86.8921 83.053C86.7465 82.8185 86.7829 82.5659 86.8011 82.2592V81.5556C86.8011 81.5556 86.9285 81.5917 86.9649 81.5556C86.9285 81.4835 86.8739 81.4113 86.8011 81.3392V78.146H86.9831C86.4372 76.0352 87.4926 72.9864 85.5092 71.3627C85.1089 71.0741 84.6904 70.7313 84.2719 70.4968C84.3265 70.7854 85.0361 71.056 85.2544 71.3266C85.2181 71.3266 85.1999 71.3266 85.1635 71.3266C84.8905 71.1282 84.5994 70.9839 84.2719 70.8576C84.2719 70.8396 84.2355 70.7854 84.1445 70.6772C84.0899 70.7133 84.0535 70.7313 83.9989 70.7674C83.3985 70.4968 78.3036 70.6772 77.5576 70.6231C75.3377 70.3164 73.3543 71.038 72.0078 72.7519C72.0988 72.7338 72.1716 72.7879 72.2262 72.8601C71.6075 75.1873 71.6985 77.7671 71.4983 80.2206V80.2387ZM85.3636 71.5251C85.3636 71.5251 85.3636 71.5251 85.3818 71.5251C85.3818 71.5251 85.3818 71.5251 85.3454 71.5071L85.3636 71.5251ZM84.5266 70.2442C84.6904 70.3164 84.8359 70.3705 85.0725 70.3705C84.7814 70.154 84.472 69.9736 84.1445 69.8112C84.0535 69.8834 83.9807 69.9736 83.908 70.0458C84.1991 70.0818 84.381 70.1721 84.5448 70.2442H84.5266ZM74.8282 74.5379C74.8282 74.3214 74.8828 74.1049 74.9737 73.9064C75.5378 73.8162 76.5022 73.6539 77.1027 73.726C78.4128 73.8704 76.8661 73.0044 80.5417 74.141C80.851 74.2312 81.1786 74.0147 81.6335 74.0869C81.6335 74.2131 81.5789 73.7802 81.779 73.7441C81.9064 73.8343 82.1247 73.5637 82.1975 73.69L82.2339 73.5817C82.2339 73.9786 82.6888 73.6539 82.616 73.9967C82.6706 73.9064 82.707 73.7982 82.7616 73.708C82.9072 73.9786 83.1983 74.0869 82.9254 74.4477C83.1437 74.2492 83.1801 74.3033 83.1619 74.4837C83.2711 74.3935 83.2711 74.7183 83.3621 74.61C83.2893 74.8085 83.6714 74.61 83.5622 74.8265C83.635 74.7544 83.6896 74.6281 83.7806 74.592C83.9989 74.7183 83.4894 74.9167 83.7624 75.043C83.6532 75.061 83.544 75.0971 83.4349 75.1152C83.7624 75.1873 83.7806 75.476 83.9443 75.7105C83.6896 75.8368 83.3621 75.8187 83.2347 76.0352C83.3803 76.0894 83.6168 76.0533 83.5076 76.36C83.3803 76.36 83.3439 76.2698 83.2711 76.1976C83.2347 76.3239 83.1983 76.4682 83.1619 76.6125C83.0709 76.5765 82.9436 76.5584 82.8526 76.5404C82.9254 76.5584 83.0891 76.6125 83.1619 76.6306C83.1255 76.7569 83.0891 76.9012 83.0709 77.0275C82.8708 77.0275 81.9246 77.0275 80.6327 77.0275C80.8328 76.9733 80.9966 76.9553 80.6327 76.8651C80.5235 76.9012 80.4143 76.9553 80.3234 77.0094C79.7775 76.8651 79.0496 76.9734 78.5583 76.6847C78.5765 76.829 78.6857 76.8831 78.8131 76.9012C78.7767 76.9373 78.7403 76.9733 78.7039 77.0275C76.5022 77.0275 74.9555 77.0996 74.8646 77.0996V75.5662L75.1011 75.3497C75.1011 75.3497 74.9373 75.3497 74.8646 75.3497V74.574L74.8282 74.5379ZM83.5258 74.8626C83.5258 74.8626 83.5258 74.8446 83.544 74.8265C83.544 74.8446 83.5076 74.8626 83.4894 74.8806C83.4894 74.8806 83.4894 74.8806 83.5076 74.8806L83.5258 74.8626ZM83.3985 74.9528C83.3985 74.9528 83.4713 74.9167 83.5076 74.8806C83.4349 74.9167 83.3803 74.8806 83.3257 74.8806C83.3257 74.9348 83.3621 74.9528 83.3985 74.9528ZM82.9618 80.2567C82.9618 80.2567 82.798 80.383 82.6706 80.4371C82.9618 80.4011 82.9982 80.3469 82.9618 80.2567ZM82.9618 80.2206C82.9618 80.2206 82.9254 80.2206 82.9072 80.2026C82.9072 80.2026 82.9254 80.2387 82.9436 80.2567C82.9436 80.2567 82.9436 80.2567 82.9436 80.2206H82.9618ZM82.3431 80.5634L82.2703 80.6175C82.2703 80.6175 82.4159 80.7077 82.4705 80.7619C82.4705 80.6536 82.3249 80.7077 82.3431 80.5815V80.5634ZM81.6153 75.061C81.4333 75.5121 81.5607 75.025 81.7062 75.494C81.6699 75.3317 81.8336 75.1332 81.6153 75.061ZM80.8874 74.7724C80.9784 74.8806 80.9784 75.1332 81.1604 74.9167C81.0876 74.8446 81.0148 74.7724 80.8874 74.7724ZM78.8313 76.8831C78.9769 76.9192 79.1224 76.9192 79.2134 76.9914H79.0314C79.0314 76.9914 78.9587 76.9373 78.8313 76.8831ZM78.3946 75.9992L78.3218 76.2878C78.5583 76.2337 78.6311 76.4321 78.8131 76.1976L78.3946 75.9992ZM75.7198 81.4113C75.3377 81.8623 75.6106 81.3752 75.9017 81.8443C75.8289 81.6819 76.1565 81.5015 75.7198 81.4113ZM74.9555 74.5379V74.8806L75.3559 74.7363C75.2285 74.574 75.0647 74.3935 74.9555 74.5379ZM74.7372 80.4732V80.5454C74.7372 80.5454 74.7554 80.4552 74.7736 80.4011H74.7554C74.7554 80.4011 74.7554 80.4552 74.7554 80.4732H74.7372ZM74.8282 75.4038C74.8282 75.4038 74.8282 75.4219 74.8464 75.4399V75.476L74.8282 75.4038ZM72.2989 72.7338C72.2989 72.7338 72.2989 72.6977 72.2989 72.6617C72.2989 72.6617 72.3353 72.6256 72.3535 72.6256C72.3353 72.6617 72.3171 72.6977 72.2989 72.7338ZM71.3709 73.9786C71.5893 74.9528 71.7894 74.3394 71.8258 73.726C71.6621 73.7982 71.5165 73.8884 71.3709 73.9786ZM102.559 69.8834C103.341 70.1901 102.941 70.3344 102.45 70.2983C102.45 70.3344 102.431 70.3705 102.413 70.4066H102.941C100.939 72.824 99.3381 75.7105 97.0818 78.0017C97.0818 78.8676 96.8271 80.6356 97.5549 81.0505C97.4093 81.5737 97.4276 82.2051 97.5003 83.0169C97.6277 83.053 97.191 82.9267 97.1546 83.2875C97.1728 83.3236 97.3366 83.6844 97.373 83.7386C96.9363 83.937 96.0083 84.37 95.5898 84.5684L95.5352 84.4421C95.0075 84.839 93.6246 84.6226 92.915 84.839C92.8422 84.5323 92.7694 83.1793 92.5692 82.9448L92.8604 82.9989C92.642 82.2051 92.7876 81.0866 92.4055 80.4552C92.7148 80.6356 92.6056 80.1124 92.5874 79.7516L92.9695 80.1124C92.8422 79.6614 93.2243 79.6975 93.1151 79.2284C93.1879 79.3908 93.2789 79.5892 93.3517 79.5712C93.5518 79.1202 93.0423 78.9217 93.3153 78.5429C93.2061 78.5609 93.0969 78.579 92.9877 78.597C93.1697 78.3986 93.2425 78.2362 93.2971 78.0017C93.2061 77.8213 93.1515 77.695 93.0787 77.4604C92.7512 77.4965 92.5146 77.7311 92.1689 77.5326C92.2053 77.3522 92.4237 77.2439 91.9688 76.9192C91.8596 76.9733 91.9688 77.1357 92.0051 77.2981C91.1863 76.6306 90.1674 75.8187 89.5669 74.8987C90.0946 75.2054 89.6579 74.5198 89.8398 74.4296L89.021 73.726C89.3304 73.8704 89.858 74.3575 90.4221 74.61C90.4585 74.3575 90.7314 74.3214 90.8952 74.2131L90.6223 73.9064C90.6223 73.9064 90.5131 73.9064 90.4039 73.8162C90.3675 73.5817 90.2038 73.4374 90.0036 73.239L89.4395 72.6075C89.4395 72.6075 89.3849 72.7699 89.3667 72.8421C89.3121 72.8601 89.2576 72.8781 89.1848 72.8962C89.2212 72.8601 89.294 72.824 89.3667 72.7879C89.3667 72.7338 89.3849 72.6977 89.3849 72.6256C89.3486 72.6617 89.3303 72.6977 89.3121 72.6977C89.3121 72.6617 89.3121 72.6256 89.3121 72.5714C88.8391 72.6075 88.1294 72.7158 87.7291 72.5354C87.5471 72.6256 87.5107 72.7158 87.4744 72.7879L88.0202 71.5792L87.6017 71.2184C87.6017 71.2184 87.5471 71.3627 87.4744 71.4169L87.5654 71.2004L87.3106 70.9839L87.5654 71.1823L87.7655 70.7494L87.4562 70.4246H87.9111L88.2204 69.7571C88.2204 69.7571 88.4024 69.8654 88.5479 70.0458L88.0384 70.3525C88.2204 70.3164 88.3478 70.3525 88.4388 70.4246H88.5297L89.2394 68.8371C89.2394 68.8371 89.4213 68.801 89.6579 68.9633L89.5851 69.3963C89.9854 69.703 90.0764 70.0097 90.5859 70.2623L90.4585 69.8473C90.8952 70.5329 91.6049 70.8937 91.8232 71.5973L91.9324 71.5431C92.3145 72.2648 93.0605 73.0946 93.7338 73.4374C93.5336 73.5817 93.1697 73.1487 92.8604 72.8962C93.0787 73.275 94.9347 75.2415 95.2258 75.5842C95.8081 74.9528 99.2653 71.1282 99.9204 70.4066H101.14C101.14 70.4066 101.522 70.1901 101.558 70.154C101.522 70.2262 101.54 70.3164 101.558 70.4066H102.268C102.268 70.4066 102.322 70.3344 102.359 70.2983L102.632 69.8834H102.559ZM88.2932 71.3627L88.1294 71.1823L88.0566 71.3447C87.8201 71.3447 87.6199 71.2725 87.5835 71.1823C87.8565 71.1282 87.6563 70.9839 87.8747 70.9117C87.6381 70.9658 87.5835 71.0741 87.5471 71.1823L87.9839 71.5251L88.0566 71.3447C88.0566 71.3447 88.2022 71.3447 88.2932 71.3447V71.3627ZM92.5328 79.4449L92.3873 78.7774C92.4964 78.9398 92.4237 79.1743 92.5692 79.3547L92.5328 79.4449ZM93.0423 79.1382C93.0423 79.1382 92.9332 79.2645 92.8604 79.3908C92.8968 78.9578 92.9513 78.9939 93.0423 79.1382ZM93.0423 79.1382C93.0423 79.1382 93.0423 79.1382 93.0605 79.1382C93.0605 79.1743 93.0605 79.1923 93.0787 79.2284C93.0787 79.1923 93.0423 79.1562 93.0241 79.1382H93.0423ZM93.752 72.8962C93.752 72.8962 93.752 72.824 93.7338 72.7699C93.8793 72.8781 94.0613 72.9683 94.2251 73.0405C94.1887 73.1307 94.1523 73.239 94.1159 73.3472C93.9885 73.1307 93.8066 73.1307 93.752 72.8962ZM98.3373 82.169C98.2646 82.0427 98.1918 81.9165 98.1918 81.6819C98.301 81.8443 98.5557 81.8623 98.3373 82.169ZM98.9196 83.1793C98.7559 83.1071 98.5557 83.3958 98.4829 83.035C98.9378 82.7102 98.4465 82.9448 98.9196 83.1793ZM101.231 70.4066H101.34C101.34 70.4066 101.303 70.4066 101.285 70.3885H101.231V70.4066Z" fill="#F2F2F2"/>
</svg>
