<svg width="246" height="29" viewBox="0 0 246 29" fill="none" xmlns="http://www.w3.org/2000/svg">
<path d="M25.3294 0.129305C25.4951 0.18754 25.6591 0.260347 25.8297 0.304024C27.6541 0.773144 28.4432 2.28403 28.5171 3.70272C28.5253 3.84992 28.5253 3.99713 28.5253 4.14433C28.5253 10.7897 28.5253 17.435 28.5269 24.0803C28.5269 24.674 28.4957 25.2612 28.2595 25.816C27.6804 27.1716 26.6402 27.9336 25.1538 28.1002C24.8831 28.1309 24.6091 28.1261 24.3351 28.1261C17.63 28.1277 10.9232 28.1277 4.21801 28.1277C3.44692 28.1277 2.69552 28.0646 1.9999 27.6796C1.21733 27.2477 0.669368 26.6281 0.328122 25.8193C0.234607 25.5961 0.244451 25.3566 0.211639 25.1156C0.0656243 25.1754 0.100077 25.3243 0 25.3793V2.86155C0.104999 2.90684 0.0639837 3.04918 0.177186 3.1333C0.247732 2.77742 0.300231 2.44902 0.454449 2.14813C0.933506 1.21313 1.6767 0.595216 2.71029 0.318597C2.83333 0.286244 2.99575 0.307245 3.03184 0.127686C10.4638 0.127686 17.8974 0.127686 25.3294 0.127686V0.129305ZM16.6932 27.5421C17.1558 27.686 17.5233 27.6634 17.8301 27.3302C17.9483 27.2008 18.0795 27.0811 18.2009 26.9549C20.3255 24.7306 21.9382 22.1763 23.1752 19.394C24.9192 15.4744 25.9282 11.3591 26.4794 7.12566C26.696 5.46271 26.7879 3.79168 26.8633 2.11741C26.8682 2.01064 26.8633 1.90226 26.8715 1.7955C26.8814 1.64344 26.8174 1.57225 26.6599 1.57872C26.3318 1.59328 26.0037 1.59004 25.6772 1.61754C24.9963 1.67416 24.3187 1.75345 23.6395 1.81169C22.1564 1.93787 20.6766 2.09477 19.2082 2.33257C16.7801 2.72566 14.3947 3.29022 12.0634 4.06831C9.30061 4.99037 6.64939 6.14861 4.18847 7.69994C3.07286 8.40362 2.02123 9.19303 1.01554 10.0423C0.664446 10.3399 0.495464 10.6877 0.569291 11.1407C0.600463 11.3397 0.664447 11.3704 0.83671 11.2572C1.22225 11.0048 1.59959 10.7379 1.98842 10.4888C5.30409 8.36479 8.92491 6.93963 12.7525 5.99492C15.2052 5.38992 17.6874 4.94344 20.209 4.73476C21.3246 4.64256 22.4435 4.56979 23.5641 4.56332C23.9332 4.5617 23.9332 4.56979 23.9283 4.92082C23.902 6.59671 23.779 8.26936 23.5739 9.93069C23.2934 12.1922 22.8684 14.4294 22.2188 16.6213C21.3492 19.5573 20.1303 22.3413 18.4995 24.949C17.9499 25.8274 17.3445 26.6685 16.6932 27.5453V27.5421ZM14.0748 27.5372C14.2372 27.5696 14.357 27.5955 14.4767 27.6181C15.238 27.7653 15.3955 27.6278 15.7515 26.9986C15.758 26.9872 15.7646 26.9743 15.7695 26.963C17.5414 23.5934 18.7505 20.0378 19.4363 16.3091C19.7349 14.6866 19.9432 13.0527 20.0614 11.4076C20.1253 10.5114 20.1943 9.61525 20.1762 8.71745C20.168 8.26936 20.1286 8.24025 19.6857 8.24187C18.8785 8.24187 18.0795 8.35187 17.2756 8.40363C16.0763 8.48128 14.8787 8.59289 13.6909 8.75789C12.2045 8.96495 10.7296 9.24317 9.27108 9.59582C6.94634 10.1588 4.68558 10.9013 2.50521 11.8784C2.00975 12.1 1.49788 12.2957 1.03358 12.5804C0.500386 12.9055 0.385543 13.2178 0.572572 13.8017C0.725149 14.2789 0.687415 14.2239 1.12054 14.0589C2.67419 13.4685 4.25574 12.9622 5.86682 12.5432C7.53039 12.1097 9.21038 11.7587 10.915 11.5209C12.321 11.3235 13.7319 11.1649 15.1494 11.0857C15.7761 11.0501 16.4061 11.0097 17.0312 11.1003C17.3987 11.1536 17.3954 11.1633 17.3905 11.5354C17.3609 13.6545 17.1723 15.7623 16.8359 17.8556C16.3962 20.5991 15.7187 23.286 14.7228 25.8905C14.5177 26.4275 14.3012 26.9613 14.0748 27.5372ZM11.9387 14.4844C10.6295 14.5992 9.32686 14.727 8.02586 14.8872C6.779 15.0408 5.54526 15.2592 4.31644 15.5067C3.16802 15.7381 2.02943 16.0163 0.905616 16.3495C0.600463 16.4401 0.598822 16.4434 0.600463 16.7653C0.602103 17.194 0.613588 17.6226 0.610306 18.0513C0.607025 18.4444 0.603744 18.4525 0.976162 18.3635C1.63897 18.2034 2.3149 18.1096 2.98427 17.985C4.62159 17.6793 6.27369 17.4835 7.93398 17.3654C8.76413 17.3056 9.59756 17.291 10.4294 17.2667C10.7526 17.257 10.7542 17.2716 10.7608 17.5741C10.7968 19.2791 10.6623 20.9728 10.4244 22.66C10.2046 24.2243 9.92732 25.7805 9.64022 27.3334C9.59756 27.5615 9.62873 27.6052 9.84857 27.6052C10.326 27.6052 10.8034 27.5874 11.2825 27.5939C11.499 27.5971 11.5925 27.5146 11.645 27.3091C11.8222 26.6216 12.0322 25.9422 12.2094 25.2547C13.0117 22.1424 13.4694 18.9814 13.5481 15.7688C13.5563 15.421 13.5531 15.0732 13.5596 14.7238C13.5629 14.5361 13.4858 14.473 13.2873 14.4811C12.8378 14.4989 12.3866 14.486 11.9371 14.486L11.9387 14.4844ZM0.595541 23.0725C0.579135 23.7552 0.549604 24.4378 0.629994 25.1188C0.785852 26.421 1.826 27.4418 3.15489 27.5745C4.31316 27.6893 5.47307 27.6003 6.63298 27.589C6.83149 27.5874 6.87251 27.4871 6.90204 27.3189C7.0579 26.434 7.16454 25.5443 7.26298 24.653C7.39915 23.4138 7.45657 22.1699 7.41555 20.9243C7.40243 20.5312 7.3893 20.536 6.98571 20.5279C5.44026 20.4972 3.90465 20.6266 2.37396 20.811C1.87358 20.8709 1.38139 20.9857 0.885929 21.0747C0.685774 21.1103 0.585697 21.2009 0.59226 21.4241C0.608666 21.9725 0.597182 22.5209 0.597182 23.0709L0.595541 23.0725ZM104.599 10.8657C105.053 12.7681 105.508 14.672 105.962 16.5744C106.722 19.7547 107.481 22.935 108.241 26.117C108.318 26.4421 108.393 26.7688 108.472 27.0956C108.51 27.2557 108.595 27.3496 108.784 27.3447C109.494 27.3318 110.205 27.3286 110.915 27.3253C111.081 27.3253 111.166 27.259 111.174 27.0892C111.186 26.8077 111.223 26.5278 111.223 26.2463C111.23 23.8344 111.245 21.4209 111.282 19.0089C111.327 16.1942 111.233 13.3795 111.237 10.5648C111.238 9.15744 111.237 7.7501 111.223 6.34274C111.219 5.76686 111.186 5.19094 111.158 4.61668C111.145 4.34006 111.125 4.32067 110.846 4.31743C110.423 4.31096 110 4.31258 109.576 4.31743C109.202 4.32067 109.23 4.35303 109.232 4.68626C109.238 9.64599 109.238 14.6041 109.237 19.5638C109.237 19.8615 109.26 20.1639 109.138 20.5409C108.841 19.4409 108.548 18.425 108.292 17.3994C107.706 15.0457 107.138 12.6872 106.566 10.3302C106.101 8.41656 105.64 6.50125 105.189 4.58433C105.145 4.3983 105.102 4.30287 104.887 4.3061C104.108 4.31419 103.33 4.31095 102.551 4.30124C102.354 4.29962 102.276 4.37244 102.289 4.56008C102.294 4.63935 102.285 4.72023 102.28 4.80111C102.146 6.94289 102.213 9.08952 102.197 11.2329C102.171 14.6365 102.2 18.0416 102.213 21.4451C102.216 22.3025 102.197 23.1599 102.235 24.0172C102.277 24.9943 102.29 25.973 102.31 26.95C102.313 27.128 102.331 27.2719 102.563 27.2736C103.109 27.2752 103.655 27.2833 104.202 27.2849C104.353 27.2849 104.426 27.2024 104.425 27.0568C104.421 26.8157 104.413 26.5747 104.413 26.3337C104.413 21.4419 104.417 16.5485 104.418 11.6567C104.418 11.3251 104.418 10.9919 104.418 10.6133C104.59 10.7039 104.582 10.7913 104.6 10.8657H104.599ZM126.022 15.7672C126.183 16.0438 126.401 16.2686 126.596 16.5064C127.251 17.3007 127.551 18.2098 127.551 19.2241C127.551 20.4713 127.551 21.7169 127.546 22.9641C127.544 23.7439 127.351 24.4799 126.954 25.1528C126.176 26.4696 124.98 27.1765 123.454 27.2978C122.216 27.3965 120.969 27.3237 119.727 27.327C119.553 27.327 119.477 27.2638 119.481 27.0956C119.484 26.9209 119.474 26.7478 119.474 26.5731C119.474 19.2953 119.472 12.0174 119.471 4.73962C119.471 4.6733 119.474 4.60536 119.471 4.53903C119.459 4.37241 119.543 4.29155 119.707 4.27861C119.83 4.27052 119.951 4.25432 120.075 4.25432C121.044 4.25271 122.015 4.243 122.985 4.25432C125.131 4.27697 126.977 5.74259 127.446 7.79215C127.523 8.13186 127.546 8.48126 127.547 8.83068C127.549 10.0633 127.569 11.2976 127.547 12.5303C127.529 13.6626 127.083 14.6381 126.304 15.4695C126.212 15.5682 126.12 15.6669 126.023 15.7688L126.022 15.7672ZM121.649 21.1588C121.649 21.1588 121.653 21.1588 121.654 21.1588C121.654 22.4578 121.654 23.7568 121.654 25.0574C121.654 25.3502 121.659 25.3583 121.94 25.3761C122.389 25.4068 122.842 25.4197 123.29 25.3696C124.48 25.2369 125.305 24.4022 125.349 23.2537C125.408 21.78 125.425 20.308 125.339 18.8359C125.279 17.7779 124.698 17.1357 123.631 16.9335C123.116 16.8348 122.598 16.8769 122.079 16.8736C121.651 16.8704 121.645 16.8866 121.645 17.3024C121.645 18.5884 121.645 19.8744 121.645 21.1604L121.649 21.1588ZM125.431 10.4726C125.434 9.73493 125.38 8.99891 125.343 8.26288C125.287 7.18228 124.56 6.40906 123.464 6.25376C122.975 6.1842 122.485 6.17935 121.992 6.2117C121.666 6.23435 121.664 6.24082 121.656 6.57567C121.656 6.62906 121.656 6.68244 121.656 6.73582C121.656 9.20113 121.656 11.6664 121.656 14.1317C121.656 14.2385 121.663 14.3469 121.656 14.4536C121.646 14.6235 121.72 14.6947 121.896 14.6931C122.347 14.6882 122.798 14.7076 123.247 14.6882C124.434 14.6381 125.288 13.805 125.351 12.6403C125.39 11.9188 125.405 11.1941 125.431 10.471V10.4726ZM144.671 27.3075C144.027 27.3075 143.374 27.3059 142.721 27.3091C142.575 27.3091 142.548 27.2186 142.511 27.1118C142.234 26.2997 141.932 25.4941 141.68 24.6756C141.201 23.1259 140.699 21.5827 140.17 20.0475C139.852 19.1222 139.57 18.184 139.27 17.2522C139.166 16.9303 139.163 16.9303 138.823 16.9287C138.564 16.9287 138.303 16.94 138.044 16.9287C137.828 16.9173 137.747 17.0241 137.736 17.2118C137.723 17.4398 137.709 17.6663 137.709 17.8944C137.709 20.9097 137.713 23.925 137.716 26.9403C137.716 27.0212 137.713 27.1005 137.714 27.1813C137.716 27.301 137.659 27.3447 137.539 27.3431C137.033 27.3366 136.528 27.3318 136.023 27.3366C135.847 27.3366 135.777 27.2687 135.78 27.1005C135.785 26.8319 135.778 26.565 135.777 26.2965C135.777 19.4894 135.777 12.6807 135.775 5.8736C135.775 5.45786 135.773 5.04213 135.775 4.62801C135.775 4.3158 135.795 4.29639 136.115 4.2608C136.169 4.25433 136.225 4.25271 136.279 4.25432C137.289 4.26888 138.3 4.23331 139.311 4.2689C141.667 4.3514 143.253 6.14213 143.58 7.85684C143.647 8.21111 143.675 8.57507 143.691 8.93581C143.742 10.128 143.712 11.3202 143.688 12.5125C143.657 13.9829 143.043 15.146 141.781 15.9645C141.578 16.0972 141.304 16.2104 141.212 16.4013C141.117 16.6003 141.32 16.8494 141.394 17.0759C142.467 20.3516 143.542 23.6257 144.616 26.8999C144.657 27.0244 144.734 27.1441 144.671 27.3108V27.3075ZM137.726 10.0148C137.726 10.0148 137.721 10.0148 137.719 10.0148C137.719 10.9255 137.708 11.8379 137.724 12.7486C137.732 13.2841 137.787 13.8179 137.814 14.3533C137.824 14.5426 137.903 14.6559 138.108 14.6623C138.763 14.685 139.421 14.7222 140.067 14.5831C140.941 14.3954 141.609 13.6659 141.653 12.8069C141.731 11.3203 141.749 9.83362 141.658 8.347C141.591 7.23082 140.676 6.3395 139.545 6.25376C139.178 6.22626 138.809 6.23111 138.439 6.24729C137.76 6.27802 137.742 6.27315 137.732 6.95904C137.716 7.97654 137.727 8.99569 137.727 10.0148H137.726ZM219.761 15.7073C219.761 12.8392 219.756 9.97113 219.764 7.10303C219.768 6.24567 219.812 5.38829 219.83 4.53094C219.833 4.35785 219.865 4.24623 220.073 4.25109C221.287 4.2802 222.508 4.17345 223.717 4.30448C225.827 4.53419 227.536 6.32656 227.667 8.39877C227.71 9.08142 227.725 9.7673 227.694 10.4483C227.654 11.2652 227.753 12.0821 227.674 12.8991C227.546 14.211 226.916 15.2237 225.81 15.9645C225.6 16.1053 225.267 16.1732 225.228 16.4288C225.195 16.6423 225.351 16.885 225.425 17.1131C226.325 19.8663 227.228 22.6196 228.13 25.3728C228.305 25.9083 228.491 26.4405 228.665 26.9759C228.752 27.2428 228.725 27.28 228.438 27.2849C227.933 27.293 227.428 27.2914 226.922 27.2865C226.581 27.2833 226.576 27.2784 226.468 26.9484C226.092 25.8015 225.722 24.653 225.344 23.506C224.645 21.3918 223.938 19.2807 223.251 17.1632C223.182 16.9529 223.087 16.8866 222.883 16.8915C222.583 16.8979 222.283 16.8915 221.981 16.8882C221.81 16.8882 221.732 16.9643 221.74 17.1341C221.746 17.2538 221.74 17.3751 221.74 17.4965C221.74 20.6185 221.741 23.7422 221.743 26.8643C221.743 27.2331 221.743 27.2364 221.366 27.238C220.956 27.2396 220.545 27.2267 220.137 27.2412C219.919 27.2477 219.856 27.1652 219.851 26.963C219.833 25.9843 219.789 25.0072 219.786 24.0285C219.776 21.2543 219.783 18.48 219.783 15.7057C219.776 15.7057 219.769 15.7057 219.763 15.7057L219.761 15.7073ZM221.74 10.4823C221.74 10.4823 221.743 10.4823 221.745 10.4823C221.745 11.7942 221.745 13.1078 221.745 14.4197C221.745 14.7012 221.75 14.7092 222.033 14.7076C222.524 14.7044 223.016 14.7044 223.507 14.6769C224.529 14.6202 225.625 14.0945 225.7 12.5869C225.703 12.5205 225.715 12.4542 225.718 12.3863C225.758 11.0614 225.766 9.73655 225.699 8.41007C225.649 7.45242 224.97 6.50612 223.715 6.26186C223.138 6.14862 222.545 6.20845 221.958 6.23271C221.802 6.23918 221.743 6.32171 221.743 6.46407C221.743 6.58377 221.738 6.70509 221.738 6.8248C221.738 8.04289 221.738 9.26258 221.738 10.4807L221.74 10.4823ZM152.918 15.9144C152.941 13.3811 152.892 10.9417 152.951 8.50391C153.018 5.71022 155.925 3.6008 158.644 4.42257C160.47 4.97419 161.954 6.60964 161.958 8.83391C161.958 9.77215 161.944 10.7104 161.946 11.647C161.948 15.1314 161.956 18.6159 161.954 22.1003C161.954 22.7555 161.931 23.4074 161.762 24.0528C161.019 26.8853 157.318 28.5175 154.586 26.2981C153.556 25.4618 152.985 24.3909 152.951 23.0563C152.888 20.6444 152.949 18.2325 152.918 15.9144ZM159.92 15.8108C159.92 15.3417 159.92 14.8726 159.92 14.4035C159.92 12.4736 159.917 10.5438 159.928 8.6139C159.933 7.64654 159.48 6.98333 158.601 6.58539C158.416 6.50127 158.22 6.4333 158.022 6.38962C156.841 6.12756 155.766 6.61774 155.243 7.58995C154.985 8.06716 154.903 8.57346 154.903 9.10243C154.906 13.4717 154.905 17.841 154.908 22.2103C154.908 22.5451 154.911 22.8816 154.937 23.2148C154.998 23.946 155.331 24.5203 156.001 24.8746C156.568 25.1754 157.183 25.3097 157.822 25.2062C159.078 25.004 159.956 24.3229 159.93 22.8493C159.89 20.5037 159.918 18.1581 159.918 15.8125L159.92 15.8108ZM196.317 4.84155C196.317 4.74773 196.309 4.65229 196.317 4.56008C196.338 4.36111 196.241 4.30448 196.054 4.30772C195.659 4.31419 195.262 4.31095 194.867 4.30448C194.273 4.29316 194.351 4.28021 194.351 4.78492C194.35 7.57214 194.351 10.3594 194.351 13.1482C194.351 13.2695 194.345 13.3892 194.351 13.5105C194.363 13.6966 194.274 13.7855 194.092 13.7952C193.969 13.8033 193.846 13.8131 193.725 13.8131C192.701 13.8147 191.676 13.8179 190.652 13.8131C190.27 13.8114 189.889 13.7791 189.508 13.7322C189.343 13.7111 189.259 13.6513 189.269 13.4798C189.275 13.373 189.269 13.2647 189.269 13.1579C189.269 10.6651 189.269 8.17229 189.269 5.67949C189.269 5.33169 189.272 4.98228 189.269 4.63449C189.266 4.33361 189.261 4.32876 188.942 4.32067C188.614 4.31259 188.286 4.31582 187.96 4.31743C187.353 4.32067 187.359 4.17346 187.359 4.88361C187.359 11.9997 187.359 19.1157 187.359 26.2318C187.359 26.5133 187.366 26.7947 187.364 27.0762C187.364 27.2024 187.402 27.2865 187.546 27.2849C188.065 27.2817 188.585 27.2784 189.103 27.2719C189.233 27.2703 189.298 27.1975 189.292 27.0649C189.289 26.9986 189.292 26.9306 189.292 26.8643C189.29 23.3524 189.289 19.8421 189.287 16.3301C189.287 16.2088 189.287 16.0891 189.293 15.9678C189.298 15.874 189.352 15.8206 189.448 15.8157C189.53 15.8108 189.612 15.8125 189.694 15.8125C191.087 15.8125 192.481 15.8125 193.874 15.8125C193.969 15.8125 194.066 15.8173 194.161 15.8173C194.291 15.8173 194.369 15.8659 194.361 16.0066C194.358 16.0729 194.358 16.1409 194.358 16.2072C194.358 19.25 194.355 22.2912 194.361 25.334C194.361 25.8824 194.399 26.4324 194.429 26.9808C194.445 27.2784 194.452 27.2833 194.771 27.2881C195.126 27.293 195.482 27.293 195.836 27.2881C196.323 27.2817 196.325 27.2784 196.325 26.7947C196.325 23.1356 196.325 19.4781 196.325 15.8189C196.325 12.1598 196.325 8.50231 196.325 4.84317L196.317 4.84155ZM237.063 23.7859C237.086 24.1822 237.188 24.5494 237.373 24.9005C237.603 25.334 237.919 25.7028 238.267 26.0441C239.898 27.6424 242.58 27.7766 244.362 26.3418C245.442 25.4715 245.968 24.3294 245.991 22.9706C246.011 21.8188 245.981 20.6654 245.999 19.5121C246.013 18.7194 245.791 18.0076 245.36 17.3476C245.145 17.0192 244.9 16.7135 244.62 16.4385C244.214 16.0406 243.799 15.6507 243.388 15.2592C242.298 14.2256 241.209 13.1903 240.192 12.0838C239.762 11.6179 239.47 11.0841 239.284 10.4823C239.058 9.74464 239.088 9.00052 239.179 8.25154C239.212 7.98139 239.312 7.73228 239.434 7.49125C240.164 6.04183 242.16 5.84933 243.168 6.79889C243.75 7.34889 244.019 7.99275 244.009 8.77084C244.003 9.37423 243.996 9.97598 244.003 10.5794C244.006 10.9094 244.021 10.9207 244.339 10.9547C244.774 11 245.212 11.0032 245.648 10.966C245.955 10.9401 245.993 10.9045 245.99 10.5858C245.981 9.78187 246.016 8.97949 245.942 8.17552C245.707 5.58242 243.073 4.07639 241.105 4.25918C239.078 4.44683 236.93 6.19551 236.974 8.7417C236.981 9.15743 236.963 9.57154 236.927 9.98566C236.866 10.678 236.994 11.3477 237.273 11.9867C237.611 12.7648 238.128 13.4167 238.764 13.9797C239.941 15.0215 241.112 16.0681 242.219 17.1826C242.62 17.5854 243.028 17.9834 243.36 18.4444C243.671 18.8779 243.89 19.3552 243.939 19.8857C244.047 21.0488 244.049 22.2135 243.944 23.3782C243.921 23.6354 243.847 23.8765 243.729 24.1062C242.964 25.6041 240.746 25.8161 239.7 24.4961C239.302 23.9946 239.152 23.4268 239.147 22.8088C239.137 21.67 239.127 20.5312 239.117 19.3907C239.115 19.1756 239.117 18.9621 239.107 18.7469C239.094 18.4606 239.091 18.4541 238.809 18.4363C238.29 18.4056 237.77 18.4169 237.252 18.446C236.92 18.4654 236.909 18.4687 236.915 18.7971C236.928 19.4943 236.956 20.1899 236.979 20.9275C236.956 21.8528 237.004 22.8153 237.061 23.7794L237.063 23.7859ZM37.4567 23.6306C37.4617 23.7632 37.4797 23.8975 37.5076 24.0285C37.8095 25.4877 38.6692 26.5262 40.0407 27.1312C42.2194 28.0937 44.5786 27.3205 45.7615 25.4893C46.3849 24.5252 46.4916 23.4591 46.4473 22.3623C46.4341 22.055 46.4013 21.7476 46.4013 21.4403C46.4013 20.8644 46.4079 20.2885 46.4128 19.7126C46.4177 19.0284 46.2471 18.391 45.9206 17.786C45.5827 17.1584 45.0938 16.6569 44.5786 16.1764C43.3121 14.9939 42.0078 13.8519 40.7987 12.6112C40.0046 11.7975 39.5305 10.8446 39.455 9.71229C39.4173 9.14773 39.414 8.58643 39.6076 8.0429C39.9898 6.97525 41.03 6.31848 42.1604 6.42362C43.2514 6.52554 44.1209 7.38125 44.2817 8.50067C44.3194 8.76758 44.3342 9.03287 44.3375 9.3014C44.344 9.8239 44.367 10.3464 44.3752 10.8689C44.3785 11.0776 44.4638 11.1552 44.6787 11.1294C45.1135 11.076 45.5515 11.1019 45.9879 11.0986C46.2881 11.097 46.2947 11.0889 46.3062 10.8172C46.3374 10.1216 46.3521 9.42437 46.3127 8.72716C46.2406 7.47186 45.7402 6.41067 44.7624 5.60184C43.4745 4.53581 42.0045 4.14432 40.3721 4.69756C38.5691 5.30903 37.3271 7.03183 37.2878 8.90184C37.2763 9.4114 37.3009 9.921 37.2828 10.4289C37.2385 11.7134 37.7356 12.7761 38.6363 13.6788C39.1531 14.1964 39.7077 14.6736 40.2491 15.1638C41.3729 16.1813 42.5164 17.1778 43.5221 18.3166C44.0799 18.9491 44.3735 19.677 44.4178 20.5101C44.4687 21.4613 44.472 22.4109 44.4244 23.3621C44.3768 24.3068 43.9207 24.991 43.0299 25.3647C42.1259 25.7432 41.2728 25.664 40.5017 25.0283C39.8865 24.5203 39.5994 23.8684 39.5961 23.0871C39.5912 21.9353 39.5863 20.7819 39.583 19.6301C39.583 19.415 39.5518 19.2031 39.5387 18.9896C39.5239 18.7566 39.4058 18.7 39.1941 18.7032C38.743 18.7113 38.2934 18.7016 37.8423 18.7081C37.4059 18.7146 37.3895 18.7259 37.3862 19.1691C37.3796 19.9067 37.3846 20.6428 37.3846 21.4177C37.4092 22.1294 37.4321 22.8784 37.46 23.629L37.4567 23.6306ZM74.1801 20.7948C74.1145 20.3581 74.0554 19.9197 73.9882 19.4829C73.6994 17.6032 73.4058 15.7251 73.1187 13.8454C72.8594 12.1372 72.6101 10.4289 72.3525 8.72069C72.1425 7.33112 71.9259 5.94155 71.7143 4.55199C71.6749 4.29154 71.6569 4.2608 71.3812 4.25918C71.0121 4.25595 70.6446 4.27538 70.2755 4.27699C69.6832 4.28023 69.6849 4.27699 69.7636 4.8367C69.9342 6.04347 70.1032 7.25022 70.2738 8.45699C70.62 10.8964 70.9695 13.3358 71.3156 15.7753C71.5568 17.4722 71.793 19.1707 72.0326 20.8676C72.2344 22.2993 72.4378 23.7325 72.6396 25.1641C72.7216 25.7481 72.7971 26.3321 72.8791 26.9161C72.9021 27.0746 72.9103 27.238 73.1515 27.2347C73.9029 27.225 74.6543 27.2234 75.404 27.2234C75.5927 27.2234 75.6665 27.1409 75.6862 26.9614C75.7174 26.6815 75.7764 26.4065 75.8142 26.1282C76.1439 23.6468 76.4704 21.1637 76.7985 18.6806C77.0709 16.61 77.3432 14.5378 77.6156 12.4672C77.9486 9.94524 78.2816 7.42331 78.6147 4.89977C78.6377 4.72668 78.6639 4.55521 78.6869 4.38213C78.7082 4.23007 78.6459 4.16049 78.4834 4.16211C77.9092 4.16534 77.3367 4.16696 76.7624 4.16211C76.5672 4.16211 76.5016 4.26405 76.4835 4.4339C76.4589 4.66037 76.4245 4.88522 76.3982 5.11169C76.1702 7.03993 75.9569 8.97142 75.7108 10.898C75.3745 13.5283 75.0168 16.157 74.6641 18.7857C74.5575 19.5784 74.4393 20.3694 74.3212 21.1879C74.2179 21.0553 74.1965 20.9259 74.1768 20.7948H74.1801ZM204.571 15.806C204.571 19.436 204.571 23.0676 204.571 26.6977C204.571 27.2849 204.577 27.2881 205.161 27.2881C207.128 27.2881 209.094 27.2881 211.061 27.2881C211.13 27.2881 211.197 27.2833 211.266 27.2881C211.445 27.2995 211.506 27.2121 211.504 27.0455C211.497 26.5634 211.496 26.0813 211.501 25.5993C211.502 25.4213 211.414 25.3631 211.25 25.3696C211.141 25.3728 211.032 25.3696 210.922 25.3696C209.693 25.368 208.464 25.3663 207.235 25.3647C207.14 25.3647 207.045 25.3599 206.948 25.3599C206.814 25.3599 206.75 25.2935 206.751 25.1625C206.751 25.0412 206.75 24.9215 206.75 24.8002C206.75 22.4562 206.75 20.1106 206.75 17.7666C206.75 17.5515 206.756 17.3379 206.743 17.1244C206.733 16.9287 206.822 16.8575 207.009 16.872C207.091 16.8785 207.173 16.872 207.255 16.872C208.293 16.872 209.33 16.872 210.369 16.872C210.869 16.872 210.792 16.9012 210.802 16.432C210.81 16.0163 210.807 15.6022 210.803 15.1864C210.799 14.5976 210.81 14.6947 210.292 14.6898C209.212 14.6817 208.134 14.6898 207.055 14.6866C206.781 14.6866 206.782 14.6769 206.794 14.4181C206.802 14.2304 206.81 14.0428 206.81 13.8567C206.81 11.5791 206.81 9.30143 206.812 7.02377C206.812 6.32171 206.723 6.42362 207.407 6.41877C208.377 6.4123 209.347 6.41876 210.316 6.41553C210.616 6.41553 210.917 6.40421 211.217 6.37833C211.547 6.34921 211.56 6.3298 211.563 6.01597C211.568 5.55979 211.568 5.1052 211.563 4.64902C211.56 4.34167 211.555 4.33037 211.25 4.3142C210.623 4.28023 209.995 4.25273 209.368 4.23817C207.919 4.20258 206.474 4.25917 205.027 4.32711C204.574 4.34814 204.568 4.36919 204.568 4.79464C204.568 8.46509 204.568 12.1356 204.568 15.8076H204.572L204.571 15.806ZM87.0523 21.5956C87.0753 23.189 87.095 24.784 87.1557 26.3774C87.1852 27.1878 87.0917 27.0924 87.935 27.1328C89.3689 27.2007 90.8028 27.1538 92.235 27.0988C92.7535 27.0794 93.2719 27.0633 93.7887 27.0002C93.9495 26.9808 94.0955 26.9484 94.0955 26.7511C94.0955 26.2819 94.0922 25.8128 94.0856 25.3453C94.084 25.2208 94.0118 25.1496 93.8773 25.1496C93.7411 25.1496 93.6049 25.1415 93.4671 25.1415C92.3203 25.148 91.1735 25.1657 90.0251 25.1593C89.2311 25.1544 89.3508 25.3308 89.2819 24.4589C89.2065 23.5109 89.2622 22.5597 89.2097 21.6085C89.1261 20.096 89.2721 18.5835 89.2918 17.071C89.2967 16.6811 89.3213 16.6892 89.7216 16.6666C90.7995 16.6084 91.879 16.6343 92.9569 16.61C93.2456 16.6035 93.262 16.5906 93.2604 16.3107C93.2571 15.7882 93.2391 15.2657 93.2243 14.7432C93.2161 14.4666 93.2128 14.4601 92.9159 14.4585C92.1103 14.4553 91.3048 14.452 90.4993 14.4601C90.1859 14.4634 89.8726 14.4925 89.5592 14.5183C89.3541 14.5361 89.2688 14.4504 89.2409 14.2514C89.213 14.0508 89.195 13.8519 89.1884 13.6513C89.1326 12.0708 89.108 10.4904 89.1261 8.90994C89.1343 8.13346 89.1654 7.35701 89.2015 6.58053C89.2212 6.16479 89.2409 6.15022 89.6593 6.16155C90.9832 6.19552 92.3072 6.06612 93.6328 6.13406C93.9117 6.14862 93.9281 6.12596 93.9249 5.8364C93.9183 5.34139 93.9068 4.84478 93.8888 4.34978C93.8789 4.07154 93.8723 4.06345 93.582 4.06507C91.4918 4.08125 89.4033 4.09906 87.3132 4.12009C86.9572 4.12332 86.9506 4.1314 86.9408 4.47758C86.9194 5.267 86.8965 6.05801 86.8916 6.84743C86.885 7.93288 86.9129 9.01672 86.9342 10.1022C86.9703 11.8961 86.9441 13.6917 86.9441 15.4873C86.9441 17.5239 87.0212 19.5589 87.0507 21.5956H87.0523ZM54.6388 21.7234C54.6831 23.451 54.6569 25.1787 54.6634 26.908C54.6634 27.3496 54.6716 27.356 55.1113 27.3819C55.1523 27.3852 55.1934 27.3852 55.2344 27.3852C56.7224 27.4046 58.2104 27.4094 59.7001 27.3771C60.2464 27.3641 60.7911 27.327 61.3358 27.293C61.4687 27.2849 61.636 27.2816 61.6377 27.0956C61.6426 26.5877 61.6344 26.0781 61.6295 25.5685C61.6295 25.4569 61.5655 25.3987 61.4506 25.3971C61.3555 25.3971 61.2587 25.3938 61.1635 25.3938C59.8937 25.3938 58.6239 25.3938 57.354 25.3938C56.8504 25.3938 56.9111 25.4278 56.8815 24.9344C56.7519 22.7668 56.7913 20.5959 56.811 18.4266C56.8143 18.0125 56.8602 17.5968 56.8717 17.1826C56.8766 16.9918 56.9505 16.9287 57.1424 16.9287C57.8938 16.9303 58.6419 16.8672 59.395 16.885C59.7493 16.8931 60.1053 16.8834 60.4597 16.8704C60.8223 16.8575 60.8256 16.8526 60.8288 16.5178C60.8321 16.0762 60.8338 15.6329 60.8288 15.1913C60.8256 14.7885 60.8206 14.7772 60.3892 14.7739C59.4885 14.7675 58.5861 14.7788 57.6854 14.7772C57.4541 14.7772 57.2212 14.7594 56.9898 14.7448C56.8619 14.7367 56.788 14.6688 56.7979 14.5361C56.8208 14.1997 56.7421 13.8697 56.7339 13.5348C56.688 11.6066 56.6551 9.67834 56.7208 7.74847C56.729 7.48156 56.7257 7.21142 56.7503 6.94612C56.793 6.48995 56.7995 6.4786 57.2605 6.48022C58.258 6.48345 59.2522 6.40418 60.2497 6.4333C60.5762 6.44301 60.9043 6.41553 61.2324 6.41391C61.3998 6.41391 61.4851 6.35245 61.4851 6.17936C61.4835 5.65685 61.4851 5.13432 61.4884 4.61182C61.4884 4.44358 61.4145 4.38373 61.2456 4.36755C60.988 4.34329 60.7304 4.3142 60.4696 4.31582C59.2686 4.31582 58.0661 4.30611 56.8651 4.32067C56.2384 4.32876 55.6101 4.37241 54.9834 4.41123C54.4879 4.44197 54.4748 4.45979 54.4764 4.96774C54.4764 5.33009 54.4977 5.69082 54.4994 6.05156C54.524 9.34672 54.5453 12.6419 54.5683 15.9354C54.6109 17.8636 54.5913 19.7919 54.6405 21.7218L54.6388 21.7234ZM175.729 16.7167C175.729 13.3666 175.729 10.0148 175.729 6.66465C175.729 6.12597 175.693 6.16964 176.244 6.16964C177.077 6.16964 177.911 6.17449 178.744 6.16964C179.089 6.16802 179.094 6.15831 179.099 5.83316C179.104 5.45786 179.102 5.08257 179.099 4.70728C179.097 4.31257 179.095 4.31257 178.697 4.30772C178.656 4.30772 178.615 4.30772 178.574 4.30772C175.922 4.30772 173.273 4.3061 170.622 4.3061C170.54 4.3061 170.458 4.31095 170.376 4.3061C170.2 4.29478 170.134 4.36918 170.136 4.54227C170.141 5.02433 170.139 5.508 170.129 5.99006C170.126 6.13242 170.192 6.18256 170.32 6.18903C170.43 6.19389 170.538 6.20037 170.648 6.20037C171.427 6.20037 172.205 6.20522 172.984 6.20037C173.647 6.19713 173.522 6.24727 173.522 6.71963C173.526 12.9783 173.522 19.2371 173.524 25.4974C173.524 25.994 173.547 26.489 173.532 26.984C173.526 27.2008 173.611 27.2768 173.808 27.2784C174.367 27.2817 174.928 27.2817 175.488 27.2881C175.693 27.2914 175.742 27.183 175.737 27.0083C175.729 26.7139 175.724 26.4194 175.724 26.1234C175.724 22.9868 175.724 19.8501 175.724 16.7151L175.729 16.7167Z" fill="#F2F2F2"/>
</svg>
