<svg width="143" height="30" viewBox="0 0 143 30" fill="none" xmlns="http://www.w3.org/2000/svg">
<path d="M33.0943 14.6522C33.5767 14.4735 34.079 14.3826 34.5863 14.316C34.7301 14.2965 34.8375 14.251 34.9036 14.1113C35.0737 13.7458 35.0704 13.3884 34.8655 13.0408C34.7978 12.9254 34.7003 12.8036 34.5483 12.828C34.0361 12.9108 33.5173 12.9206 33.0034 12.9222C31.5262 12.9287 30.049 12.966 28.5719 12.9027C28.1274 12.8832 27.6829 12.8426 27.2368 12.8588C27.2054 12.8588 27.1707 12.8653 27.1443 12.8523C26.9344 12.7581 26.8072 12.8848 26.7147 13.0294C26.5164 13.3397 26.5147 13.6824 26.6188 14.0219C26.6552 14.1389 26.6965 14.2965 26.8617 14.3095C27.0815 14.329 27.2946 14.3858 27.5094 14.4264C27.9043 14.4995 28.2976 14.5775 28.6446 14.8033C28.7586 14.878 28.8082 14.9625 28.7949 15.086C28.7652 15.3605 28.7041 15.6285 28.6132 15.8901C28.3323 16.7007 27.9886 17.4869 27.673 18.2845C27.3442 19.1162 27.0038 19.943 26.6403 20.7601C26.3412 21.4294 26.0471 22.1019 25.715 22.7566C25.6968 22.7923 25.6869 22.8378 25.6324 22.8508C25.6175 22.8346 25.596 22.82 25.5861 22.7988C25.0888 21.8339 24.5667 20.882 24.0875 19.9073C23.5224 18.7556 22.949 17.6071 22.4219 16.4375C22.2451 16.0444 22.0717 15.648 21.9725 15.2257C21.9196 15.0015 21.951 14.9235 22.1675 14.8244C22.7822 14.5385 23.4497 14.4459 24.1123 14.3582C24.5303 14.303 24.5931 14.2981 24.6939 13.9212C24.7534 13.6987 24.7583 13.4631 24.6873 13.2406C24.5865 12.9206 24.5105 12.8345 24.1684 12.8572C23.7802 12.8816 23.3902 12.8556 23.0003 12.8897C22.4649 12.9352 21.9246 12.9011 21.3859 12.9238C20.4755 12.9628 19.5634 12.9628 18.653 12.9612C13.5655 12.9547 8.47639 13.018 3.3889 12.9319C2.956 12.9254 2.52309 12.9287 2.09018 12.9076C1.59614 12.8832 1.10045 12.867 0.606403 12.8556C0.275939 12.8475 0.183409 12.9011 0.0429619 13.2991C0.033048 13.3267 0.0413079 13.3608 0 13.3673V13.8806C0.0875728 14.264 0.375077 14.3566 0.728673 14.4037C1.08227 14.4508 1.43256 14.5369 1.76798 14.6701C2.26863 14.8715 2.60571 15.2451 2.87834 15.6837C3.28977 16.3449 3.64832 17.0353 4.01348 17.7208C4.41004 18.4664 4.80659 19.2121 5.20645 19.9544C6.53657 22.4285 7.7725 24.948 9.05635 27.4447C9.39508 28.1043 9.72719 28.7687 10.0312 29.4445C10.1882 29.7937 10.4592 29.909 10.8012 29.9561C10.8359 29.961 10.8789 29.948 10.8921 29.9967H11.6753C11.7843 29.9236 11.9165 29.9432 12.0355 29.909C12.2668 29.8408 12.4287 29.706 12.5394 29.4948C12.855 28.8905 13.1756 28.2895 13.4978 27.6884C14.0546 26.652 14.6147 25.6189 15.1732 24.5841C15.5467 23.8953 15.9168 23.205 16.2968 22.5194C16.7413 21.7186 17.194 20.9226 17.6434 20.125C17.655 20.1039 17.6715 20.086 17.698 20.0519C17.9855 20.5782 18.268 21.0834 18.539 21.5919C19.0496 22.5503 19.5486 23.5152 20.0624 24.472C20.7085 25.6741 21.3066 26.9006 21.9312 28.114C22.1708 28.5786 22.3873 29.0562 22.5987 29.5354C22.7293 29.8278 22.9903 29.8912 23.2597 29.9561C23.3026 29.9659 23.3621 29.9318 23.3869 29.9967H24.1701C24.1883 29.9366 24.2395 29.961 24.2792 29.9561C24.6113 29.9155 24.8955 29.8067 25.0194 29.4623C25.0524 29.373 25.0937 29.2853 25.135 29.1992C25.5465 28.3285 25.9546 27.4561 26.3693 26.587C26.7279 25.8365 27.0881 25.0877 27.4549 24.3421C27.8829 23.4714 28.3141 22.6006 28.752 21.7332C29.289 20.6724 29.821 19.6084 30.3779 18.5574C30.8752 17.6201 31.3362 16.6617 31.8715 15.7439C32.159 15.2516 32.5424 14.8585 33.0976 14.6522H33.0943ZM16.2109 17.4268C16.0985 18.4599 15.5004 19.3063 15.0526 20.2078C14.6197 21.0818 14.1257 21.9249 13.6267 22.7647C13.5639 22.8703 13.5275 22.8947 13.4548 22.7728C13.131 22.2221 12.8203 21.665 12.5113 21.1062C11.7529 19.7384 11.0457 18.3462 10.3435 16.9492C10.0924 16.4505 9.85277 15.9469 9.71728 15.3995C9.59666 14.9089 9.68754 14.8196 10.1204 14.6604C10.3567 14.5726 10.6178 14.5531 10.8756 14.5271C11.3151 14.48 11.7546 14.5125 12.1214 14.4963C12.5163 14.4963 12.8402 14.48 13.1624 14.5012C13.5887 14.5288 14.0166 14.558 14.4396 14.6376C14.8527 14.7156 15.1732 14.9398 15.4475 15.224C15.7829 15.57 16.0506 15.968 16.1845 16.4342C16.2786 16.7608 16.2472 17.0986 16.2109 17.4284V17.4268ZM82.9083 14.7416C83.4536 14.4833 84.0435 14.3875 84.6383 14.3176C84.7556 14.303 84.8432 14.2624 84.906 14.1649C85.0976 13.8676 85.0762 13.2731 84.8548 12.9969C84.7837 12.9076 84.6994 12.8036 84.5673 12.8264C84.055 12.9124 83.5362 12.9206 83.0223 12.9222C81.5584 12.9287 80.0928 12.9677 78.6288 12.9027C78.1844 12.8832 77.7399 12.8426 77.2938 12.8588C77.2624 12.8588 77.231 12.8588 77.2012 12.854C76.9385 12.8036 76.7386 12.9076 76.6543 13.148C76.5436 13.4664 76.5453 13.7848 76.6543 14.1032C76.6923 14.212 76.7667 14.2916 76.8873 14.3127C77.1087 14.3517 77.3334 14.3809 77.5548 14.4264C77.9002 14.4979 78.2471 14.5694 78.5594 14.7432C78.6982 14.8212 78.842 14.9089 78.8139 15.1022C78.7428 15.5912 78.5925 16.0574 78.4058 16.5138C78.0191 17.4576 77.6325 18.4015 77.2508 19.3469C76.955 20.0828 76.6312 20.8056 76.3024 21.5269C76.1305 21.9054 75.9438 22.2758 75.767 22.6526C75.7356 22.7209 75.7373 22.8362 75.6547 22.8362C75.5787 22.8362 75.5555 22.7274 75.5175 22.6575C75.3192 22.2985 75.1375 21.9298 74.9475 21.5675C74.5691 20.8463 74.2023 20.1185 73.8437 19.3875C73.3398 18.3608 72.8375 17.331 72.3682 16.2881C72.2195 15.955 72.0658 15.622 71.9898 15.2614C71.9369 15.0096 71.9683 14.917 72.2013 14.813C72.8127 14.5385 73.4752 14.4605 74.1296 14.3501C74.3196 14.3176 74.5559 14.3598 74.65 14.1275C74.7641 13.8465 74.7872 13.546 74.7128 13.2568C74.6335 12.9417 74.5212 12.8377 74.1808 12.8572C73.8041 12.8783 73.4273 12.8572 73.0506 12.8897C72.5153 12.9336 71.9749 12.9043 71.4363 12.9238C70.4267 12.9596 69.4155 12.9449 68.4043 12.9644C67.1865 12.9888 65.9671 12.9726 64.7494 12.9693C60.6186 12.9579 56.4878 13.0034 52.357 12.9336C52.319 12.9336 52.2826 12.9336 52.2446 12.9336C51.6531 12.8881 51.0616 12.8605 50.4684 12.8605C50.3676 12.8605 50.2866 12.8946 50.2288 12.9726C49.9446 13.3559 49.9793 13.8254 50.1875 14.1974C50.2238 14.2624 50.285 14.3062 50.3775 14.3225C50.6584 14.3712 50.936 14.4443 51.2152 14.4995C51.9241 14.6392 52.4726 15.0015 52.8609 15.6074C53.1517 16.0606 53.4012 16.535 53.6607 17.0028C54.1316 17.8524 54.5893 18.7085 55.042 19.5662C55.5129 20.4564 55.9805 21.3498 56.4382 22.2465C57.1685 23.676 57.9104 25.1007 58.6143 26.5448C59.1067 27.5536 59.6239 28.551 60.1245 29.5549C60.2088 29.7255 60.3377 29.8294 60.5161 29.8847C60.645 29.9253 60.7755 29.961 60.9061 30H61.6893C61.7686 29.9172 61.8826 29.9529 61.9784 29.9285C62.2461 29.8619 62.4378 29.7222 62.565 29.4818C62.9599 28.7362 63.3581 27.9922 63.7563 27.2466C64.1149 26.5773 64.4718 25.9064 64.8336 25.2388C65.3078 24.3648 65.7821 23.4909 66.2645 22.6201C66.7222 21.7933 67.1882 20.9697 67.6525 20.1445C67.6674 20.1185 67.6888 20.0974 67.7169 20.06C67.8144 20.2257 67.9102 20.3768 67.9945 20.536C68.3151 21.137 68.6257 21.7446 68.9512 22.3424C70.0236 24.3161 71.0315 26.3223 72.0493 28.3236C72.2509 28.7199 72.4409 29.1244 72.6227 29.5305C72.7532 29.8246 73.0093 29.9058 73.2918 29.9594C73.3414 29.9691 73.4058 29.9285 73.4389 30H74.1841C74.2155 29.9285 74.2816 29.9691 74.3312 29.9594C74.6104 29.9009 74.8781 29.8376 75.0103 29.537C75.2234 29.053 75.4465 28.5737 75.6728 28.0945C76.0562 27.2839 76.4412 26.4733 76.8311 25.666C77.2772 24.7433 77.7151 23.8174 78.1844 22.9061C78.728 21.8485 79.2369 20.7748 79.7987 19.727C80.1754 19.0252 80.529 18.3105 80.8958 17.6039C81.2329 16.9573 81.5551 16.3027 81.9351 15.6773C82.1764 15.2825 82.4787 14.9463 82.9067 14.7432L82.9083 14.7416ZM66.2563 17.214C66.2199 17.4577 66.2034 17.7013 66.1406 17.9417C66.0811 18.1773 65.982 18.395 65.8845 18.6126C65.5574 19.3453 65.174 20.0519 64.7907 20.7553C64.4239 21.4262 64.0438 22.0906 63.6671 22.7566C63.6076 22.8606 63.5564 22.8947 63.4721 22.7517C63.0937 22.1133 62.7319 21.4684 62.3783 20.817C61.9982 20.1169 61.6447 19.4037 61.263 18.7036C60.916 18.0668 60.6153 17.4089 60.2865 16.764C60.0518 16.3059 59.8387 15.8332 59.7329 15.3231C59.6586 14.9657 59.7197 14.8325 60.0915 14.6863C60.3575 14.5807 60.6467 14.5629 60.9325 14.5288C61.3654 14.4768 61.7983 14.519 62.1569 14.4979C62.4791 14.4979 62.7286 14.4963 62.9764 14.4979C63.5052 14.5028 64.0339 14.5385 64.5494 14.6522C64.9625 14.7432 65.2864 15.0047 65.559 15.315C65.8465 15.6431 66.0861 16.0054 66.2084 16.4294C66.2827 16.6877 66.2959 16.9427 66.2563 17.214ZM103.488 23.2716C103.622 22.7014 103.704 22.1231 103.716 21.5383C103.723 21.15 103.731 20.7618 103.691 20.3719C103.658 20.0356 103.63 19.6978 103.561 19.3696C103.395 18.5931 103.131 17.8524 102.743 17.1506C102.169 16.1126 101.383 15.2598 100.428 14.5596C99.5868 13.944 98.6516 13.4891 97.6619 13.1399C96.4045 12.698 95.1024 12.4608 93.7756 12.391C92.7842 12.339 91.7895 12.365 90.8015 12.521C90.0298 12.6428 89.2681 12.7971 88.5246 13.0359C87.3613 13.4095 86.2758 13.931 85.2844 14.6409C84.6334 15.1071 84.0534 15.6415 83.5478 16.2523C83.0438 16.8615 82.6522 17.5405 82.3482 18.265C82.0128 19.0642 81.8161 19.9008 81.7715 20.7601C81.7269 21.6065 81.755 22.4528 81.945 23.2894C82.1582 24.2267 82.5184 25.0974 83.0603 25.8902C83.4486 26.4587 83.9146 26.9639 84.445 27.4139C84.9489 27.8411 85.4926 28.2066 86.0725 28.5169C86.7979 28.9051 87.5629 29.2008 88.3593 29.4233C89.4532 29.7271 90.5635 29.9123 91.7003 29.9561C91.7449 29.9578 91.8027 29.9318 91.8292 29.9967H93.3956C93.422 29.9318 93.4799 29.9561 93.5245 29.9578C93.9144 29.9724 94.3011 29.9204 94.6844 29.8733C95.1619 29.8165 95.6361 29.7336 96.107 29.6312C97.0026 29.4347 97.8717 29.165 98.7061 28.7914C99.3357 28.5088 99.9289 28.1628 100.486 27.7583C101.138 27.2839 101.713 26.73 102.189 26.0851C102.815 25.2355 103.25 24.2966 103.491 23.2732L103.488 23.2716ZM96.7531 22.5974C96.7168 23.8109 96.5647 25.0065 96.0707 26.1322C95.7006 26.9769 95.1123 27.6316 94.2003 27.9337C93.7277 28.0897 93.237 28.127 92.7313 28.0702C92.1547 28.0036 91.6474 27.8005 91.1782 27.4821C90.6478 27.1215 90.2661 26.6325 89.9422 26.0916C89.4482 25.2647 89.1657 24.3664 88.9839 23.4307C88.8666 22.8281 88.7939 22.2205 88.7526 21.6065C88.7129 21.0152 88.7129 20.4255 88.7327 19.8358C88.7559 19.1763 88.8368 18.5184 88.9888 17.8719C89.1243 17.2985 89.3028 16.7396 89.5837 16.2182C89.9505 15.5376 90.4429 14.969 91.1484 14.6116C91.4839 14.441 91.8474 14.3501 92.2307 14.3062C92.9924 14.2185 93.6748 14.3891 94.2977 14.8147C94.843 15.1883 95.2412 15.6902 95.5568 16.2556C96.0525 17.1409 96.3334 18.1026 96.5201 19.0886C96.6259 19.6442 96.6837 20.2078 96.725 20.7732C96.7547 21.1695 96.73 21.5626 96.7531 21.8875C96.7531 22.1718 96.7581 22.3846 96.7531 22.599V22.5974ZM48.8954 24.3226C48.8095 24.3226 48.7599 24.3599 48.7153 24.4249C48.441 24.8196 48.1056 25.1592 47.7272 25.4597C46.9589 26.0721 46.0617 26.358 45.0967 26.4409C44.6638 26.4782 44.2292 26.4977 43.7864 26.462C43.1552 26.4116 42.5373 26.3352 41.9276 26.1614C40.6503 25.7992 39.5697 25.1462 38.7419 24.1146C37.8182 22.9629 37.3969 21.6471 37.4448 20.1867C37.4547 19.8927 37.539 19.7839 37.7968 19.7124C37.924 19.6783 38.0595 19.6588 38.1966 19.6588C41.2732 19.662 44.3498 19.662 47.4265 19.6604C47.785 19.6604 48.1452 19.6799 48.5005 19.6214C48.7285 19.584 48.9549 19.5369 49.1597 19.4184C49.5513 19.1926 49.6455 18.8173 49.672 18.4161C49.6918 18.1139 49.6389 17.815 49.6042 17.5145C49.5447 16.9963 49.3845 16.5057 49.1647 16.0379C48.8574 15.3816 48.4245 14.8147 47.8775 14.3225C47.4579 13.9456 46.9985 13.6304 46.5012 13.3689C45.3049 12.737 44.0045 12.4755 42.6678 12.3894C42.0961 12.352 41.5178 12.3601 40.9411 12.4089C40.4025 12.4544 39.8737 12.5307 39.345 12.6331C37.9802 12.8962 36.7161 13.4047 35.5595 14.1568C34.778 14.6636 34.0774 15.2679 33.4859 15.9924C32.9555 16.6438 32.4961 17.3358 32.1723 18.1042C31.6468 19.3518 31.3792 20.6464 31.4783 22.0077C31.5113 22.4772 31.5659 22.9418 31.6716 23.3999C31.8699 24.2608 32.1971 25.0698 32.6779 25.817C33.1438 26.5383 33.6957 27.1865 34.3732 27.729C34.849 28.1108 35.3497 28.4503 35.8916 28.7313C36.7591 29.1813 37.6778 29.4997 38.6378 29.6962C39.3103 29.8343 39.9861 29.9415 40.6751 29.9561C40.7197 29.9561 40.7775 29.9318 40.804 29.9967H42.1473C42.3142 29.8993 42.5042 29.948 42.6794 29.9285C43.4113 29.8522 44.1251 29.7027 44.8224 29.4802C45.751 29.1829 46.6168 28.7589 47.4165 28.2034C47.8181 27.924 48.1849 27.6023 48.5434 27.2726C48.7401 27.0906 48.9069 26.8794 49.0821 26.6764C49.4324 26.267 49.7447 25.8301 50.0057 25.359C50.0454 25.2891 50.0355 25.2209 50.0256 25.138C49.9578 24.5776 49.3167 24.3274 48.897 24.3209L48.8954 24.3226ZM37.8315 17.123C37.9223 16.3498 38.3718 15.7893 38.9286 15.3004C39.4937 14.8033 40.1579 14.4865 40.9097 14.3501C41.5244 14.238 42.1291 14.251 42.7223 14.454C43.5022 14.7221 43.988 15.2419 44.1301 16.0574C44.1896 16.3936 44.1797 16.725 44.1235 17.0564C44.0706 17.3781 43.831 17.5259 43.5468 17.6201C43.1156 17.763 42.6711 17.8394 42.2151 17.841C41.6995 17.841 41.1824 17.841 40.6668 17.841C40.1017 17.841 39.535 17.8508 38.9699 17.8361C38.6973 17.8296 38.4263 17.7907 38.1603 17.7046C37.9306 17.6315 37.805 17.3423 37.8315 17.123ZM142.987 28.4682C143.01 28.7248 143.018 28.9863 142.882 29.23C142.74 29.4867 142.565 29.5744 142.273 29.5078C142.231 29.4981 142.19 29.4834 142.147 29.4818C141.671 29.4672 141.194 29.4574 140.718 29.4445C138.277 29.3697 135.837 29.4152 133.397 29.4168C132.891 29.4168 132.379 29.412 131.875 29.4542C131.482 29.4883 131.085 29.4444 130.693 29.5159C130.488 29.5533 130.35 29.4509 130.239 29.2804C130.039 28.9685 130.046 28.4974 130.232 28.1823C130.323 28.0296 130.46 28.0604 130.579 28.0295C130.873 27.9548 131.181 27.9369 131.472 27.8444C131.695 27.7729 131.723 27.7047 131.627 27.487C131.473 27.1361 131.245 26.8307 131.016 26.5286C130.51 25.8658 129.998 25.2063 129.484 24.55C128.843 23.7313 128.193 22.9174 127.556 22.0955C127.372 21.8583 127.187 21.626 126.934 21.457C126.655 21.2702 126.335 21.2426 126.014 21.2865C125.778 21.319 125.609 21.6357 125.608 21.9834C125.606 22.625 125.608 23.265 125.608 23.9067C125.608 24.5484 125.591 25.1526 125.612 25.7748C125.627 26.2053 125.664 26.6374 125.793 27.0565C125.941 27.5373 126.295 27.7713 126.764 27.8785C127.225 27.9841 127.698 28.0003 128.164 28.0555C128.329 28.075 128.416 28.166 128.461 28.2862C128.59 28.6306 128.613 28.9766 128.415 29.3129C128.344 29.4331 128.268 29.4883 128.109 29.4867C127.577 29.4834 127.043 29.4591 126.513 29.4331C125.743 29.3973 124.975 29.4461 124.208 29.4006C123.197 29.3405 122.186 29.3567 121.176 29.3811C120.439 29.399 119.699 29.3681 118.964 29.4136C118.542 29.4396 118.118 29.399 117.703 29.4526C117.339 29.4997 116.976 29.4363 116.616 29.5078C116.49 29.5322 116.391 29.4087 116.333 29.3031C116.133 28.9392 116.135 28.5689 116.331 28.2034C116.384 28.1059 116.464 28.0702 116.584 28.0572C117.143 27.9922 117.706 27.9906 118.258 27.8525C118.914 27.6884 119.149 27.2466 119.236 26.73C119.35 26.064 119.352 25.3914 119.352 24.7189C119.349 18.369 119.352 12.0206 119.347 5.67065C119.347 5.36038 119.32 5.04525 119.211 4.74798C119.073 4.36948 118.777 4.13393 118.43 3.952C118.192 3.82854 117.947 3.71646 117.706 3.59788C117.412 3.4533 117.232 3.07643 117.311 2.76291C117.328 2.69956 117.351 2.63782 117.371 2.57609C117.425 2.40715 117.519 2.28856 117.714 2.24795C119.405 1.89707 121.037 1.35938 122.668 0.808694C123.388 0.565027 124.109 0.326223 124.816 0.0468183C125.1 -0.0652685 125.561 0.0338315 125.761 0.238512C125.806 0.283996 125.817 0.3181 125.807 0.3912C125.773 0.649487 125.774 0.912656 125.769 1.17094C125.758 1.72488 125.738 2.27881 125.712 2.8295C125.674 3.6401 125.728 4.45071 125.677 5.25806C125.636 5.92246 125.65 6.58523 125.65 7.24801C125.646 11.1922 125.649 15.1363 125.646 19.0805C125.646 19.2218 125.679 19.3566 125.695 19.4931C125.713 19.6442 125.92 19.7692 126.12 19.7822C127.053 19.8407 127.903 19.6035 128.666 19.0723C128.787 18.9895 128.894 18.8872 129 18.7865C129.454 18.3446 129.912 17.9027 130.358 17.4528C130.806 16.9996 131.255 16.5463 131.681 16.0736C131.931 15.7975 132.182 15.5164 132.306 15.1509C132.37 14.9641 132.318 14.8472 132.159 14.7611C131.942 14.6441 131.7 14.6067 131.458 14.5726C131.095 14.5206 130.733 14.4687 130.369 14.4151C130.188 14.3891 130.084 14.2786 130.014 14.1162C129.859 13.7588 129.91 13.3283 130.138 13.0879C130.242 12.9774 130.363 12.9319 130.513 12.9319C131.272 12.9336 132.03 12.9254 132.788 12.9352C133.309 12.9417 133.828 12.8962 134.348 12.8881C134.822 12.8816 135.295 12.8377 135.771 12.8198C136.311 12.7987 136.852 12.7549 137.392 12.7126C137.955 12.6688 138.519 12.6314 139.079 12.5632C139.546 12.5063 140.016 12.4771 140.48 12.3878C140.647 12.3553 140.769 12.4202 140.862 12.5729C141.083 12.9384 141.1 13.3007 140.911 13.6824C140.868 13.7685 140.802 13.8205 140.72 13.8368C140.32 13.9163 139.918 13.9959 139.515 14.0593C138.476 14.225 137.529 14.623 136.637 15.1591C135.626 15.7666 134.669 16.4537 133.722 17.1523C133.403 17.3862 133.084 17.6282 132.807 17.9076C132.389 18.3267 132.428 18.5444 132.722 18.9733C133.152 19.6003 133.595 20.2176 134.052 20.8251C134.603 21.5529 135.158 22.2774 135.721 22.997C136.243 23.6647 136.776 24.3242 137.311 24.9788C137.622 25.359 137.944 25.7342 138.279 26.0965C138.497 26.3304 138.729 26.5497 138.947 26.782C139.388 27.2498 139.955 27.4902 140.561 27.6608C141.248 27.8541 141.957 27.9386 142.658 28.0653C142.828 28.0962 142.965 28.2358 142.987 28.473V28.4682ZM111.107 17.3439C110.958 18.8271 111.065 20.3134 111.031 21.5366C111.031 22.8914 111.013 23.9847 111.037 25.0763C111.051 25.7082 111.042 26.345 111.178 26.972C111.308 27.5763 111.634 27.9451 112.3 28.0279C112.733 28.0815 113.169 28.0962 113.602 28.1433C113.822 28.166 114.043 28.1384 114.261 28.1985C114.514 28.2667 114.671 28.4243 114.682 28.6858C114.692 28.8775 114.702 29.0708 114.651 29.2641C114.57 29.5695 114.38 29.693 114.061 29.6296C114.036 29.6248 114.012 29.6248 113.987 29.6264C113.478 29.6524 112.972 29.602 112.465 29.5858C111.069 29.5435 109.673 29.5533 108.276 29.5517C107.007 29.5517 105.737 29.5354 104.468 29.5614C104.06 29.5695 103.648 29.5468 103.245 29.5988C102.906 29.641 102.566 29.576 102.232 29.6605C102.159 29.6784 102.097 29.6507 102.032 29.5955C101.72 29.3307 101.698 28.577 101.978 28.2748C102.055 28.1904 102.168 28.1806 102.262 28.1757C102.607 28.1628 102.949 28.1238 103.291 28.0945C103.579 28.0702 103.861 28.0198 104.113 27.8704C104.463 27.664 104.588 27.318 104.658 26.9542C104.747 26.4847 104.773 26.0071 104.773 25.5295C104.773 22.8622 104.778 20.1932 104.768 17.5259C104.768 17.1149 104.722 16.7007 104.45 16.3465C104.319 16.1776 104.151 16.0639 103.974 15.9599C103.752 15.8316 103.524 15.7162 103.296 15.5993C103.053 15.4758 102.857 15.0827 102.915 14.8244C102.934 14.7367 102.961 14.6522 102.984 14.5645C103.03 14.3891 103.154 14.2932 103.326 14.251C104.874 13.8676 106.393 13.3884 107.885 12.8312C108.622 12.5567 109.357 12.2805 110.048 11.9053C110.388 11.7201 110.667 11.8419 110.942 12.0206C111.077 12.1084 111.105 12.2253 111.084 12.4073C111.039 12.7711 110.986 13.135 110.953 13.5021C110.938 13.6711 110.91 13.8384 110.917 14.009C110.928 14.3225 111.242 14.5174 111.523 14.3745C111.958 14.1535 112.346 13.8579 112.757 13.6012C113.397 13.2016 114.041 12.8133 114.775 12.5973C115.277 12.4495 115.791 12.3471 116.315 12.3861C116.943 12.4316 117.516 12.6363 118.004 13.0505C118.474 13.4518 118.734 13.9472 118.793 14.558C118.864 15.2793 118.712 15.9274 118.233 16.4911C117.762 17.0467 117.128 17.3001 116.427 17.4252C116.236 17.4593 116.039 17.4918 115.846 17.4966C115.145 17.5113 114.53 17.2725 113.98 16.855C113.516 16.5041 113.04 16.1678 112.472 15.9843C112.278 15.9226 112.083 15.9079 111.888 15.9274C111.624 15.9534 111.469 16.1353 111.36 16.3546C111.203 16.6649 111.143 17.0028 111.108 17.3423L111.107 17.3439Z" fill="#F2F2F2"/>
</svg>
