<?xml version="1.0" encoding="UTF-8"?>
<svg id="Layer_2" xmlns="http://www.w3.org/2000/svg" viewBox="0 0 481.51 142.32">
  <defs>
    <style>
      .cls-1 {
        fill: #171614;
      }
    </style>
  </defs>
  <g id="Layer_1-2" data-name="Layer_1">
    <g>
      <g>
        <path class="cls-1" d="M156.47,118.56c.53-.41,1-.94,1.42-1.59.35-.53.69-1.24,1.02-2.13.32-.89.49-1.92.49-3.1v-45.89c0-1.18-.15-2.2-.44-3.06-.3-.86-.62-1.58-.97-2.17-.41-.65-.89-1.18-1.42-1.59h36.59c3.48,0,6.44.53,8.86,1.59,2.42,1.06,4.31,2.42,5.67,4.08,1.36,1.65,2.18,3.47,2.48,5.45.29,1.98.06,3.9-.71,5.76-.77,1.86-2.08,3.51-3.94,4.96-1.86,1.45-4.24,2.47-7.13,3.06,3.6.53,6.58,1.76,8.95,3.68,2.36,1.92,4.08,4.16,5.14,6.73,1.06,2.57,1.49,5.27,1.28,8.11-.21,2.83-1.05,5.45-2.52,7.84-1.48,2.39-3.6,4.37-6.38,5.94-2.78,1.57-6.2,2.35-10.28,2.35h-38.09ZM180.04,83.65h2.75c1.83,0,3.37-.59,4.61-1.77,1.24-1.18,2.18-2.66,2.83-4.43.65-1.77,1-3.68,1.06-5.71.06-2.04-.21-3.94-.8-5.71-.59-1.77-1.51-3.25-2.75-4.43-1.24-1.18-2.81-1.77-4.7-1.77h-3.01v23.83ZM180.04,117.67h2.57c2.83.06,5.23-.71,7.18-2.3,1.95-1.59,3.41-3.57,4.39-5.94.97-2.36,1.51-4.96,1.59-7.8.09-2.83-.31-5.48-1.2-7.93-.89-2.45-2.23-4.53-4.03-6.25-1.8-1.71-4.09-2.69-6.87-2.92h-3.63v33.13Z"/>
        <path class="cls-1" d="M217.42,108.1c0-3.19.71-5.76,2.13-7.71,1.42-1.95,3.19-3.51,5.32-4.7,2.13-1.18,4.43-2.13,6.91-2.83,2.48-.71,4.78-1.45,6.91-2.21,2.13-.77,3.9-1.7,5.32-2.79,1.42-1.09,2.13-2.61,2.13-4.56,0-1.36-.07-2.64-.22-3.85-.15-1.21-.44-2.29-.89-3.23-.44-.94-1.05-1.68-1.82-2.21-.77-.53-1.77-.8-3.01-.8-.95,0-1.74.22-2.39.66-.65.44-1.21,1.03-1.68,1.77-.47.74-.84,1.58-1.11,2.52-.27.95-.46,1.89-.58,2.83-.3,2.3-.35,4.9-.18,7.8-2.72,0-5.11-.29-7.18-.89-1.77-.47-3.4-1.21-4.87-2.21-1.48-1-2.21-2.45-2.21-4.34,0-1.12.41-2.24,1.24-3.37.83-1.12,2.17-2.11,4.03-2.97,1.86-.86,4.27-1.55,7.22-2.08,2.95-.53,6.56-.8,10.81-.8,7.5,0,13.04,1.8,16.61,5.4,3.57,3.6,5.36,8.89,5.36,15.86v18.52c0,1.18.15,2.19.44,3.01.29.83.62,1.51.97,2.04.41.65.86,1.18,1.33,1.59h-21.88v-12.05c-.12,2.6-.9,4.83-2.35,6.69-1.45,1.86-3.23,3.31-5.36,4.34-2.13,1.03-4.42,1.64-6.87,1.82-2.45.18-4.73-.12-6.82-.89-2.1-.77-3.84-2.01-5.23-3.72-1.39-1.71-2.08-3.93-2.08-6.64ZM246.12,86.93c-.12.77-.49,1.48-1.11,2.13-.62.65-1.36,1.33-2.21,2.04-.86.71-1.77,1.51-2.75,2.39-.97.89-1.88,1.92-2.7,3.1-.83,1.18-1.52,2.58-2.08,4.21-.56,1.62-.84,3.53-.84,5.71,0,2.3.6,4.11,1.82,5.4,1.21,1.3,2.55,1.86,4.03,1.68,1.48-.18,2.82-1.21,4.03-3.1,1.21-1.89,1.82-4.9,1.82-9.04v-14.53Z"/>
        <path class="cls-1" d="M292.55,114.88c.29.86.62,1.55.97,2.08.41.65.89,1.18,1.42,1.59h-25.16c.53-.41,1-.94,1.42-1.59.35-.53.68-1.24.97-2.13.29-.89.44-1.92.44-3.1v-29.06c0-1.18-.15-2.18-.44-3.01-.3-.83-.62-1.54-.97-2.13-.41-.65-.89-1.21-1.42-1.68l22.41-3.54v14.09c.83-3.42,2.01-6.17,3.54-8.24,1.54-2.07,3.23-3.57,5.09-4.52,1.86-.94,3.73-1.42,5.63-1.42s3.62.33,5.18.97c1.56.65,2.85,1.58,3.85,2.79,1,1.21,1.51,2.56,1.51,4.03s-.22,2.61-.66,3.59c-.44.97-1.02,1.8-1.73,2.48-.71.68-1.51,1.23-2.39,1.64-.89.41-1.8.71-2.75.89-2.19.47-4.67.53-7.44.18.65-.41,1.18-1.27,1.59-2.57.41-1.3.6-2.64.58-4.03-.03-1.39-.33-2.63-.89-3.72-.56-1.09-1.49-1.64-2.79-1.64-1.42,0-2.64.68-3.68,2.04-1.03,1.36-1.89,3.12-2.57,5.27-.68,2.16-1.2,4.53-1.55,7.13-.35,2.6-.53,5.14-.53,7.62l-.09,12.93c0,1.18.15,2.2.44,3.06Z"/>
        <path class="cls-1" d="M341.63,114.88c.29.86.62,1.55.97,2.08.41.65.89,1.18,1.42,1.59h-25.16c.53-.41,1-.94,1.42-1.59.35-.53.68-1.24.97-2.13.29-.89.44-1.92.44-3.1v-29.06c0-1.18-.15-2.18-.44-3.01-.3-.83-.62-1.54-.97-2.13-.41-.65-.89-1.21-1.42-1.68l22.41-3.54v14.09c.83-3.42,2.01-6.17,3.54-8.24,1.54-2.07,3.23-3.57,5.09-4.52,1.86-.94,3.73-1.42,5.63-1.42s3.62.33,5.18.97c1.56.65,2.85,1.58,3.85,2.79,1,1.21,1.51,2.56,1.51,4.03s-.22,2.61-.66,3.59c-.44.97-1.02,1.8-1.73,2.48-.71.68-1.51,1.23-2.39,1.64-.89.41-1.8.71-2.75.89-2.19.47-4.67.53-7.44.18.65-.41,1.18-1.27,1.59-2.57.41-1.3.6-2.64.58-4.03-.03-1.39-.33-2.63-.89-3.72-.56-1.09-1.49-1.64-2.79-1.64-1.42,0-2.64.68-3.68,2.04-1.03,1.36-1.89,3.12-2.57,5.27-.68,2.16-1.2,4.53-1.55,7.13-.35,2.6-.53,5.14-.53,7.62l-.09,12.93c0,1.18.15,2.2.44,3.06Z"/>
        <path class="cls-1" d="M420.56,95.7c0,3.54-.68,6.78-2.04,9.7-1.36,2.92-3.2,5.4-5.54,7.44-2.33,2.04-5.08,3.62-8.24,4.74-3.16,1.12-6.51,1.68-10.06,1.68s-6.9-.56-10.06-1.68c-3.16-1.12-5.91-2.7-8.24-4.74-2.33-2.04-4.18-4.52-5.54-7.44-1.36-2.92-2.04-6.16-2.04-9.7s.68-6.78,2.04-9.7c1.36-2.92,3.2-5.4,5.54-7.44,2.33-2.04,5.08-3.62,8.24-4.74,3.16-1.12,6.51-1.68,10.06-1.68s6.9.56,10.06,1.68c3.16,1.12,5.91,2.7,8.24,4.74,2.33,2.04,4.18,4.52,5.54,7.44,1.36,2.92,2.04,6.16,2.04,9.7ZM394.69,117.76c.89,0,1.73-.58,2.52-1.73s1.49-2.73,2.08-4.74c.59-2.01,1.06-4.35,1.42-7.04.35-2.69.53-5.54.53-8.55s-.18-5.86-.53-8.55c-.35-2.69-.83-5.03-1.42-7.04-.59-2.01-1.28-3.59-2.08-4.74s-1.64-1.73-2.52-1.73-1.73.58-2.52,1.73-1.49,2.73-2.08,4.74c-.59,2.01-1.06,4.36-1.42,7.04-.35,2.69-.53,5.54-.53,8.55s.18,5.86.53,8.55c.35,2.69.83,5.04,1.42,7.04.59,2.01,1.28,3.59,2.08,4.74s1.64,1.73,2.52,1.73Z"/>
        <path class="cls-1" d="M479.12,114.88c.29.86.62,1.55.97,2.08.41.65.89,1.18,1.42,1.59h-25.25c.53-.41,1-.94,1.42-1.59.35-.53.68-1.24.97-2.13.29-.89.44-1.92.44-3.1v-23.03c0-2.95-.33-5.3-.97-7.04-.65-1.74-1.48-3-2.48-3.77-1-.77-2.08-1.14-3.23-1.11-1.15.03-2.23.37-3.23,1.02-1,.65-1.83,1.51-2.48,2.57-.65,1.06-.97,2.25-.97,3.54h-.09v27.91c0,1.18.15,2.2.44,3.06.29.86.62,1.55.97,2.08.41.65.89,1.18,1.42,1.59h-25.25c.53-.41,1-.94,1.42-1.59.35-.53.68-1.24.97-2.13.29-.89.44-1.92.44-3.1v-29.06c0-1.18-.15-2.18-.44-3.01-.3-.83-.62-1.54-.97-2.13-.41-.65-.89-1.21-1.42-1.68l22.5-3.54v7.62c1.12-1.95,2.7-3.56,4.74-4.83,2.04-1.27,4.28-2.14,6.73-2.61,2.45-.47,4.95-.49,7.49-.04,2.54.44,4.84,1.4,6.91,2.88,2.07,1.48,3.77,3.49,5.09,6.02,1.33,2.54,1.99,5.7,1.99,9.48v21c0,1.18.15,2.2.44,3.06Z"/>
      </g>
      <path class="cls-1" d="M56.88,24.34c9.92-7.52,19.75-14.96,29.82-22.59-1.42,15.28-2.8,30.22-4.21,45.46-6.13-10.44-14.31-18.36-25.61-22.87ZM107.18,75.4c-1.94,3.06-3.45,6.38-5.84,9.15-3.25,3.77-7.34,5.96-12.35,6-11.07.1-22.15.09-33.22.1-3.73,0-7.26.85-10.62,2.41-10.82,5.03-13.74,17.3-6.36,26.67,1.24,1.58,2.61,3.03,4.59,4.36-.69-6.12.2-11.69,3.41-16.71,3.21-5.03,7.64-8.44,13.71-10.04-8.21,15.76-8.03,28.8-6.44,44.98,0,0-14.96-9.82-19.06-12.89-5.86-4.39-12.09-8.29-17.44-13.33C8.01,107.11,2.06,96.21.42,83.16c-1.5-11.94,1.03-23.15,7.18-33.43,6.19-10.34,11.96-20.91,17.77-31.46,3.23-5.86,6.46-11.72,9.67-17.59.33-.6.49-1.09,1.1-.14l20.71,32.51-8.64.16-12.27-20.9v34.86c9.53-3.93,19.37-5.02,29.6-2.04,4.25,1.24,8.24,3.24,11.31,6.41,6.84,7.06,14.97,12.39,22.99,17.89,2.34,1.61,4.64,3.26,6.97,4.87.44.3.74.53.37,1.11ZM54.05,52.41c2.75,6.09,10.49,9.95,17.09,8.56-.73-1.58-1.47-3.14-2.58-4.48-1.67-2.03-3.73-3.58-6.38-3.95-2.68-.37-5.39-.13-8.14-.13ZM97.79,79.36c-1.25-1.19-2.13-2.64-2.58-4.3-.13-.49-.38-.7-.82-.87-7.99-3.11-15.95-6.29-24.16-8.78-9.82-2.97-19.79-5.17-30.07-5.65-7.24-.33-14.49-.06-21.74-.12-.47,0-.79.09-1.09.49-3.4,4.6-5.52,9.69-5.89,15.45-.68,10.78,3.28,19.69,10.88,27.14.44.43.84.94,1.51,1.13-.27-3.85-.24-7.64.67-11.4,1.87-7.73,6.66-13.23,13.14-17.49.53-.35.77-.07,1.11.19,2.3,1.77,4.83,3.12,7.63,3.9,4.31,1.19,8.76,1.54,13.18,1.96,9.48.91,18.94,2.06,28.41,3.04,3.76.39,7.24-.03,9.89-3.17.54-.64.5-.97-.07-1.51Z"/>
    </g>
  </g>
</svg>