<svg width="32" height="32" viewBox="0 0 32 32" fill="none" xmlns="http://www.w3.org/2000/svg">
<path d="M28 0H4C1.79086 0 0 1.79086 0 4V28C0 30.2091 1.79086 32 4 32H28C30.2091 32 32 30.2091 32 28V4C32 1.79086 30.2091 0 28 0Z" fill="#FF8400"/>
<path d="M16.919 8.50309L21.694 4.8864C21.4671 7.3333 21.2455 9.72524 21.0192 12.1655C20.0375 10.4939 18.7283 9.22598 16.919 8.50309ZM24.9739 16.6788C24.6639 17.168 24.4209 17.6999 24.039 18.1432C23.5182 18.7475 22.8644 19.097 22.0617 19.1041C20.2892 19.1197 18.5156 19.1184 16.7426 19.1198C16.1541 19.1217 15.5733 19.2535 15.0417 19.5059C13.31 20.3109 12.8412 22.2758 14.0228 23.7766C14.2279 24.0479 14.4761 24.2838 14.7574 24.4749C14.6468 23.4949 14.7901 22.6024 15.3026 21.7991C15.7948 20.9963 16.5827 20.4191 17.4965 20.192C16.1812 22.7146 16.2115 24.8039 16.4658 27.3937C16.4658 27.3937 14.0697 25.8211 13.4144 25.3305C12.4765 24.6284 11.4793 24.0033 10.6224 23.1954C9.09528 21.7558 8.14169 20.0106 7.87975 17.9203C7.64019 16.0089 8.04465 14.2141 9.02983 12.5669C10.0205 10.9108 10.9441 9.21882 11.8747 7.52981C12.3916 6.59156 12.9079 5.65289 13.4234 4.7138C13.4759 4.61801 13.5015 4.5395 13.5994 4.69089L16.9153 9.8956L15.5316 9.92111L13.5669 6.57434V12.1563C15.0926 11.5273 16.6688 11.3527 18.3065 11.8292C18.9863 12.0269 19.6251 12.3484 20.1172 12.8559C21.2127 13.9856 22.5142 14.8393 23.7978 15.7206C24.1721 15.9776 24.5409 16.2429 24.9143 16.501C24.9842 16.5492 25.0328 16.5858 24.9739 16.6788ZM16.4658 12.9971C16.9062 13.972 18.145 14.5906 19.2028 14.3684C19.0968 14.1124 18.9582 13.8711 18.7903 13.6506C18.5224 13.3255 18.1936 13.0768 17.7689 13.0181C17.3402 12.959 16.9057 12.9979 16.4658 12.9971ZM23.4699 17.3132C23.2711 17.1261 23.1283 16.8875 23.0573 16.6239C23.0501 16.5909 23.0341 16.5605 23.011 16.5359C22.9879 16.5113 22.9586 16.4935 22.9261 16.4842C21.6471 15.9866 20.3726 15.4776 19.0575 15.0792C17.485 14.6029 15.8884 14.2507 14.2426 14.175C13.0833 14.1218 11.922 14.1653 10.7615 14.1552C10.7279 14.1514 10.6939 14.1567 10.6631 14.1706C10.6323 14.1846 10.6059 14.2066 10.5866 14.2345C10.0418 14.9716 9.70232 15.7861 9.64378 16.708C9.53429 18.4333 10.1692 19.8605 11.3865 21.0532C11.4498 21.1335 11.5332 21.1956 11.6282 21.2333C11.5854 20.617 11.5896 20.0094 11.7349 19.4081C12.0338 18.1708 12.8002 17.2894 13.8387 16.6078C13.9233 16.5523 13.9623 16.5967 14.016 16.6381C14.3787 16.9237 14.7937 17.1356 15.2377 17.2619C15.9276 17.452 16.6403 17.5077 17.3482 17.5758C18.8666 17.7215 20.3806 17.9061 21.8976 18.0626C22.4989 18.1246 23.0565 18.0576 23.4812 17.5554C23.5679 17.4528 23.5618 17.4005 23.4699 17.3132Z" fill="#171614"/>
</svg>
