<?xml version="1.0" encoding="UTF-8"?>
<svg id="Layer_2" xmlns="http://www.w3.org/2000/svg" viewBox="0 0 107.35 142.32">
  <defs>
    <style>
      .cls-1 {
        fill: #171614;
      }
    </style>
  </defs>
  <g id="Layer_1-2" data-name="Layer_1">
    <path class="cls-1" d="M56.88,24.34c9.92-7.52,19.75-14.96,29.82-22.59-1.42,15.28-2.8,30.22-4.21,45.46-6.13-10.44-14.31-18.36-25.61-22.87ZM107.18,75.4c-1.94,3.06-3.45,6.38-5.84,9.15-3.25,3.77-7.34,5.96-12.35,6-11.07.1-22.15.09-33.22.1-3.73,0-7.26.85-10.62,2.41-10.82,5.03-13.74,17.3-6.36,26.67,1.24,1.58,2.61,3.03,4.59,4.36-.69-6.12.2-11.69,3.41-16.71,3.21-5.03,7.64-8.44,13.71-10.04-8.21,15.76-8.03,28.8-6.44,44.98,0,0-14.96-9.82-19.06-12.89-5.86-4.39-12.09-8.29-17.44-13.33C8.01,107.11,2.06,96.21.42,83.16c-1.5-11.94,1.03-23.15,7.18-33.43,6.19-10.34,11.96-20.91,17.77-31.46,3.23-5.86,6.46-11.72,9.67-17.59.33-.6.49-1.09,1.1-.14l20.71,32.51-8.64.16-12.27-20.9v34.86c9.53-3.93,19.37-5.02,29.6-2.04,4.25,1.24,8.24,3.24,11.31,6.41,6.84,7.06,14.97,12.39,22.99,17.89,2.34,1.61,4.64,3.26,6.97,4.87.44.3.74.53.37,1.11ZM54.05,52.41c2.75,6.09,10.49,9.95,17.09,8.56-.73-1.58-1.47-3.14-2.58-4.48-1.67-2.03-3.73-3.58-6.38-3.95-2.68-.37-5.39-.13-8.14-.13ZM97.79,79.36c-1.25-1.19-2.13-2.64-2.58-4.3-.13-.49-.38-.7-.82-.87-7.99-3.11-15.95-6.29-24.16-8.78-9.82-2.97-19.79-5.17-30.07-5.65-7.24-.33-14.49-.06-21.74-.12-.47,0-.79.09-1.09.49-3.4,4.6-5.52,9.69-5.89,15.45-.68,10.78,3.28,19.69,10.88,27.14.44.43.84.94,1.51,1.13-.27-3.85-.24-7.64.67-11.4,1.87-7.73,6.66-13.23,13.14-17.49.53-.35.77-.07,1.11.19,2.3,1.77,4.83,3.12,7.63,3.9,4.31,1.19,8.76,1.54,13.18,1.96,9.48.91,18.94,2.06,28.41,3.04,3.76.39,7.24-.03,9.89-3.17.54-.64.5-.97-.07-1.51Z"/>
  </g>
</svg>