<svg width="519" height="77" viewBox="0 0 519 77" fill="none" xmlns="http://www.w3.org/2000/svg">
<path d="M0.719727 51.9998C1.15173 51.6638 1.53573 51.2318 1.87173 50.7038C2.15973 50.2718 2.42373 49.6958 2.66373 48.9758C2.95173 48.2558 3.09573 47.4158 3.09573 46.4558V9.15984C3.09573 8.19984 2.97573 7.38384 2.73573 6.71184C2.49573 5.99184 2.23173 5.39184 1.94373 4.91184C1.60773 4.38384 1.22373 3.95184 0.791727 3.61584H30.5277C33.3597 3.61584 35.7597 4.04784 37.7277 4.91184C39.6957 5.77584 41.2317 6.87984 42.3357 8.22384C43.4397 9.56784 44.1117 11.0558 44.3517 12.6878C44.5917 14.2718 44.3997 15.8318 43.7757 17.3678C43.1517 18.8558 42.0717 20.1998 40.5357 21.3998C39.0477 22.5518 37.1277 23.3678 34.7757 23.8478C37.7037 24.2798 40.1277 25.2878 42.0477 26.8718C43.9677 28.4078 45.3597 30.2318 46.2237 32.3438C47.0877 34.4078 47.4237 36.5918 47.2317 38.8958C47.0877 41.1998 46.4157 43.3358 45.2157 45.3038C44.0157 47.2238 42.2877 48.8318 40.0317 50.1278C37.7757 51.3758 34.9917 51.9998 31.6797 51.9998H0.719727ZM19.8717 51.2798H21.9597C24.2637 51.3278 26.2077 50.7038 27.7917 49.4078C29.3757 48.1118 30.5517 46.5038 31.3197 44.5838C32.1357 42.6638 32.5677 40.5518 32.6157 38.2478C32.7117 35.9438 32.3997 33.8078 31.6797 31.8398C30.9597 29.8238 29.8557 28.1198 28.3677 26.7278C26.9277 25.3358 25.0797 24.5438 22.8237 24.3518H19.8717V51.2798ZM19.8717 23.6318H22.1037C23.5917 23.6318 24.8397 23.1518 25.8477 22.1918C26.8557 21.2318 27.6237 20.0318 28.1517 18.5918C28.6797 17.1518 28.9677 15.6158 29.0157 13.9838C29.0637 12.3038 28.8477 10.7438 28.3677 9.30384C27.8877 7.86384 27.1437 6.66384 26.1357 5.70384C25.1277 4.74384 23.8557 4.26384 22.3197 4.26384H19.8717V23.6318Z" fill="#FF8400"/>
<path d="M50.2366 43.5038C50.2366 40.9118 50.8126 38.8238 51.9646 37.2398C53.1166 35.6558 54.5566 34.3838 56.2846 33.4238C58.0126 32.4638 59.8846 31.6958 61.9006 31.1198C63.9166 30.5438 65.7886 29.9438 67.5166 29.3198C69.2446 28.6958 70.6846 27.9518 71.8366 27.0878C72.9886 26.1758 73.5646 24.9278 73.5646 23.3438C73.5646 22.2398 73.4926 21.2078 73.3486 20.2478C73.2526 19.2398 73.0126 18.3518 72.6286 17.5838C72.2926 16.8158 71.8126 16.2158 71.1886 15.7838C70.5646 15.3518 69.7486 15.1358 68.7406 15.1358C67.9726 15.1358 67.3246 15.3278 66.7966 15.7118C66.2686 16.0478 65.8126 16.5278 65.4286 17.1518C65.0446 17.7278 64.7326 18.3998 64.4926 19.1678C64.3006 19.9358 64.1566 20.7038 64.0606 21.4718C63.8206 23.3438 63.7726 25.4558 63.9166 27.8078C61.7086 27.8078 59.7646 27.5678 58.0846 27.0878C56.6446 26.7038 55.3246 26.1038 54.1246 25.2878C52.9246 24.4718 52.3246 23.2958 52.3246 21.7598C52.3246 20.8478 52.6606 19.9358 53.3326 19.0238C54.0046 18.1118 55.0846 17.3198 56.5726 16.6478C58.1086 15.9278 60.0766 15.3518 62.4766 14.9198C64.8766 14.4878 67.8046 14.2718 71.2606 14.2718C77.3566 14.2718 81.8446 15.7358 84.7246 18.6638C87.6526 21.5918 89.1166 25.8878 89.1166 31.5518V46.5998C89.1166 47.5598 89.2366 48.3758 89.4766 49.0478C89.7166 49.7198 89.9806 50.2718 90.2686 50.7038C90.6046 51.2318 90.9646 51.6638 91.3486 51.9998H73.5646V42.2078C73.4686 44.3198 72.8206 46.1438 71.6206 47.6798C70.4686 49.1678 69.0286 50.3438 67.3006 51.2078C65.5726 52.0238 63.7006 52.5038 61.6846 52.6478C59.7166 52.7918 57.8686 52.5518 56.1406 51.9278C54.4606 51.3038 53.0446 50.2958 51.8926 48.9038C50.7886 47.5118 50.2366 45.7118 50.2366 43.5038ZM73.5646 26.2958C73.4686 26.9198 73.1566 27.4958 72.6286 28.0238C72.1486 28.5518 71.5486 29.1038 70.8286 29.6798C70.1566 30.2558 69.4126 30.9038 68.5966 31.6238C67.8286 32.3438 67.1086 33.1838 66.4366 34.1438C65.7646 35.1038 65.1886 36.2558 64.7086 37.5998C64.2766 38.8958 64.0606 40.4318 64.0606 42.2078C64.0606 44.0798 64.5406 45.5438 65.5006 46.5998C66.5086 47.6558 67.6126 48.1118 68.8126 47.9678C70.0126 47.8238 71.0926 46.9838 72.0526 45.4478C73.0606 43.9118 73.5646 41.4638 73.5646 38.1038V26.2958Z" fill="#FF8400"/>
<path d="M110.975 46.5278C110.975 47.4878 111.095 48.3278 111.335 49.0478C111.575 49.7198 111.839 50.2718 112.127 50.7038C112.463 51.2318 112.847 51.6638 113.279 51.9998H92.7588C93.1908 51.6638 93.5748 51.2318 93.9108 50.7038C94.1988 50.2718 94.4628 49.6958 94.7028 48.9758C94.9428 48.2558 95.0628 47.4158 95.0628 46.4558V22.8398C95.0628 21.8798 94.9428 21.0638 94.7028 20.3918C94.4628 19.7198 94.1988 19.1438 93.9108 18.6638C93.5748 18.1358 93.1908 17.6798 92.7588 17.2958L111.047 14.4158V25.8638C111.719 23.0798 112.679 20.8478 113.927 19.1678C115.175 17.4878 116.543 16.2638 118.031 15.4958C119.567 14.7278 121.103 14.3438 122.639 14.3438C124.175 14.3438 125.567 14.6078 126.815 15.1358C128.111 15.6638 129.167 16.4318 129.983 17.4398C130.799 18.3998 131.207 19.4798 131.207 20.6798C131.207 21.8318 131.015 22.8158 130.631 23.6318C130.295 24.3998 129.839 25.0718 129.263 25.6478C128.687 26.1758 128.039 26.6078 127.319 26.9438C126.599 27.2798 125.855 27.5198 125.087 27.6638C123.311 28.0478 121.295 28.0958 119.039 27.8078C119.567 27.4718 119.999 26.7758 120.335 25.7198C120.671 24.6638 120.815 23.5838 120.767 22.4798C120.767 21.3278 120.527 20.3198 120.047 19.4558C119.615 18.5438 118.871 18.0878 117.815 18.0878C116.663 18.0878 115.655 18.6398 114.791 19.7438C113.975 20.8478 113.279 22.2878 112.703 24.0638C112.175 25.7918 111.767 27.7118 111.479 29.8238C111.191 31.9358 111.047 33.9998 111.047 36.0158L110.975 46.5278Z" fill="#FF8400"/>
<path d="M150.842 46.5278C150.842 47.4878 150.962 48.3278 151.202 49.0478C151.442 49.7198 151.706 50.2718 151.994 50.7038C152.33 51.2318 152.714 51.6638 153.146 51.9998H132.626C133.058 51.6638 133.442 51.2318 133.778 50.7038C134.066 50.2718 134.33 49.6958 134.57 48.9758C134.81 48.2558 134.93 47.4158 134.93 46.4558V22.8398C134.93 21.8798 134.81 21.0638 134.57 20.3918C134.33 19.7198 134.066 19.1438 133.778 18.6638C133.442 18.1358 133.058 17.6798 132.626 17.2958L150.914 14.4158V25.8638C151.586 23.0798 152.546 20.8478 153.794 19.1678C155.042 17.4878 156.41 16.2638 157.898 15.4958C159.434 14.7278 160.97 14.3438 162.506 14.3438C164.042 14.3438 165.434 14.6078 166.682 15.1358C167.978 15.6638 169.034 16.4318 169.85 17.4398C170.666 18.3998 171.074 19.4798 171.074 20.6798C171.074 21.8318 170.882 22.8158 170.498 23.6318C170.162 24.3998 169.706 25.0718 169.13 25.6478C168.554 26.1758 167.906 26.6078 167.186 26.9438C166.466 27.2798 165.722 27.5198 164.954 27.6638C163.178 28.0478 161.162 28.0958 158.906 27.8078C159.434 27.4718 159.866 26.7758 160.202 25.7198C160.538 24.6638 160.682 23.5838 160.634 22.4798C160.634 21.3278 160.394 20.3198 159.914 19.4558C159.482 18.5438 158.738 18.0878 157.682 18.0878C156.53 18.0878 155.522 18.6398 154.658 19.7438C153.842 20.8478 153.146 22.2878 152.57 24.0638C152.042 25.7918 151.634 27.7118 151.346 29.8238C151.058 31.9358 150.914 33.9998 150.914 36.0158L150.842 46.5278Z" fill="#FF8400"/>
<path d="M215.261 33.4238C215.261 36.3038 214.709 38.9438 213.605 41.3438C212.501 43.6958 210.989 45.7118 209.069 47.3918C207.197 49.0238 204.965 50.2958 202.373 51.2078C199.829 52.1198 197.117 52.5758 194.237 52.5758C191.357 52.5758 188.621 52.1198 186.029 51.2078C183.485 50.2958 181.253 49.0238 179.333 47.3918C177.461 45.7118 175.973 43.6958 174.869 41.3438C173.765 38.9438 173.213 36.3038 173.213 33.4238C173.213 30.5438 173.765 27.9278 174.869 25.5758C175.973 23.1758 177.461 21.1598 179.333 19.5278C181.253 17.8478 183.485 16.5518 186.029 15.6398C188.621 14.7278 191.357 14.2718 194.237 14.2718C197.117 14.2718 199.829 14.7278 202.373 15.6398C204.965 16.5518 207.197 17.8478 209.069 19.5278C210.989 21.1598 212.501 23.1758 213.605 25.5758C214.709 27.9278 215.261 30.5438 215.261 33.4238ZM194.237 51.3518C194.957 51.3518 195.629 50.8958 196.253 49.9838C196.925 49.0238 197.501 47.7278 197.981 46.0958C198.461 44.4638 198.845 42.5678 199.133 40.4078C199.421 38.1998 199.565 35.8718 199.565 33.4238C199.565 30.9758 199.421 28.6718 199.133 26.5118C198.845 24.3038 198.461 22.3838 197.981 20.7518C197.501 19.1198 196.925 17.8478 196.253 16.9358C195.629 15.9758 194.957 15.4958 194.237 15.4958C193.517 15.4958 192.821 15.9758 192.149 16.9358C191.525 17.8478 190.973 19.1198 190.493 20.7518C190.013 22.3838 189.629 24.3038 189.341 26.5118C189.053 28.6718 188.909 30.9758 188.909 33.4238C188.909 35.8718 189.053 38.1998 189.341 40.4078C189.629 42.5678 190.013 44.4638 190.493 46.0958C190.973 47.7278 191.525 49.0238 192.149 49.9838C192.821 50.8958 193.517 51.3518 194.237 51.3518Z" fill="#FF8400"/>
<path d="M262.495 46.5278C262.495 47.4878 262.615 48.3278 262.855 49.0478C263.095 49.7198 263.359 50.2718 263.647 50.7038C263.983 51.2318 264.367 51.6638 264.799 51.9998H244.279C244.711 51.6638 245.095 51.2318 245.431 50.7038C245.719 50.2718 245.983 49.6958 246.223 48.9758C246.463 48.2558 246.583 47.4158 246.583 46.4558V27.7358C246.583 25.3358 246.319 23.4398 245.791 22.0478C245.263 20.6078 244.591 19.5758 243.775 18.9518C242.959 18.3278 242.071 18.0398 241.111 18.0878C240.199 18.0878 239.335 18.3518 238.519 18.8798C237.703 19.4078 237.031 20.1038 236.503 20.9678C235.975 21.8318 235.711 22.7918 235.711 23.8478H235.639V46.5278C235.639 47.4878 235.759 48.3278 235.999 49.0478C236.239 49.7198 236.503 50.2718 236.791 50.7038C237.127 51.2318 237.511 51.6638 237.943 51.9998H217.423C217.855 51.6638 218.239 51.2318 218.575 50.7038C218.863 50.2718 219.127 49.6958 219.367 48.9758C219.607 48.2558 219.727 47.4158 219.727 46.4558V22.8398C219.727 21.8798 219.607 21.0638 219.367 20.3918C219.127 19.7198 218.863 19.1438 218.575 18.6638C218.239 18.1358 217.855 17.6798 217.423 17.2958L235.711 14.4158V20.6078C236.623 19.0238 237.895 17.7278 239.527 16.7198C241.207 15.6638 243.031 14.9438 244.999 14.5598C247.015 14.1758 249.055 14.1758 251.119 14.5598C253.183 14.8958 255.055 15.6638 256.735 16.8638C258.415 18.0638 259.783 19.6958 260.839 21.7598C261.943 23.8238 262.495 26.3918 262.495 29.4638V46.5278Z" fill="#FF8400"/>
<path d="M312.21 28.7438C315.282 28.7438 317.898 29.3438 320.058 30.5438C322.218 31.6958 323.802 33.1598 324.81 34.9358C325.866 36.7118 326.298 38.6318 326.106 40.6958C325.914 42.7598 325.026 44.6798 323.442 46.4558C321.858 48.2318 319.53 49.7198 316.458 50.9198C313.386 52.0718 309.474 52.6478 304.722 52.6478C301.938 52.6478 299.226 52.3838 296.586 51.8558C293.946 51.2798 291.594 50.3918 289.53 49.1918C287.466 47.9918 285.81 46.4318 284.562 44.5118C283.314 42.5438 282.69 40.1438 282.69 37.3118C282.69 33.7118 284.226 30.6398 287.298 28.0958C290.37 25.5038 294.858 23.7278 300.762 22.7678C298.746 22.5758 296.754 22.2638 294.786 21.8318C292.818 21.3998 291.042 20.7998 289.458 20.0318C287.874 19.2638 286.578 18.3278 285.57 17.2238C284.61 16.0718 284.13 14.7038 284.13 13.1198C284.13 11.7758 284.514 10.5038 285.282 9.30384C286.05 8.05584 287.178 6.97584 288.666 6.06384C290.202 5.15184 292.074 4.43184 294.282 3.90384C296.538 3.37584 299.154 3.11184 302.13 3.11184C306.258 3.11184 309.714 3.44784 312.498 4.11984C315.33 4.79184 317.538 5.63184 319.122 6.63984C320.706 7.64784 321.69 8.75184 322.074 9.95184C322.458 11.1038 322.314 12.1838 321.642 13.1918C320.97 14.1998 319.77 15.0398 318.042 15.7118C316.314 16.3838 314.13 16.7198 311.49 16.7198C311.97 16.2398 312.354 15.3278 312.642 13.9838C312.978 12.5918 313.002 11.1758 312.714 9.73584C312.474 8.24784 311.85 6.95184 310.842 5.84784C309.834 4.69584 308.226 4.11984 306.018 4.11984C305.394 4.11984 304.698 4.23984 303.93 4.47984C303.21 4.71984 302.514 5.10384 301.842 5.63184C301.218 6.15984 300.666 6.87984 300.186 7.79184C299.754 8.65584 299.538 9.73584 299.538 11.0318C299.538 13.5278 299.922 15.5198 300.69 17.0078C301.506 18.4478 302.562 19.5518 303.858 20.3198C305.202 21.0878 306.738 21.5918 308.466 21.8318C310.242 22.0238 312.066 22.1198 313.938 22.1198V23.1278C310.146 23.1278 307.05 23.8478 304.65 25.2878C302.298 26.6798 300.522 28.4318 299.322 30.5438C298.17 32.6558 297.522 34.9358 297.378 37.3838C297.282 39.8318 297.57 42.1118 298.242 44.2238C298.914 46.3358 299.922 48.1118 301.266 49.5518C302.658 50.9438 304.242 51.6398 306.018 51.6398C308.322 51.6398 310.242 51.0878 311.778 49.9838C313.314 48.8798 314.514 47.4878 315.378 45.8078C316.29 44.1278 316.866 42.3278 317.106 40.4078C317.394 38.4878 317.37 36.6878 317.034 35.0078C316.698 33.3278 316.098 31.9358 315.234 30.8318C314.37 29.7278 313.29 29.1758 311.994 29.1758C310.65 29.1758 309.642 29.6798 308.97 30.6878C308.298 31.6478 308.01 32.7278 308.106 33.9278C308.25 35.1278 308.802 36.2318 309.762 37.2398C310.722 38.1998 312.138 38.6798 314.01 38.6798C312.762 39.8318 311.466 40.5518 310.122 40.8398C308.826 41.1278 307.626 41.1038 306.522 40.7678C305.418 40.4318 304.506 39.8558 303.786 39.0398C303.114 38.2238 302.778 37.2878 302.778 36.2318C302.778 34.0718 303.378 32.4158 304.578 31.2638C305.826 30.1118 307.362 29.2478 309.186 28.6718C311.01 28.0478 312.978 27.5678 315.09 27.2318C317.25 26.8958 319.242 26.5118 321.066 26.0798C322.89 25.5998 324.402 24.9518 325.602 24.1358C326.85 23.3198 327.474 22.0718 327.474 20.3918C327.474 19.4318 327.21 18.7598 326.682 18.3758C326.154 17.9438 325.578 17.6318 324.954 17.4398C324.234 17.2478 323.418 17.1758 322.506 17.2238C323.706 16.3598 324.93 15.8078 326.178 15.5678C327.426 15.3278 328.578 15.3518 329.634 15.6398C330.69 15.8798 331.554 16.3598 332.226 17.0798C332.898 17.7518 333.234 18.5918 333.234 19.5998C333.234 21.6638 332.466 23.2238 330.93 24.2798C329.442 25.3358 327.594 26.1278 325.386 26.6558C323.226 27.1838 320.922 27.5678 318.474 27.8078C316.074 28.0478 313.986 28.3598 312.21 28.7438Z" fill="#FF8400"/>
<path d="M351.157 51.9998C351.589 51.6638 351.973 51.2318 352.309 50.7038C352.597 50.2718 352.861 49.6958 353.101 48.9758C353.341 48.2558 353.461 47.4158 353.461 46.4558V9.15984C353.461 8.19984 353.341 7.38384 353.101 6.71184C352.861 5.99184 352.597 5.39184 352.309 4.91184C351.973 4.38384 351.589 3.95184 351.157 3.61584H392.053L388.741 17.5838C388.405 15.0878 387.517 12.8798 386.077 10.9598C385.453 10.1438 384.685 9.32784 383.773 8.51184C382.909 7.69584 381.829 6.97584 380.533 6.35184C379.285 5.72784 377.797 5.22384 376.069 4.83984C374.389 4.45584 372.469 4.26384 370.309 4.26384V24.2078H372.613C374.821 24.2078 376.645 23.9198 378.085 23.3438C379.573 22.7198 380.773 22.0478 381.685 21.3278C382.741 20.4638 383.581 19.5038 384.205 18.4478V30.6878C383.581 29.6318 382.741 28.6718 381.685 27.8078C380.773 27.0878 379.573 26.4158 378.085 25.7918C376.645 25.1678 374.821 24.8558 372.613 24.8558H370.309V46.5278C370.309 47.4878 370.405 48.3278 370.597 49.0478C370.837 49.7198 371.101 50.2718 371.389 50.7038C371.725 51.2318 372.109 51.6638 372.541 51.9998H351.157Z" fill="#FF8400"/>
<path d="M431.191 33.4238C431.191 36.3038 430.639 38.9438 429.535 41.3438C428.431 43.6958 426.919 45.7118 424.999 47.3918C423.127 49.0238 420.895 50.2958 418.303 51.2078C415.759 52.1198 413.047 52.5758 410.167 52.5758C407.287 52.5758 404.551 52.1198 401.959 51.2078C399.415 50.2958 397.183 49.0238 395.263 47.3918C393.391 45.7118 391.903 43.6958 390.799 41.3438C389.695 38.9438 389.143 36.3038 389.143 33.4238C389.143 30.5438 389.695 27.9278 390.799 25.5758C391.903 23.1758 393.391 21.1598 395.263 19.5278C397.183 17.8478 399.415 16.5518 401.959 15.6398C404.551 14.7278 407.287 14.2718 410.167 14.2718C413.047 14.2718 415.759 14.7278 418.303 15.6398C420.895 16.5518 423.127 17.8478 424.999 19.5278C426.919 21.1598 428.431 23.1758 429.535 25.5758C430.639 27.9278 431.191 30.5438 431.191 33.4238ZM410.167 51.3518C410.887 51.3518 411.559 50.8958 412.183 49.9838C412.855 49.0238 413.431 47.7278 413.911 46.0958C414.391 44.4638 414.775 42.5678 415.063 40.4078C415.351 38.1998 415.495 35.8718 415.495 33.4238C415.495 30.9758 415.351 28.6718 415.063 26.5118C414.775 24.3038 414.391 22.3838 413.911 20.7518C413.431 19.1198 412.855 17.8478 412.183 16.9358C411.559 15.9758 410.887 15.4958 410.167 15.4958C409.447 15.4958 408.751 15.9758 408.079 16.9358C407.455 17.8478 406.903 19.1198 406.423 20.7518C405.943 22.3838 405.559 24.3038 405.271 26.5118C404.983 28.6718 404.839 30.9758 404.839 33.4238C404.839 35.8718 404.983 38.1998 405.271 40.4078C405.559 42.5678 405.943 44.4638 406.423 46.0958C406.903 47.7278 407.455 49.0238 408.079 49.9838C408.751 50.8958 409.447 51.3518 410.167 51.3518Z" fill="#FF8400"/>
<path d="M433.353 51.9998C433.785 51.6638 434.169 51.2318 434.505 50.7038C434.793 50.2718 435.057 49.6958 435.297 48.9758C435.537 48.2558 435.657 47.4158 435.657 46.4558L435.585 9.15984C435.585 8.19984 435.465 7.38384 435.225 6.71184C434.985 5.99184 434.721 5.39184 434.433 4.91184C434.097 4.38384 433.737 3.95184 433.353 3.61584L451.569 0.73584L451.497 46.5278C451.497 47.4878 451.617 48.3278 451.857 49.0478C452.097 49.7198 452.361 50.2718 452.649 50.7038C452.985 51.2318 453.369 51.6638 453.801 51.9998H433.353Z" fill="#FF8400"/>
<path d="M455.22 51.9998C455.652 51.6638 456.036 51.2318 456.372 50.7038C456.66 50.2718 456.924 49.6958 457.164 48.9758C457.404 48.2558 457.524 47.4158 457.524 46.4558L457.452 9.15984C457.452 8.19984 457.332 7.38384 457.092 6.71184C456.852 5.99184 456.588 5.39184 456.3 4.91184C455.964 4.38384 455.604 3.95184 455.22 3.61584L473.436 0.73584L473.364 46.5278C473.364 47.4878 473.484 48.3278 473.724 49.0478C473.964 49.7198 474.228 50.2718 474.516 50.7038C474.852 51.2318 475.236 51.6638 475.668 51.9998H455.22Z" fill="#FF8400"/>
<path d="M509.415 26.7998C509.655 25.8398 509.727 24.7118 509.631 23.4158C509.535 22.0718 509.367 20.7758 509.127 19.5278C508.839 18.0878 508.455 16.6238 507.975 15.1358H518.631C517.239 16.6718 515.943 18.1598 514.743 19.5998C513.735 20.8478 512.751 22.1438 511.791 23.4878C510.831 24.7838 510.231 25.9118 509.991 26.8718L502.791 52.4318C501.639 56.5118 500.463 60.0638 499.263 63.0878C498.063 66.1598 496.743 68.7038 495.303 70.7198C493.911 72.7838 492.375 74.3198 490.695 75.3278C489.015 76.3838 487.095 76.9118 484.935 76.9118C483.255 76.9118 481.815 76.5998 480.615 75.9758C479.415 75.3518 478.455 74.5598 477.735 73.5998C477.063 72.6398 476.679 71.5598 476.583 70.3598C476.487 69.1598 476.679 67.9838 477.159 66.8318C477.687 65.6798 478.551 64.6238 479.751 63.6638C480.951 62.7038 482.511 61.9358 484.431 61.3598C484.431 63.6158 484.935 65.4398 485.943 66.8318C486.951 68.2238 488.319 68.9198 490.047 68.9198C490.959 68.9198 491.847 68.6798 492.711 68.1998C493.575 67.7198 494.367 67.0958 495.087 66.3278C495.855 65.5598 496.551 64.6718 497.175 63.6638C497.847 62.7038 498.447 61.6958 498.975 60.6398C500.223 58.2398 501.327 55.4798 502.287 52.3598C501.807 52.3598 501.111 52.2878 500.199 52.1438C499.287 51.9998 498.303 51.7358 497.247 51.3518C496.239 50.9198 495.255 50.3198 494.295 49.5518C493.335 48.7838 492.591 47.7518 492.063 46.4558L481.767 20.6798C481.383 19.7678 480.951 18.9758 480.471 18.3038C479.991 17.6318 479.511 17.0798 479.031 16.6478C478.599 16.1678 478.191 15.8078 477.807 15.5678C477.471 15.3278 477.279 15.1838 477.231 15.1358H497.823C497.583 15.4718 497.391 15.9038 497.247 16.4318C497.151 16.8638 497.103 17.4398 497.103 18.1598C497.151 18.8318 497.367 19.6478 497.751 20.6078L505.671 40.1918L509.415 26.7998Z" fill="#FF8400"/>
</svg>
