<svg width="256" height="256" viewBox="0 0 256 256" fill="none" xmlns="http://www.w3.org/2000/svg">
<path d="M256 0H0V256H256V0Z" fill="#FF8400"/>
<path d="M134.921 74.4049L169.058 48.5489C167.436 66.042 165.852 83.1421 164.234 100.588C157.216 88.6372 147.858 79.5735 134.922 74.4055M192.506 132.854C190.291 136.351 188.553 140.154 185.823 143.323C182.1 147.643 177.426 150.142 171.687 150.192C159.015 150.304 146.336 150.295 133.66 150.304C129.453 150.318 125.301 151.261 121.5 153.065C109.12 158.82 105.769 172.867 114.217 183.597C115.683 185.536 117.457 187.222 119.468 188.589C118.677 181.582 119.702 175.202 123.366 169.459C126.884 163.72 132.517 159.594 139.05 157.97C129.647 176.004 129.863 190.941 131.682 209.456C131.682 209.456 114.552 198.213 109.867 194.706C103.162 189.686 96.0329 185.217 89.9068 179.442C78.989 169.15 72.1717 156.673 70.2991 141.73C68.5865 128.064 71.478 115.234 78.5212 103.458C85.6034 91.6177 92.2063 79.5217 98.8591 67.4468C102.555 60.7392 106.246 54.0285 109.931 47.3149C110.306 46.6301 110.49 46.0689 111.189 47.1511L134.895 84.3601L125.003 84.5425L110.957 60.6161V100.522C121.865 96.0253 133.133 94.7767 144.841 98.1834C149.701 99.5972 154.268 101.895 157.786 105.524C165.618 113.6 174.922 119.703 184.099 126.004C186.775 127.841 189.411 129.737 192.081 131.582C192.58 131.927 192.924 132.185 192.503 132.85M131.682 106.533C134.83 113.502 143.686 117.925 151.249 116.336C150.491 114.506 149.5 112.781 148.3 111.205C146.384 108.88 144.034 107.102 140.997 106.683C137.933 106.26 134.826 106.539 131.682 106.533ZM181.754 137.389C180.333 136.052 179.312 134.346 178.805 132.461C178.753 132.225 178.639 132.008 178.474 131.832C178.309 131.656 178.099 131.529 177.867 131.463C168.723 127.905 159.612 124.266 150.21 121.418C138.968 118.013 127.554 115.495 115.788 114.954C107.5 114.573 99.1977 114.884 90.9013 114.813C90.6611 114.785 90.4179 114.823 90.1976 114.923C89.9774 115.022 89.7884 115.18 89.6508 115.379C85.7557 120.649 83.3289 126.472 82.9103 133.063C82.1276 145.397 86.6665 155.6 95.3692 164.126C95.8215 164.701 96.4177 165.145 97.0972 165.414C96.7913 161.008 96.8213 156.665 97.8601 152.366C99.997 143.52 105.476 137.219 112.9 132.346C113.505 131.949 113.784 132.267 114.168 132.563C116.761 134.605 119.728 136.12 122.902 137.022C127.834 138.381 132.929 138.78 137.99 139.266C148.845 140.308 159.669 141.628 170.514 142.747C174.813 143.19 178.799 142.711 181.835 139.12C182.455 138.387 182.411 138.013 181.754 137.389" fill="#171614"/>
</svg>
